{
  "asset": {
    "version": "2.0",
    "generator": "THREE.GLTFExporter"
  },
  "scenes": [
    {
      "nodes": [
        0
      ]
    }
  ],
  "scene": 0,
  "nodes": [
    {
      "children": [
        10
      ],
      "matrix": [
        0.01,
        0,
        0,
        0,
        0,
        0.01,
        0,
        0,
        0,
        0,
        0.01,
        0,
        0,
        0,
        0,
        1
      ]
    },
    {
      "matrix": [
        4.413704845835696e-8,
        0.7916243719500013,
        -5.712717429856593e-16,
        0,
        2.308828165374395e-16,
        3.694125064599032e-15,
        4.159215066097052,
        0,
        0.7916243719500013,
        -4.4137048370469e-8,
        3.150245395727652e-39,
        0,
        23.304802116097257,
        85.40094831283827,
        -13.54987371494539,
        1.0000000000000002
      ],
      "name": "supporpiece1",
      "mesh": 0
    },
    {
      "matrix": [
        4.718448948562157e-8,
        0.7916243719500009,
        -7.031036836746571e-16,
        0,
        5.1266185999358e-32,
        3.6941250645990354e-15,
        4.159215066097056,
        0,
        0.7916243719500009,
        -4.718448948562157e-8,
        -1.951506548726503e-32,
        0,
        -26.077729267787774,
        85.40095096739921,
        -13.549873714945434,
        1
      ],
      "name": "supportpiece2",
      "mesh": 1
    },
    {
      "matrix": [
        1.6379924500343048,
        0,
        0,
        0,
        0,
        1.6379924500343048,
        0,
        0,
        0,
        0,
        1.6379924500343048,
        0,
        -0.08852448820204231,
        120.69869388236857,
        20.921391304019437,
        1
      ],
      "name": "screen",
      "mesh": 2
    },
    {
      "matrix": [
        1.6379924500343042,
        0,
        0,
        0,
        0,
        0.10441153614123097,
        0,
        0,
        0,
        0,
        1.3334677007625166,
        0,
        -0.5424064539337463,
        3.0279343489464883,
        39.231467112929764,
        0.9999999999999998
      ],
      "name": "support",
      "mesh": 3
    },
    {
      "matrix": [
        -1.6379924500343048,
        2.0059622109620423e-16,
        -2.4565952008652128e-32,
        0,
        2.0059622109620423e-16,
        1.6379924500343048,
        -2.0059622109620423e-16,
        0,
        0,
        -7.180438092834978e-18,
        -0.058632726577444845,
        0,
        -2.842170943040401e-14,
        110.28577424486771,
        16.49723401769888,
        1
      ],
      "name": "bottompartmonitor",
      "mesh": 4
    },
    {
      "matrix": [
        -1.6379924500343048,
        2.0059622109620423e-16,
        -2.4565952008652128e-32,
        0,
        2.0059622109620423e-16,
        1.6379924500343048,
        -2.0059622109620423e-16,
        0,
        0,
        -7.180438092834978e-18,
        -0.058632726577444845,
        0,
        -2.842170943040401e-14,
        110.28577424486771,
        16.49723401769888,
        1
      ],
      "name": "toppartmonitor",
      "mesh": 5
    },
    {
      "matrix": [
        0.3,
        0,
        0,
        0,
        0,
        0.3,
        0,
        0,
        0,
        0,
        0.3,
        0,
        0,
        0,
        0,
        1
      ],
      "name": "monitor",
      "children": [
        1,
        2,
        3,
        4,
        5,
        6
      ]
    },
    {
      "matrix": [
        0.7071067811865477,
        5.551115123125783e-17,
        -0.7071067811865474,
        0,
        -0.4082482904638631,
        0.8164965809277259,
        -0.40824829046386313,
        0,
        0.5773502691896256,
        0.5773502691896258,
        0.5773502691896258,
        0,
        579.0485703001195,
        693.0923954563262,
        616.187688214755,
        1
      ],
      "camera": 0
    },
    {
      "matrix": [
        1,
        0,
        0,
        0,
        0,
        1,
        0,
        0,
        0,
        0,
        1,
        0,
        0,
        1,
        0,
        1
      ],
      "name": "Default Ambient Light"
    },
    {
      "name": "Scene",
      "children": [
        7,
        8,
        9
      ]
    }
  ],
  "bufferViews": [
    {
      "buffer": 0,
      "byteOffset": 0,
      "byteLength": 1344,
      "target": 34962,
      "byteStride": 12
    },
    {
      "buffer": 0,
      "byteOffset": 1344,
      "byteLength": 1344,
      "target": 34962,
      "byteStride": 12
    },
    {
      "buffer": 0,
      "byteOffset": 2688,
      "byteLength": 896,
      "target": 34962,
      "byteStride": 8
    },
    {
      "buffer": 0,
      "byteOffset": 3584,
      "byteLength": 432,
      "target": 34963
    },
    {
      "buffer": 0,
      "byteOffset": 4016,
      "byteLength": 1344,
      "target": 34962,
      "byteStride": 12
    },
    {
      "buffer": 0,
      "byteOffset": 5360,
      "byteLength": 1344,
      "target": 34962,
      "byteStride": 12
    },
    {
      "buffer": 0,
      "byteOffset": 6704,
      "byteLength": 896,
      "target": 34962,
      "byteStride": 8
    },
    {
      "buffer": 0,
      "byteOffset": 7600,
      "byteLength": 432,
      "target": 34963
    },
    {
      "buffer": 0,
      "byteOffset": 8032,
      "byteLength": 48,
      "target": 34962,
      "byteStride": 12
    },
    {
      "buffer": 0,
      "byteOffset": 8080,
      "byteLength": 48,
      "target": 34962,
      "byteStride": 12
    },
    {
      "buffer": 0,
      "byteOffset": 8128,
      "byteLength": 32,
      "target": 34962,
      "byteStride": 8
    },
    {
      "buffer": 0,
      "byteOffset": 8160,
      "byteLength": 24,
      "target": 34963
    },
    {
      "buffer": 0,
      "byteOffset": 8184,
      "byteLength": 10368,
      "target": 34962,
      "byteStride": 12
    },
    {
      "buffer": 0,
      "byteOffset": 18552,
      "byteLength": 10368,
      "target": 34962,
      "byteStride": 12
    },
    {
      "buffer": 0,
      "byteOffset": 28920,
      "byteLength": 5184,
      "target": 34963
    },
    {
      "buffer": 0,
      "byteOffset": 34104,
      "byteLength": 12624,
      "target": 34962,
      "byteStride": 12
    },
    {
      "buffer": 0,
      "byteOffset": 46728,
      "byteLength": 12624,
      "target": 34962,
      "byteStride": 12
    },
    {
      "buffer": 0,
      "byteOffset": 59352,
      "byteLength": 4776,
      "target": 34963
    },
    {
      "buffer": 0,
      "byteOffset": 64128,
      "byteLength": 12912,
      "target": 34962,
      "byteStride": 12
    },
    {
      "buffer": 0,
      "byteOffset": 77040,
      "byteLength": 12912,
      "target": 34962,
      "byteStride": 12
    },
    {
      "buffer": 0,
      "byteOffset": 89952,
      "byteLength": 4920,
      "target": 34963
    }
  ],
  "buffers": [
    {
      "byteLength": 94872,
      "uri": "data:application/octet-stream;base64,"
    }
  ],
  "accessors": [
    {
      "bufferView": 0,
      "componentType": 5126,
      "count": 112,
      "max": [
        12.310096740722656,
        5.5,
        12.5
      ],
      "min": [
        -12.310096740722656,
        -5.5,
        -12.5
      ],
      "type": "VEC3"
    },
    {
      "bufferView": 1,
      "componentType": 5126,
      "count": 112,
      "max": [
        0.9848077297210693,
        1,
        1
      ],
      "min": [
        -0.9848077297210693,
        -1,
        -1
      ],
      "type": "VEC3"
    },
    {
      "bufferView": 2,
      "componentType": 5126,
      "count": 112,
      "max": [
        1,
        1
      ],
      "min": [
        0,
        0
      ],
      "type": "VEC2"
    },
    {
      "bufferView": 3,
      "componentType": 5123,
      "count": 216,
      "max": [
        111
      ],
      "min": [
        0
      ],
      "type": "SCALAR"
    },
    {
      "bufferView": 4,
      "componentType": 5126,
      "count": 112,
      "max": [
        12.310096740722656,
        5.5,
        12.5
      ],
      "min": [
        -12.310096740722656,
        -5.5,
        -12.5
      ],
      "type": "VEC3"
    },
    {
      "bufferView": 5,
      "componentType": 5126,
      "count": 112,
      "max": [
        0.9848077297210693,
        1,
        1
      ],
      "min": [
        -0.9848077297210693,
        -1,
        -1
      ],
      "type": "VEC3"
    },
    {
      "bufferView": 6,
      "componentType": 5126,
      "count": 112,
      "max": [
        1,
        1
      ],
      "min": [
        0,
        0
      ],
      "type": "VEC2"
    },
    {
      "bufferView": 7,
      "componentType": 5123,
      "count": 216,
      "max": [
        111
      ],
      "min": [
        0
      ],
      "type": "SCALAR"
    },
    {
      "bufferView": 8,
      "componentType": 5126,
      "count": 4,
      "max": [
        75.5,
        43,
        0
      ],
      "min": [
        -75.5,
        -43,
        0
      ],
      "type": "VEC3"
    },
    {
      "bufferView": 9,
      "componentType": 5126,
      "count": 4,
      "max": [
        0,
        0,
        1
      ],
      "min": [
        0,
        0,
        1
      ],
      "type": "VEC3"
    },
    {
      "bufferView": 10,
      "componentType": 5126,
      "count": 4,
      "max": [
        1,
        1
      ],
      "min": [
        0,
        0
      ],
      "type": "VEC2"
    },
    {
      "bufferView": 11,
      "componentType": 5125,
      "count": 6,
      "max": [
        3
      ],
      "min": [
        0
      ],
      "type": "SCALAR"
    },
    {
      "bufferView": 12,
      "componentType": 5126,
      "count": 864,
      "max": [
        29,
        976.91796875,
        31
      ],
      "min": [
        -29,
        -28.999998092651367,
        -54.999717712402344
      ],
      "type": "VEC3"
    },
    {
      "bufferView": 13,
      "componentType": 5126,
      "count": 864,
      "max": [
        1,
        1,
        1
      ],
      "min": [
        -1,
        -1,
        -0.9999994039535522
      ],
      "type": "VEC3"
    },
    {
      "bufferView": 14,
      "componentType": 5125,
      "count": 1296,
      "max": [
        863
      ],
      "min": [
        0
      ],
      "type": "SCALAR"
    },
    {
      "bufferView": 15,
      "componentType": 5126,
      "count": 1052,
      "max": [
        80,
        -34.99546432495117,
        80
      ],
      "min": [
        -80,
        -53,
        -104.01384735107422
      ],
      "type": "VEC3"
    },
    {
      "bufferView": 16,
      "componentType": 5126,
      "count": 1052,
      "max": [
        0.9984725117683411,
        1,
        0.9984724521636963
      ],
      "min": [
        -0.9984725117683411,
        -1,
        -0.9984724521636963
      ],
      "type": "VEC3"
    },
    {
      "bufferView": 17,
      "componentType": 5125,
      "count": 1194,
      "max": [
        1051
      ],
      "min": [
        0
      ],
      "type": "SCALAR"
    },
    {
      "bufferView": 18,
      "componentType": 5126,
      "count": 1076,
      "max": [
        80,
        53,
        80
      ],
      "min": [
        -80,
        -34.99546813964844,
        -104.01384735107422
      ],
      "type": "VEC3"
    },
    {
      "bufferView": 19,
      "componentType": 5126,
      "count": 1076,
      "max": [
        1,
        1,
        0.9986099600791931
      ],
      "min": [
        -1,
        -1,
        -1
      ],
      "type": "VEC3"
    },
    {
      "bufferView": 20,
      "componentType": 5125,
      "count": 1230,
      "max": [
        1075
      ],
      "min": [
        0
      ],
      "type": "SCALAR"
    }
  ],
  "materials": [
    {
      "pbrMetallicRoughness": {
        "baseColorFactor": [
          0.2515886676709869,
          0.2515886676709869,
          0.25975034618640813,
          1
        ],
        "metallicFactor": 0,
        "roughnessFactor": 0.3
      },
      "doubleSided": false
    },
    {
      "pbrMetallicRoughness": {
        "baseColorFactor": [
          0.17672052292636956,
          0.29713964055875186,
          0.6413380393056813,
          1
        ],
        "metallicFactor": 0,
        "roughnessFactor": 0.3
      },
      "doubleSided": false
    },
    {
      "pbrMetallicRoughness": {
        "baseColorFactor": [
          0.4322310031501017,
          0.4322310031501017,
          0.4334564990638041,
          1
        ],
        "metallicFactor": 0,
        "roughnessFactor": 0.995
      },
      "doubleSided": false
    },
    {
      "pbrMetallicRoughness": {
        "baseColorFactor": [
          0.4322310031501017,
          0.4322310031501017,
          0.4334564990638041,
          1
        ],
        "metallicFactor": 0,
        "roughnessFactor": 0.995
      },
      "doubleSided": true
    }
  ],
  "meshes": [
    {
      "primitives": [
        {
          "mode": 4,
          "attributes": {
            "POSITION": 0,
            "NORMAL": 1,
            "TEXCOORD_0": 2
          },
          "extras": {
            "parameters": {
              "width": 25,
              "radialSegments": 18,
              "heightSegments": 1,
              "openEnded": false,
              "thetaStart": 0,
              "thetaLength": 360,
              "cornerRadius": 0,
              "cornerSegments": 8,
              "hollow": 0,
              "height": 11,
              "depth": 25,
              "radiusTop": 12.5,
              "radiusBottom": 12.5,
              "type": "CylinderGeometry"
            },
            "type": "CylinderGeometry"
          },
          "indices": 3,
          "material": 0
        }
      ]
    },
    {
      "primitives": [
        {
          "mode": 4,
          "attributes": {
            "POSITION": 4,
            "NORMAL": 5,
            "TEXCOORD_0": 6
          },
          "extras": {
            "parameters": {
              "width": 25,
              "radialSegments": 18,
              "heightSegments": 1,
              "openEnded": false,
              "thetaStart": 0,
              "thetaLength": 360,
              "cornerRadius": 0,
              "cornerSegments": 8,
              "hollow": 0,
              "height": 11,
              "depth": 25,
              "radiusTop": 12.5,
              "radiusBottom": 12.5,
              "type": "CylinderGeometry"
            },
            "type": "CylinderGeometry"
          },
          "indices": 7,
          "material": 0
        }
      ]
    },
    {
      "primitives": [
        {
          "mode": 4,
          "attributes": {
            "POSITION": 8,
            "NORMAL": 9,
            "TEXCOORD_0": 10
          },
          "extras": {
            "shape": {
              "points": [
                -75.5,
                43,
                -75.5,
                43,
                -75.5,
                43,
                0,
                75.5,
                43,
                75.5,
                43,
                75.5,
                43,
                0,
                75.5,
                -43,
                75.5,
                -43,
                75.5,
                -43,
                0,
                -75.5,
                -43,
                -75.5,
                -43,
                -75.5,
                -43,
                0
              ],
              "shapeHoles": [],
              "isClosed": true,
              "roundness": 0
            },
            "parameters": {
              "width": 151,
              "depth": 0,
              "cornerRadius": [
                0,
                0,
                0,
                0
              ],
              "cornerType": 1,
              "extrudeBevelSize": 0,
              "extrudeBevelSegments": 1,
              "height": 86,
              "type": "RectangleGeometry"
            },
            "ui": {
              "enabledIndieCorners": false
            },
            "type": "RectangleGeometry"
          },
          "indices": 11,
          "material": 1
        }
      ]
    },
    {
      "primitives": [
        {
          "mode": 4,
          "attributes": {
            "POSITION": 12,
            "NORMAL": 13
          },
          "extras": {
            "type": "SubdivGeometry",
            "parameters": {
              "width": 58,
              "height": 1005.9567852020264,
              "depth": 86.14253997802734
            }
          },
          "indices": 14,
          "material": 2
        }
      ]
    },
    {
      "primitives": [
        {
          "mode": 4,
          "attributes": {
            "POSITION": 15,
            "NORMAL": 16
          },
          "extras": {
            "type": "SubdivGeometry",
            "parameters": {
              "width": 160,
              "height": 18.004535675048828,
              "depth": 184.01384735107422
            }
          },
          "indices": 17,
          "material": 3
        }
      ]
    },
    {
      "primitives": [
        {
          "mode": 4,
          "attributes": {
            "POSITION": 18,
            "NORMAL": 19
          },
          "extras": {
            "type": "SubdivGeometry",
            "parameters": {
              "width": 160,
              "height": 87.99546813964844,
              "depth": 184.01384735107422
            }
          },
          "indices": 20,
          "material": 2
        }
      ]
    }
  ],
  "cameras": [
    {
      "type": "orthographic",
      "orthographic": {
        "xmag": 8.376731301939058,
        "ymag": 4.753462603878116,
        "zfar": 100000,
        "znear": 0
      }
    }
  ]
}