{
  "asset": {
    "version": "2.0",
    "generator": "THREE.GLTFExporter"
  },
  "scenes": [
    {
      "nodes": [
        0
      ]
    }
  ],
  "scene": 0,
  "nodes": [
    {
      "children": [
        14
      ],
      "matrix": [
        0.01,
        0,
        0,
        0,
        0,
        0.01,
        0,
        0,
        0,
        0,
        0.01,
        0,
        0,
        0,
        0,
        1
      ]
    },
    {
      "matrix": [
        2.6094769583413773e-16,
        0,
        -1.1752039457218122,
        0,
        0,
        1.1752039457218122,
        0,
        0,
        1.1752039457218122,
        0,
        2.6094769583413773e-16,
        0,
        9.756309494869383,
        136.16446149182997,
        -3.383053320293212,
        0.9999999999999999
      ],
      "name": "pole",
      "mesh": 0
    },
    {
      "matrix": [
        1,
        0,
        0,
        0,
        0,
        1,
        0,
        0,
        0,
        0,
        1,
        0,
        0.3612243310535064,
        -16.364926239919953,
        -0.20459845300536017,
        1
      ],
      "name": "Merged Geometry",
      "mesh": 1
    },
    {
      "matrix": [
        -1.7227004945279755e-15,
        0.7465478948735207,
        0.4310196280681756,
        0,
        0.8620392561363381,
        1.6269949114986193e-15,
        9.570558302933066e-17,
        0,
        -8.134974557493233e-16,
        0.43101962806817645,
        -0.746547894873522,
        0,
        0.5167596337271333,
        4.760993893595226,
        5.08263762521716,
        1
      ],
      "name": "Cylinder 2",
      "mesh": 2
    },
    {
      "matrix": [
        -9.570558302933184e-16,
        0.8620392561363499,
        1.0556936157667497e-16,
        0,
        0.8620392561363357,
        9.570558302933028e-16,
        -2.706962670298063e-16,
        0,
        -2.7069626702981097e-16,
        1.0556936157667475e-16,
        -0.8620392561363505,
        0,
        0.5167596337271333,
        19.767295230250696,
        5.08263762521716,
        1
      ],
      "name": "Cylinder",
      "mesh": 3
    },
    {
      "matrix": [
        2.220446049250313e-16,
        0,
        1,
        0,
        0,
        1,
        0,
        0,
        -1,
        0,
        2.220446049250313e-16,
        0,
        1.9994412075865284,
        -1.4210854715202004e-14,
        -0.02334529048141576,
        1
      ],
      "name": "Cube 61",
      "mesh": 4
    },
    {
      "matrix": [
        2.220446049250313e-16,
        0,
        -1,
        0,
        0,
        1,
        0,
        0,
        1,
        0,
        2.220446049250313e-16,
        0,
        48.61189700614218,
        67.92228059229457,
        23.861134246998045,
        1
      ],
      "name": "button",
      "children": [
        2,
        3,
        4,
        5
      ]
    },
    {
      "matrix": [
        1,
        0,
        0,
        0,
        0,
        1,
        0,
        0,
        0,
        0,
        1,
        0,
        -1.6796931574108143,
        20.795961793874227,
        19.33315064354568,
        1
      ],
      "name": "Cube 62",
      "mesh": 5
    },
    {
      "matrix": [
        2.220446049250313e-16,
        0,
        -1,
        0,
        0,
        1,
        0,
        0,
        1,
        0,
        2.220446049250313e-16,
        0,
        -0.9186096191405947,
        55.72318836133192,
        -8.367401794605456,
        1
      ],
      "name": "Cube 60",
      "mesh": 6
    },
    {
      "matrix": [
        2.220446049250313e-16,
        0,
        -1,
        0,
        0,
        1,
        0,
        0,
        1,
        0,
        2.220446049250313e-16,
        0,
        -0.8894206176216509,
        55.9639969371928,
        -8.367401794605456,
        1
      ],
      "name": "Cube 59",
      "mesh": 7
    },
    {
      "matrix": [
        2.220446049250313e-16,
        0,
        -1,
        0,
        0,
        1,
        0,
        0,
        1,
        0,
        2.220446049250313e-16,
        0,
        -0.8894206176216509,
        55.9639969371928,
        -8.367401794605456,
        1
      ],
      "name": "Cube 58",
      "mesh": 8
    },
    {
      "matrix": [
        0.5,
        0,
        0,
        0,
        0,
        0.5,
        0,
        0,
        0,
        0,
        0.5,
        0,
        0,
        -3.552713678800501e-15,
        0,
        1
      ],
      "name": "TV Old",
      "children": [
        1,
        6,
        7,
        8,
        9,
        10
      ]
    },
    {
      "matrix": [
        0.7071067872699215,
        -1.2166747054287441e-8,
        -0.7071067751031734,
        0,
        -0.40824827992715057,
        0.816496580927726,
        -0.40824830100057524,
        0,
        0.5773502691896255,
        0.5773502691896257,
        0.5773502691896263,
        0,
        553.2949189304137,
        632.5522889261921,
        548.310041686992,
        1
      ],
      "camera": 0
    },
    {
      "matrix": [
        1,
        0,
        0,
        0,
        0,
        1,
        0,
        0,
        0,
        0,
        1,
        0,
        0,
        1,
        0,
        1
      ],
      "name": "Default Ambient Light"
    },
    {
      "name": "Scene",
      "children": [
        11,
        12,
        13
      ]
    }
  ],
  "bufferViews": [
    {
      "buffer": 0,
      "byteOffset": 0,
      "byteLength": 2112,
      "target": 34962,
      "byteStride": 12
    },
    {
      "buffer": 0,
      "byteOffset": 2112,
      "byteLength": 2112,
      "target": 34962,
      "byteStride": 12
    },
    {
      "buffer": 0,
      "byteOffset": 4224,
      "byteLength": 1056,
      "target": 34963
    },
    {
      "buffer": 0,
      "byteOffset": 5280,
      "byteLength": 384,
      "target": 34962,
      "byteStride": 12
    },
    {
      "buffer": 0,
      "byteOffset": 5664,
      "byteLength": 384,
      "target": 34962,
      "byteStride": 12
    },
    {
      "buffer": 0,
      "byteOffset": 6048,
      "byteLength": 192,
      "target": 34963
    },
    {
      "buffer": 0,
      "byteOffset": 6240,
      "byteLength": 16128,
      "target": 34962,
      "byteStride": 12
    },
    {
      "buffer": 0,
      "byteOffset": 22368,
      "byteLength": 16128,
      "target": 34962,
      "byteStride": 12
    },
    {
      "buffer": 0,
      "byteOffset": 38496,
      "byteLength": 8064,
      "target": 34963
    },
    {
      "buffer": 0,
      "byteOffset": 46560,
      "byteLength": 16128,
      "target": 34962,
      "byteStride": 12
    },
    {
      "buffer": 0,
      "byteOffset": 62688,
      "byteLength": 16128,
      "target": 34962,
      "byteStride": 12
    },
    {
      "buffer": 0,
      "byteOffset": 78816,
      "byteLength": 8064,
      "target": 34963
    },
    {
      "buffer": 0,
      "byteOffset": 86880,
      "byteLength": 1440,
      "target": 34962,
      "byteStride": 12
    },
    {
      "buffer": 0,
      "byteOffset": 88320,
      "byteLength": 1440,
      "target": 34962,
      "byteStride": 12
    },
    {
      "buffer": 0,
      "byteOffset": 89760,
      "byteLength": 720,
      "target": 34963
    },
    {
      "buffer": 0,
      "byteOffset": 90480,
      "byteLength": 14208,
      "target": 34962,
      "byteStride": 12
    },
    {
      "buffer": 0,
      "byteOffset": 104688,
      "byteLength": 14208,
      "target": 34962,
      "byteStride": 12
    },
    {
      "buffer": 0,
      "byteOffset": 118896,
      "byteLength": 7104,
      "target": 34963
    },
    {
      "buffer": 0,
      "byteOffset": 126000,
      "byteLength": 19200,
      "target": 34962,
      "byteStride": 12
    },
    {
      "buffer": 0,
      "byteOffset": 145200,
      "byteLength": 19200,
      "target": 34962,
      "byteStride": 12
    },
    {
      "buffer": 0,
      "byteOffset": 164400,
      "byteLength": 9600,
      "target": 34963
    },
    {
      "buffer": 0,
      "byteOffset": 174000,
      "byteLength": 23424,
      "target": 34962,
      "byteStride": 12
    },
    {
      "buffer": 0,
      "byteOffset": 197424,
      "byteLength": 23424,
      "target": 34962,
      "byteStride": 12
    },
    {
      "buffer": 0,
      "byteOffset": 220848,
      "byteLength": 11712,
      "target": 34963
    },
    {
      "buffer": 0,
      "byteOffset": 232560,
      "byteLength": 288,
      "target": 34962,
      "byteStride": 12
    },
    {
      "buffer": 0,
      "byteOffset": 232848,
      "byteLength": 288,
      "target": 34962,
      "byteStride": 12
    },
    {
      "buffer": 0,
      "byteOffset": 233136,
      "byteLength": 144,
      "target": 34963
    }
  ],
  "buffers": [
    {
      "byteLength": 233280,
      "uri": "data:application/octet-stream;base64,"
    }
  ],
  "accessors": [
    {
      "bufferView": 0,
      "componentType": 5126,
      "count": 176,
      "max": [
        2.5100362300872803,
        26.398983001708984,
        46.822059631347656
      ],
      "min": [
        -2.5100362300872803,
        -26.86543083190918,
        -46.728214263916016
      ],
      "type": "VEC3"
    },
    {
      "bufferView": 1,
      "componentType": 5126,
      "count": 176,
      "max": [
        0.7072091698646545,
        0.9416583180427551,
        0.8772454857826233
      ],
      "min": [
        -0.7072089314460754,
        -0.9255239963531494,
        -0.8184000849723816
      ],
      "type": "VEC3"
    },
    {
      "bufferView": 2,
      "componentType": 5125,
      "count": 264,
      "max": [
        175
      ],
      "min": [
        0
      ],
      "type": "SCALAR"
    },
    {
      "bufferView": 3,
      "componentType": 5126,
      "count": 32,
      "max": [
        2.6162590397880905e-15,
        11.2471284866333,
        11.782583236694336
      ],
      "min": [
        -1.163030988789865e-13,
        -11.2471284866333,
        -11.782583236694336
      ],
      "type": "VEC3"
    },
    {
      "bufferView": 4,
      "componentType": 5126,
      "count": 32,
      "max": [
        -0.9999999403953552,
        0,
        2.2204836363373475e-16
      ],
      "min": [
        -1,
        0,
        2.220445387505823e-16
      ],
      "type": "VEC3"
    },
    {
      "bufferView": 5,
      "componentType": 5125,
      "count": 48,
      "max": [
        31
      ],
      "min": [
        0
      ],
      "type": "SCALAR"
    },
    {
      "bufferView": 6,
      "componentType": 5126,
      "count": 1344,
      "max": [
        7.502047061920166,
        1.8296194076538086,
        7.502047061920166
      ],
      "min": [
        -7.502047061920166,
        -4.135395050048828,
        -7.502047061920166
      ],
      "type": "VEC3"
    },
    {
      "bufferView": 7,
      "componentType": 5126,
      "count": 1344,
      "max": [
        0.9990439414978027,
        1,
        0.9990826845169067
      ],
      "min": [
        -0.9990428686141968,
        -1,
        -0.9990372061729431
      ],
      "type": "VEC3"
    },
    {
      "bufferView": 8,
      "componentType": 5125,
      "count": 2016,
      "max": [
        1343
      ],
      "min": [
        0
      ],
      "type": "SCALAR"
    },
    {
      "bufferView": 9,
      "componentType": 5126,
      "count": 1344,
      "max": [
        7.502047061920166,
        1.8296194076538086,
        7.502047061920166
      ],
      "min": [
        -7.502047061920166,
        -4.135395050048828,
        -7.502047061920166
      ],
      "type": "VEC3"
    },
    {
      "bufferView": 10,
      "componentType": 5126,
      "count": 1344,
      "max": [
        0.9990439414978027,
        1,
        0.9990826845169067
      ],
      "min": [
        -0.9990428686141968,
        -1,
        -0.9990372061729431
      ],
      "type": "VEC3"
    },
    {
      "bufferView": 11,
      "componentType": 5125,
      "count": 2016,
      "max": [
        1343
      ],
      "min": [
        0
      ],
      "type": "SCALAR"
    },
    {
      "bufferView": 12,
      "componentType": 5126,
      "count": 120,
      "max": [
        15.593660354614258,
        32.4339714050293,
        2.7570509910583496
      ],
      "min": [
        -15.593660354614258,
        -32.4339714050293,
        -2.6576991081237793
      ],
      "type": "VEC3"
    },
    {
      "bufferView": 13,
      "componentType": 5126,
      "count": 120,
      "max": [
        1,
        1,
        1
      ],
      "min": [
        -1,
        -1,
        -1
      ],
      "type": "VEC3"
    },
    {
      "bufferView": 14,
      "componentType": 5125,
      "count": 180,
      "max": [
        119
      ],
      "min": [
        0
      ],
      "type": "SCALAR"
    },
    {
      "bufferView": 15,
      "componentType": 5126,
      "count": 1184,
      "max": [
        74.28363800048828,
        86.81646728515625,
        2.2404420375823975
      ],
      "min": [
        -71.22762298583984,
        -3.166484832763672,
        -2.320195436477661
      ],
      "type": "VEC3"
    },
    {
      "bufferView": 16,
      "componentType": 5126,
      "count": 1184,
      "max": [
        0.9999997019767761,
        0.9999943375587463,
        1
      ],
      "min": [
        -0.9999790191650391,
        -0.9999909400939941,
        -0.9999999403953552
      ],
      "type": "VEC3"
    },
    {
      "bufferView": 17,
      "componentType": 5125,
      "count": 1776,
      "max": [
        1183
      ],
      "min": [
        0
      ],
      "type": "SCALAR"
    },
    {
      "bufferView": 18,
      "componentType": 5126,
      "count": 1600,
      "max": [
        30.493732452392578,
        54.59332275390625,
        76.3499984741211
      ],
      "min": [
        -30.493732452392578,
        -55.81581115722656,
        -74.51277923583984
      ],
      "type": "VEC3"
    },
    {
      "bufferView": 19,
      "componentType": 5126,
      "count": 1600,
      "max": [
        1,
        1,
        1
      ],
      "min": [
        -0.999885618686676,
        -0.9999998807907104,
        -1
      ],
      "type": "VEC3"
    },
    {
      "bufferView": 20,
      "componentType": 5125,
      "count": 2400,
      "max": [
        1599
      ],
      "min": [
        0
      ],
      "type": "SCALAR"
    },
    {
      "bufferView": 21,
      "componentType": 5126,
      "count": 1952,
      "max": [
        29.605587005615234,
        53.00324249267578,
        74.12621307373047
      ],
      "min": [
        -29.605587005615234,
        -38.770790100097656,
        -72.3425064086914
      ],
      "type": "VEC3"
    },
    {
      "bufferView": 22,
      "componentType": 5126,
      "count": 1952,
      "max": [
        1,
        1,
        1
      ],
      "min": [
        -1,
        -1,
        -1
      ],
      "type": "VEC3"
    },
    {
      "bufferView": 23,
      "componentType": 5125,
      "count": 2928,
      "max": [
        1951
      ],
      "min": [
        0
      ],
      "type": "SCALAR"
    },
    {
      "bufferView": 24,
      "componentType": 5126,
      "count": 24,
      "max": [
        -20.21450424194336,
        44.37029266357422,
        22.452516555786133
      ],
      "min": [
        -24.45094871520996,
        -29.89497947692871,
        -61.6038932800293
      ],
      "type": "VEC3"
    },
    {
      "bufferView": 25,
      "componentType": 5126,
      "count": 24,
      "max": [
        -0.9935950636863708,
        0.03190205246210098,
        0.10425407439470291
      ],
      "min": [
        -0.9998316168785095,
        -0.030459575355052948,
        -0.10840244591236115
      ],
      "type": "VEC3"
    },
    {
      "bufferView": 26,
      "componentType": 5125,
      "count": 36,
      "max": [
        23
      ],
      "min": [
        0
      ],
      "type": "SCALAR"
    }
  ],
  "materials": [
    {
      "pbrMetallicRoughness": {
        "baseColorFactor": [
          0.5839881656446744,
          0.532863629965371,
          0.4749656027098839,
          1
        ],
        "metallicFactor": 0.2,
        "roughnessFactor": 0.2
      },
      "doubleSided": false
    },
    {
      "pbrMetallicRoughness": {
        "baseColorFactor": [
          0.07271970205168865,
          0.06594989890427856,
          0.06594989890427856,
          1
        ],
        "metallicFactor": 0,
        "roughnessFactor": 0.9046331723890898
      },
      "doubleSided": false
    },
    {
      "pbrMetallicRoughness": {
        "baseColorFactor": [
          0.23678640836246873,
          0.13414875361703102,
          0.11564562993353122,
          1
        ],
        "metallicFactor": 0,
        "roughnessFactor": 0.99
      },
      "doubleSided": false
    },
    {
      "pbrMetallicRoughness": {
        "baseColorFactor": [
          0.6789918053393382,
          0.2814878833677246,
          0.12144915327644941,
          1
        ],
        "metallicFactor": 0,
        "roughnessFactor": 1
      },
      "doubleSided": false
    }
  ],
  "meshes": [
    {
      "primitives": [
        {
          "mode": 4,
          "attributes": {
            "POSITION": 0,
            "NORMAL": 1
          },
          "extras": {
            "type": "SubdivGeometry",
            "parameters": {
              "width": 5.0200724601745605,
              "height": 53.264413833618164,
              "depth": 93.55027389526367
            }
          },
          "indices": 2,
          "material": 0
        }
      ]
    },
    {
      "primitives": [
        {
          "mode": 4,
          "attributes": {
            "POSITION": 3,
            "NORMAL": 4
          },
          "extras": {
            "type": "SubdivGeometry",
            "parameters": {
              "width": 1.1891935791877458e-13,
              "height": 22.4942569732666,
              "depth": 23.565166473388672
            }
          },
          "indices": 5,
          "material": 1
        }
      ]
    },
    {
      "primitives": [
        {
          "mode": 4,
          "attributes": {
            "POSITION": 6,
            "NORMAL": 7
          },
          "extras": {
            "type": "SubdivGeometry",
            "parameters": {
              "width": 16.189546585083008,
              "height": 5.965013861656189,
              "depth": 16.189546585083008
            }
          },
          "indices": 8,
          "material": 0
        }
      ]
    },
    {
      "primitives": [
        {
          "mode": 4,
          "attributes": {
            "POSITION": 9,
            "NORMAL": 10
          },
          "extras": {
            "type": "SubdivGeometry",
            "parameters": {
              "width": 16.189546585083008,
              "height": 5.965013861656189,
              "depth": 16.189546585083008
            }
          },
          "indices": 11,
          "material": 0
        }
      ]
    },
    {
      "primitives": [
        {
          "mode": 4,
          "attributes": {
            "POSITION": 12,
            "NORMAL": 13
          },
          "extras": {
            "type": "SubdivGeometry",
            "parameters": {
              "width": 31.187320709228516,
              "height": 64.8679428100586,
              "depth": 5.414750099182129
            }
          },
          "indices": 14,
          "material": 2
        }
      ]
    },
    {
      "primitives": [
        {
          "mode": 4,
          "attributes": {
            "POSITION": 15,
            "NORMAL": 16
          },
          "extras": {
            "type": "SubdivGeometry",
            "parameters": {
              "width": 145.82433319091797,
              "height": 90.69806098937988,
              "depth": 4.593201160430908
            }
          },
          "indices": 17,
          "material": 0
        }
      ]
    },
    {
      "primitives": [
        {
          "mode": 4,
          "attributes": {
            "POSITION": 18,
            "NORMAL": 19
          },
          "extras": {
            "type": "SubdivGeometry",
            "parameters": {
              "width": 60.987464904785156,
              "height": 110.96374893188477,
              "depth": 150.86277770996094
            }
          },
          "indices": 20,
          "material": 3
        }
      ]
    },
    {
      "primitives": [
        {
          "mode": 4,
          "attributes": {
            "POSITION": 21,
            "NORMAL": 22
          },
          "extras": {
            "type": "SubdivGeometry",
            "parameters": {
              "width": 59.21117401123047,
              "height": 92.3173599243164,
              "depth": 146.46871948242188
            }
          },
          "indices": 23,
          "material": 2
        }
      ]
    },
    {
      "primitives": [
        {
          "mode": 4,
          "attributes": {
            "POSITION": 24,
            "NORMAL": 25
          },
          "extras": {
            "type": "SubdivGeometry",
            "parameters": {
              "width": 4.236444473266602,
              "height": 74.26527214050293,
              "depth": 84.05640983581543
            }
          },
          "indices": 26,
          "material": 0
        }
      ]
    }
  ],
  "cameras": [
    {
      "type": "orthographic",
      "orthographic": {
        "xmag": 4.085122262729534,
        "ymag": 2.3181447760727116,
        "zfar": 100000,
        "znear": 0
      }
    }
  ]
}