{
  "asset": {
    "version": "2.0",
    "generator": "THREE.GLTFExporter"
  },
  "scenes": [
    {
      "nodes": [
        0
      ]
    }
  ],
  "scene": 0,
  "nodes": [
    {
      "children": [
        13
      ],
      "matrix": [
        0.01,
        0,
        0,
        0,
        0,
        0.01,
        0,
        0,
        0,
        0,
        0.01,
        0,
        0,
        0,
        0,
        1
      ]
    },
    {
      "matrix": [
        1,
        0,
        0,
        0,
        0,
        1,
        0,
        0,
        0,
        0,
        1,
        0,
        -1.069351196289034,
        1.5042864651392165,
        0.1959339070340036,
        1
      ],
      "name": "body",
      "mesh": 0
    },
    {
      "matrix": [
        0.420807894906991,
        0.9613241964216659,
        0.26733126658267536,
        0,
        -0.16052875696612895,
        0.07055512773220234,
        -0.0010271270665219959,
        0,
        -0.11319469774257447,
        -0.24226679865908887,
        1.0493727935319028,
        0,
        -360.0073756911103,
        129.3647543324946,
        0.1737308192848032,
        0.9999999999999997
      ],
      "name": "glass",
      "mesh": 1
    },
    {
      "matrix": [
        0.05188573969435701,
        0.11653727939474778,
        0,
        0,
        -0.36873855766875685,
        0.16417298325342614,
        0,
        0,
        0,
        0,
        0.9999999999999999,
        0,
        77.50881836677956,
        -134.37306608164513,
        -1.3132148650088025,
        0.9999999999999999
      ],
      "name": "supportpiece",
      "mesh": 2
    },
    {
      "matrix": [
        0.07195053529937917,
        0.1643690419450713,
        0.04570880909241461,
        0,
        -0.027447512592913195,
        0.012063650111816603,
        -0.0001756201419963275,
        0,
        -0.01935424499920515,
        -0.041423238631587644,
        0.1794237587674379,
        0,
        424.4086058926254,
        -213.34691202831232,
        -0.9089846304286456,
        1
      ],
      "name": "littleglass",
      "mesh": 3
    },
    {
      "matrix": [
        1,
        0,
        0,
        0,
        0,
        1,
        0,
        0,
        0,
        0,
        1,
        0,
        12.468949702266968,
        -18.051344570607995,
        -1.1310001301785348,
        1
      ],
      "name": "Merged Geometry",
      "mesh": 4
    },
    {
      "matrix": [
        0.39778847096109426,
        -0.09966480932692476,
        0,
        0,
        0.09966480932692476,
        0.39778847096109426,
        0,
        0,
        0,
        0,
        0.410083822952988,
        0,
        -32.41834376139974,
        242.23697433174232,
        1.480130855982415,
        1
      ],
      "name": "Telescope",
      "children": [
        1,
        2,
        3,
        4,
        5
      ]
    },
    {
      "matrix": [
        1,
        0,
        0,
        0,
        0,
        1,
        0,
        0,
        0,
        0,
        1,
        0,
        -1.311464469377512,
        -15.214762199507277,
        1.0878565157211426,
        1
      ],
      "name": "bracket",
      "mesh": 5
    },
    {
      "matrix": [
        1,
        0,
        0,
        0,
        0,
        1,
        0,
        0,
        0,
        0,
        1,
        0,
        0,
        4.7752685546875,
        0,
        1
      ],
      "name": "bracket-black",
      "mesh": 6
    },
    {
      "matrix": [
        0.410083822952988,
        0,
        0,
        0,
        0,
        0.410083822952988,
        0,
        0,
        0,
        0,
        0.410083822952988,
        0,
        4.1484926035191165,
        95.84638691867188,
        0.5509765348907649,
        1
      ],
      "name": "bracket",
      "children": [
        7,
        8
      ]
    },
    {
      "matrix": [
        6.661338147750939e-17,
        0,
        -0.3,
        0,
        0,
        0.3,
        0,
        0,
        0.3,
        0,
        6.661338147750939e-17,
        0,
        0,
        0,
        0,
        1
      ],
      "name": "Telescope",
      "children": [
        6,
        9
      ]
    },
    {
      "matrix": [
        0.7071067811865479,
        -5.551115123125783e-17,
        -0.707106781186547,
        0,
        -0.40824829046386274,
        0.816496580927726,
        -0.40824829046386324,
        0,
        0.5773502691896253,
        0.5773502691896257,
        0.5773502691896261,
        0,
        952.1869733203708,
        1128.8355866242237,
        1015.2960685336815,
        1
      ],
      "camera": 0
    },
    {
      "matrix": [
        1,
        0,
        0,
        0,
        0,
        1,
        0,
        0,
        0,
        0,
        1,
        0,
        0,
        1,
        0,
        1
      ],
      "name": "Default Ambient Light"
    },
    {
      "name": "Scene",
      "children": [
        10,
        11,
        12
      ]
    }
  ],
  "bufferViews": [
    {
      "buffer": 0,
      "byteOffset": 0,
      "byteLength": 27648,
      "target": 34962,
      "byteStride": 12
    },
    {
      "buffer": 0,
      "byteOffset": 27648,
      "byteLength": 27648,
      "target": 34962,
      "byteStride": 12
    },
    {
      "buffer": 0,
      "byteOffset": 55296,
      "byteLength": 13824,
      "target": 34963
    },
    {
      "buffer": 0,
      "byteOffset": 69120,
      "byteLength": 1200,
      "target": 34962,
      "byteStride": 12
    },
    {
      "buffer": 0,
      "byteOffset": 70320,
      "byteLength": 1200,
      "target": 34962,
      "byteStride": 12
    },
    {
      "buffer": 0,
      "byteOffset": 71520,
      "byteLength": 800,
      "target": 34962,
      "byteStride": 8
    },
    {
      "buffer": 0,
      "byteOffset": 72320,
      "byteLength": 384,
      "target": 34963
    },
    {
      "buffer": 0,
      "byteOffset": 72704,
      "byteLength": 12672,
      "target": 34962,
      "byteStride": 12
    },
    {
      "buffer": 0,
      "byteOffset": 85376,
      "byteLength": 12672,
      "target": 34962,
      "byteStride": 12
    },
    {
      "buffer": 0,
      "byteOffset": 98048,
      "byteLength": 6336,
      "target": 34963
    },
    {
      "buffer": 0,
      "byteOffset": 104384,
      "byteLength": 624,
      "target": 34962,
      "byteStride": 12
    },
    {
      "buffer": 0,
      "byteOffset": 105008,
      "byteLength": 624,
      "target": 34962,
      "byteStride": 12
    },
    {
      "buffer": 0,
      "byteOffset": 105632,
      "byteLength": 416,
      "target": 34962,
      "byteStride": 8
    },
    {
      "buffer": 0,
      "byteOffset": 106048,
      "byteLength": 192,
      "target": 34963
    },
    {
      "buffer": 0,
      "byteOffset": 106240,
      "byteLength": 12288,
      "target": 34962,
      "byteStride": 12
    },
    {
      "buffer": 0,
      "byteOffset": 118528,
      "byteLength": 12288,
      "target": 34962,
      "byteStride": 12
    },
    {
      "buffer": 0,
      "byteOffset": 130816,
      "byteLength": 5760,
      "target": 34963
    },
    {
      "buffer": 0,
      "byteOffset": 136576,
      "byteLength": 16416,
      "target": 34962,
      "byteStride": 12
    },
    {
      "buffer": 0,
      "byteOffset": 152992,
      "byteLength": 16416,
      "target": 34962,
      "byteStride": 12
    },
    {
      "buffer": 0,
      "byteOffset": 169408,
      "byteLength": 7488,
      "target": 34963
    },
    {
      "buffer": 0,
      "byteOffset": 176896,
      "byteLength": 36480,
      "target": 34962,
      "byteStride": 12
    },
    {
      "buffer": 0,
      "byteOffset": 213376,
      "byteLength": 36480,
      "target": 34962,
      "byteStride": 12
    },
    {
      "buffer": 0,
      "byteOffset": 249856,
      "byteLength": 17280,
      "target": 34963
    }
  ],
  "buffers": [
    {
      "byteLength": 267136,
      "uri": "data:application/octet-stream;base64,"
    }
  ],
  "accessors": [
    {
      "bufferView": 0,
      "componentType": 5126,
      "count": 2304,
      "max": [
        436.6004638671875,
        231.4353485107422,
        98.16830444335938
      ],
      "min": [
        -434.4617614746094,
        -233.5740509033203,
        -98.16830444335938
      ],
      "type": "VEC3"
    },
    {
      "bufferView": 1,
      "componentType": 5126,
      "count": 2304,
      "max": [
        0.9996187090873718,
        0.9984942674636841,
        0.9985535144805908
      ],
      "min": [
        -0.9995887875556946,
        -0.998396635055542,
        -0.9975035786628723
      ],
      "type": "VEC3"
    },
    {
      "bufferView": 2,
      "componentType": 5125,
      "count": 3456,
      "max": [
        2303
      ],
      "min": [
        0
      ],
      "type": "SCALAR"
    },
    {
      "bufferView": 3,
      "componentType": 5126,
      "count": 100,
      "max": [
        72.5,
        80.5,
        72.5
      ],
      "min": [
        -72.5,
        -80.5,
        -72.5
      ],
      "type": "VEC3"
    },
    {
      "bufferView": 4,
      "componentType": 5126,
      "count": 100,
      "max": [
        1,
        1,
        1
      ],
      "min": [
        -1,
        -1,
        -1
      ],
      "type": "VEC3"
    },
    {
      "bufferView": 5,
      "componentType": 5126,
      "count": 100,
      "max": [
        1,
        1
      ],
      "min": [
        0,
        0
      ],
      "type": "VEC2"
    },
    {
      "bufferView": 6,
      "componentType": 5123,
      "count": 192,
      "max": [
        99
      ],
      "min": [
        0
      ],
      "type": "SCALAR"
    },
    {
      "bufferView": 7,
      "componentType": 5126,
      "count": 1056,
      "max": [
        455.03839111328125,
        83.50000762939453,
        65.89321899414062
      ],
      "min": [
        -59.59864044189453,
        -83.50000762939453,
        -66.49339294433594
      ],
      "type": "VEC3"
    },
    {
      "bufferView": 8,
      "componentType": 5126,
      "count": 1056,
      "max": [
        1,
        1,
        0.9996044039726257
      ],
      "min": [
        -1,
        -1,
        -0.9993159770965576
      ],
      "type": "VEC3"
    },
    {
      "bufferView": 9,
      "componentType": 5125,
      "count": 1584,
      "max": [
        1055
      ],
      "min": [
        0
      ],
      "type": "SCALAR"
    },
    {
      "bufferView": 10,
      "componentType": 5126,
      "count": 52,
      "max": [
        82.103271484375,
        91.1629409790039,
        82.103271484375
      ],
      "min": [
        -82.103271484375,
        -91.1629409790039,
        -82.103271484375
      ],
      "type": "VEC3"
    },
    {
      "bufferView": 11,
      "componentType": 5126,
      "count": 52,
      "max": [
        1,
        1,
        1
      ],
      "min": [
        -1,
        -1,
        -1
      ],
      "type": "VEC3"
    },
    {
      "bufferView": 12,
      "componentType": 5126,
      "count": 52,
      "max": [
        1,
        1
      ],
      "min": [
        0,
        0
      ],
      "type": "VEC2"
    },
    {
      "bufferView": 13,
      "componentType": 5123,
      "count": 96,
      "max": [
        51
      ],
      "min": [
        0
      ],
      "type": "SCALAR"
    },
    {
      "bufferView": 14,
      "componentType": 5126,
      "count": 1024,
      "max": [
        409.1412048339844,
        238.3184814453125,
        97.23323822021484
      ],
      "min": [
        -417.29058837890625,
        -214.88829040527344,
        -97.23323822021484
      ],
      "type": "VEC3"
    },
    {
      "bufferView": 15,
      "componentType": 5126,
      "count": 1024,
      "max": [
        0.9155293703079224,
        0.9140179753303528,
        0.9989739060401917
      ],
      "min": [
        -0.9547876119613647,
        -0.9417983293533325,
        -0.9985430836677551
      ],
      "type": "VEC3"
    },
    {
      "bufferView": 16,
      "componentType": 5125,
      "count": 1440,
      "max": [
        1023
      ],
      "min": [
        0
      ],
      "type": "SCALAR"
    },
    {
      "bufferView": 17,
      "componentType": 5126,
      "count": 1368,
      "max": [
        221.39852905273438,
        198.23362731933594,
        242.11793518066406
      ],
      "min": [
        -221.18560791015625,
        -198.06356811523438,
        -242.11793518066406
      ],
      "type": "VEC3"
    },
    {
      "bufferView": 18,
      "componentType": 5126,
      "count": 1368,
      "max": [
        0.9990680813789368,
        0.9999707341194153,
        0.9980819225311279
      ],
      "min": [
        -0.9974614977836609,
        -0.9999873638153076,
        -0.9990989565849304
      ],
      "type": "VEC3"
    },
    {
      "bufferView": 19,
      "componentType": 5125,
      "count": 1872,
      "max": [
        1367
      ],
      "min": [
        0
      ],
      "type": "SCALAR"
    },
    {
      "bufferView": 20,
      "componentType": 5126,
      "count": 3040,
      "max": [
        239.2205047607422,
        228.91534423828125,
        260.9075927734375
      ],
      "min": [
        -239.2205047607422,
        -238.46588134765625,
        -260.9075927734375
      ],
      "type": "VEC3"
    },
    {
      "bufferView": 21,
      "componentType": 5126,
      "count": 3040,
      "max": [
        0.9989513754844666,
        0.9998782277107239,
        0.998176634311676
      ],
      "min": [
        -0.998164176940918,
        -0.9998478293418884,
        -0.9978307485580444
      ],
      "type": "VEC3"
    },
    {
      "bufferView": 22,
      "componentType": 5125,
      "count": 4320,
      "max": [
        3039
      ],
      "min": [
        0
      ],
      "type": "SCALAR"
    }
  ],
  "materials": [
    {
      "pbrMetallicRoughness": {
        "baseColorFactor": [
          0.05873688143886368,
          0.05873688143886368,
          0.05873688143886368,
          1
        ],
        "metallicFactor": 0,
        "roughnessFactor": 0.9318504873755249
      },
      "doubleSided": false
    },
    {
      "pbrMetallicRoughness": {
        "baseColorFactor": [
          0.4373169401470496,
          0.5525230831601182,
          0.7126377650669643,
          1
        ],
        "metallicFactor": 0,
        "roughnessFactor": 1
      },
      "doubleSided": false
    },
    {
      "pbrMetallicRoughness": {
        "baseColorFactor": [
          0.22166860135520894,
          0.26662849221443125,
          0.38454807144523573,
          1
        ],
        "metallicFactor": 0,
        "roughnessFactor": 0.995
      },
      "doubleSided": false
    },
    {
      "pbrMetallicRoughness": {
        "baseColorFactor": [
          0.3539401008409999,
          0.3539401008409999,
          0.3539401008409999,
          1
        ],
        "metallicFactor": 0,
        "roughnessFactor": 0.995
      },
      "doubleSided": false
    }
  ],
  "meshes": [
    {
      "primitives": [
        {
          "mode": 4,
          "attributes": {
            "POSITION": 0,
            "NORMAL": 1
          },
          "extras": {
            "type": "SubdivGeometry",
            "parameters": {
              "width": 871.0622253417969,
              "height": 465.0093994140625,
              "depth": 196.33660888671875
            }
          },
          "indices": 2,
          "material": 0
        }
      ]
    },
    {
      "primitives": [
        {
          "mode": 4,
          "attributes": {
            "POSITION": 3,
            "NORMAL": 4,
            "TEXCOORD_0": 5
          },
          "extras": {
            "parameters": {
              "width": 145,
              "radialSegments": 16,
              "heightSegments": 1,
              "openEnded": false,
              "thetaStart": 0,
              "thetaLength": 360,
              "cornerRadius": 0,
              "cornerSegments": 8,
              "hollow": 0,
              "height": 161,
              "depth": 145,
              "radiusTop": 72.5,
              "radiusBottom": 72.5,
              "type": "CylinderGeometry"
            },
            "type": "CylinderGeometry"
          },
          "indices": 6,
          "material": 1
        }
      ]
    },
    {
      "primitives": [
        {
          "mode": 4,
          "attributes": {
            "POSITION": 7,
            "NORMAL": 8
          },
          "extras": {
            "type": "SubdivGeometry",
            "parameters": {
              "width": 556.2236938476562,
              "height": 167.00001525878906,
              "depth": 134.79500579833984
            }
          },
          "indices": 9,
          "material": 0
        }
      ]
    },
    {
      "primitives": [
        {
          "mode": 4,
          "attributes": {
            "POSITION": 10,
            "NORMAL": 11,
            "TEXCOORD_0": 12
          },
          "extras": {
            "parameters": {
              "width": 164.20653739712594,
              "radialSegments": 8,
              "heightSegments": 1,
              "openEnded": false,
              "thetaStart": 0,
              "thetaLength": 360,
              "cornerRadius": 0,
              "cornerSegments": 8,
              "hollow": 0,
              "height": 182.32587945473983,
              "depth": 164.20653739712594,
              "radiusTop": 82.10326869856297,
              "radiusBottom": 82.10326869856297,
              "type": "CylinderGeometry"
            },
            "type": "CylinderGeometry"
          },
          "indices": 13,
          "material": 1
        }
      ]
    },
    {
      "primitives": [
        {
          "mode": 4,
          "attributes": {
            "POSITION": 14,
            "NORMAL": 15
          },
          "extras": {
            "type": "SubdivGeometry",
            "parameters": {
              "width": 826.4317932128906,
              "height": 453.20677185058594,
              "depth": 194.4664764404297
            }
          },
          "indices": 16,
          "material": 2
        }
      ]
    },
    {
      "primitives": [
        {
          "mode": 4,
          "attributes": {
            "POSITION": 17,
            "NORMAL": 18
          },
          "extras": {
            "type": "SubdivGeometry",
            "parameters": {
              "width": 442.5841369628906,
              "height": 396.2971954345703,
              "depth": 484.2358703613281
            }
          },
          "indices": 19,
          "material": 3
        }
      ]
    },
    {
      "primitives": [
        {
          "mode": 4,
          "attributes": {
            "POSITION": 20,
            "NORMAL": 21
          },
          "extras": {
            "type": "SubdivGeometry",
            "parameters": {
              "width": 478.4410095214844,
              "height": 467.3812255859375,
              "depth": 521.815185546875
            }
          },
          "indices": 22,
          "material": 0
        }
      ]
    }
  ],
  "cameras": [
    {
      "type": "orthographic",
      "orthographic": {
        "xmag": 10.28442851351854,
        "ymag": 5.836005069179171,
        "zfar": 100000,
        "znear": 0
      }
    }
  ]
}