{
  "asset": {
    "version": "2.0",
    "generator": "THREE.GLTFExporter"
  },
  "scenes": [
    {
      "nodes": [
        0
      ]
    }
  ],
  "scene": 0,
  "nodes": [
    {
      "children": [
        18
      ],
      "matrix": [
        0.01,
        0,
        0,
        0,
        0,
        0.01,
        0,
        0,
        0,
        0,
        0.01,
        0,
        0,
        0,
        0,
        1
      ]
    },
    {
      "matrix": [
        1,
        0,
        0,
        0,
        0,
        1,
        0,
        0,
        0,
        0,
        1,
        0,
        5.0881819574734735,
        14.999999287561778,
        0.015948199458557966,
        1
      ],
      "name": "Cube",
      "mesh": 0
    },
    {
      "matrix": [
        1,
        0,
        0,
        0,
        0,
        1,
        0,
        0,
        0,
        0,
        1,
        0,
        -1.772998064291329,
        0,
        -4.759610652923584,
        1
      ],
      "name": "Rectangle",
      "mesh": 1
    },
    {
      "mesh": 0
    },
    {
      "matrix": [
        1,
        0,
        0,
        0,
        0,
        1,
        0,
        0,
        0,
        0,
        1,
        0,
        5.0881819574734735,
        14.999999287561778,
        0.015948199458557966,
        1
      ],
      "children": [
        3
      ]
    },
    {
      "mesh": 1
    },
    {
      "matrix": [
        1,
        0,
        0,
        0,
        0,
        1,
        0,
        0,
        0,
        0,
        1,
        0,
        -1.772998064291329,
        0,
        -4.759610652923584,
        1
      ],
      "children": [
        5
      ]
    },
    {
      "matrix": [
        1,
        0,
        0,
        0,
        0,
        1,
        0,
        0,
        0,
        0,
        1,
        0,
        -28.574000538681112,
        42.90049287929997,
        0,
        1
      ],
      "name": "Group",
      "children": [
        1,
        2,
        4,
        6
      ]
    },
    {
      "matrix": [
        1,
        0,
        0,
        0,
        0,
        1,
        0,
        0,
        0,
        0,
        1,
        0,
        5.0881819574734735,
        14.999999287561778,
        0.015948199458557966,
        1
      ],
      "mesh": 0
    },
    {
      "matrix": [
        1,
        0,
        0,
        0,
        0,
        1,
        0,
        0,
        0,
        0,
        1,
        0,
        -1.772998064291329,
        0,
        -4.759610652923584,
        1
      ],
      "mesh": 1
    },
    {
      "children": [
        8,
        9
      ]
    },
    {
      "matrix": [
        1,
        0,
        0,
        0,
        0,
        1,
        0,
        0,
        0,
        0,
        1,
        0,
        5.0881819574734735,
        14.999999287561778,
        0.015948199458557966,
        1
      ],
      "mesh": 0
    },
    {
      "matrix": [
        1,
        0,
        0,
        0,
        0,
        1,
        0,
        0,
        0,
        0,
        1,
        0,
        -1.772998064291329,
        0,
        -4.759610652923584,
        1
      ],
      "mesh": 1
    },
    {
      "matrix": [
        2.220446049250313e-16,
        0,
        1,
        0,
        0,
        1,
        0,
        0,
        -1,
        0,
        2.220446049250313e-16,
        0,
        28.5,
        0,
        -28.5,
        1
      ],
      "children": [
        11,
        12
      ]
    },
    {
      "matrix": [
        1,
        0,
        0,
        0,
        0,
        1,
        0,
        0,
        0,
        0,
        1,
        0,
        -28.574000538681112,
        42.90049287929997,
        0,
        1
      ],
      "children": [
        10,
        13
      ]
    },
    {
      "name": "fence1  2",
      "children": [
        7,
        14
      ]
    },
    {
      "matrix": [
        0.7071067811865477,
        -2.7755575615628914e-17,
        -0.7071067811865474,
        0,
        -0.408248290463863,
        0.816496580927726,
        -0.40824829046386313,
        0,
        0.5773502691896256,
        0.5773502691896258,
        0.5773502691896258,
        0,
        569.4440871853803,
        617.9963356536938,
        580.5969983396471,
        1
      ],
      "camera": 0
    },
    {
      "matrix": [
        1,
        0,
        0,
        0,
        0,
        1,
        0,
        0,
        0,
        0,
        1,
        0,
        0,
        1,
        0,
        1
      ],
      "name": "Default Ambient Light"
    },
    {
      "name": "Scene",
      "children": [
        15,
        16,
        17
      ]
    }
  ],
  "bufferViews": [
    {
      "buffer": 0,
      "byteOffset": 0,
      "byteLength": 288,
      "target": 34962,
      "byteStride": 12
    },
    {
      "buffer": 0,
      "byteOffset": 288,
      "byteLength": 288,
      "target": 34962,
      "byteStride": 12
    },
    {
      "buffer": 0,
      "byteOffset": 576,
      "byteLength": 192,
      "target": 34962,
      "byteStride": 8
    },
    {
      "buffer": 0,
      "byteOffset": 768,
      "byteLength": 72,
      "target": 34963
    },
    {
      "buffer": 0,
      "byteOffset": 840,
      "byteLength": 1344,
      "target": 34962,
      "byteStride": 12
    },
    {
      "buffer": 0,
      "byteOffset": 2184,
      "byteLength": 1344,
      "target": 34962,
      "byteStride": 12
    },
    {
      "buffer": 0,
      "byteOffset": 3528,
      "byteLength": 896,
      "target": 34962,
      "byteStride": 8
    },
    {
      "buffer": 0,
      "byteOffset": 4424,
      "byteLength": 1632,
      "target": 34963
    }
  ],
  "buffers": [
    {
      "byteLength": 6056,
      "uri": "data:application/octet-stream;base64,"
    }
  ],
  "accessors": [
    {
      "bufferView": 0,
      "componentType": 5126,
      "count": 24,
      "max": [
        26.5,
        8,
        3
      ],
      "min": [
        -26.5,
        -8,
        -3
      ],
      "type": "VEC3"
    },
    {
      "bufferView": 1,
      "componentType": 5126,
      "count": 24,
      "max": [
        1,
        1,
        1
      ],
      "min": [
        -1,
        -1,
        -1
      ],
      "type": "VEC3"
    },
    {
      "bufferView": 2,
      "componentType": 5126,
      "count": 24,
      "max": [
        1,
        1
      ],
      "min": [
        0,
        0
      ],
      "type": "VEC2"
    },
    {
      "bufferView": 3,
      "componentType": 5123,
      "count": 36,
      "max": [
        23
      ],
      "min": [
        0
      ],
      "type": "SCALAR"
    },
    {
      "bufferView": 4,
      "componentType": 5126,
      "count": 112,
      "max": [
        12,
        42.82212829589844,
        9.519221305847168
      ],
      "min": [
        -12,
        -42.82212829589844,
        0
      ],
      "type": "VEC3"
    },
    {
      "bufferView": 5,
      "componentType": 5126,
      "count": 112,
      "max": [
        1,
        1,
        1
      ],
      "min": [
        -1,
        -1,
        -1
      ],
      "type": "VEC3"
    },
    {
      "bufferView": 6,
      "componentType": 5126,
      "count": 112,
      "max": [
        1,
        1
      ],
      "min": [
        0,
        0
      ],
      "type": "VEC2"
    },
    {
      "bufferView": 7,
      "componentType": 5125,
      "count": 408,
      "max": [
        111
      ],
      "min": [
        0
      ],
      "type": "SCALAR"
    }
  ],
  "materials": [
    {
      "pbrMetallicRoughness": {
        "baseColorFactor": [
          0.5107016147943965,
          0.4949926305860763,
          0.4453797583141959,
          1
        ],
        "metallicFactor": 0,
        "roughnessFactor": 0.3
      },
      "doubleSided": false
    }
  ],
  "meshes": [
    {
      "primitives": [
        {
          "mode": 4,
          "attributes": {
            "POSITION": 0,
            "NORMAL": 1,
            "TEXCOORD_0": 2
          },
          "extras": {
            "parameters": {
              "width": 53,
              "widthSegments": 1,
              "heightSegments": 1,
              "depthSegments": 1,
              "cornerRadius": 0,
              "cornerSegments": 1,
              "height": 16,
              "depth": 6,
              "type": "CubeGeometry"
            },
            "type": "CubeGeometry"
          },
          "indices": 3,
          "material": 0
        }
      ]
    },
    {
      "primitives": [
        {
          "mode": 4,
          "attributes": {
            "POSITION": 4,
            "NORMAL": 5,
            "TEXCOORD_0": 6
          },
          "extras": {
            "parameters": {
              "width": 24,
              "subdivisions": 7,
              "roundness": 0,
              "extrudeBevelSize": 2,
              "extrudeBevelSegments": 1,
              "windingRule": 0,
              "depth": 9.519221497246543,
              "cornerRadius": [
                15,
                15,
                15,
                15
              ],
              "cornerType": 1,
              "height": 85.64425944154976,
              "type": "VectorGeometry",
              "shape": {
                "isClosed": true,
                "points": [
                  {
                    "id": "bbc24f16-a2f3-4a85-a14f-6843928a3b8f",
                    "fi": 0,
                    "data": {
                      "position": [
                        -12,
                        42.82212972077488
                      ],
                      "controlNext": {
                        "position": [
                          -12,
                          42.82212972077488
                        ]
                      },
                      "controlPrevious": {
                        "position": [
                          -12,
                          42.82212972077488
                        ]
                      },
                      "areControlsDirectionsMirrored": true,
                      "roundness": 12
                    }
                  },
                  {
                    "id": "f4640be7-4f40-4208-bb69-c8129bf7f2d4",
                    "fi": 1,
                    "data": {
                      "position": [
                        12,
                        42.82212972077488
                      ],
                      "controlNext": {
                        "position": [
                          12,
                          42.82212972077488
                        ]
                      },
                      "controlPrevious": {
                        "position": [
                          12,
                          42.82212972077488
                        ]
                      },
                      "areControlsDirectionsMirrored": true,
                      "roundness": 12
                    }
                  },
                  {
                    "id": "5a65d560-2ad4-42a9-9db2-95a63662f014",
                    "fi": 2,
                    "data": {
                      "position": [
                        12,
                        -42.82212972077488
                      ],
                      "controlNext": {
                        "position": [
                          12,
                          -42.82212972077488
                        ]
                      },
                      "controlPrevious": {
                        "position": [
                          12,
                          -42.82212972077488
                        ]
                      },
                      "areControlsDirectionsMirrored": true,
                      "roundness": 0
                    }
                  },
                  {
                    "id": "4a5db53a-1db3-4af2-9970-4fc54a828312",
                    "fi": 3,
                    "data": {
                      "position": [
                        -12,
                        -42.82212972077488
                      ],
                      "controlNext": {
                        "position": [
                          -12,
                          -42.82212972077488
                        ]
                      },
                      "controlPrevious": {
                        "position": [
                          -12,
                          -42.82212972077488
                        ]
                      },
                      "areControlsDirectionsMirrored": true,
                      "roundness": 0
                    }
                  }
                ],
                "roundness": "-",
                "shapeHoles": []
              }
            },
            "shape": {
              "points": [
                -12,
                42.82212972077488,
                -12,
                42.82212972077488,
                -12,
                42.82212972077488,
                12,
                12,
                42.82212972077488,
                12,
                42.82212972077488,
                12,
                42.82212972077488,
                12,
                12,
                -42.82212972077488,
                12,
                -42.82212972077488,
                12,
                -42.82212972077488,
                0,
                -12,
                -42.82212972077488,
                -12,
                -42.82212972077488,
                -12,
                -42.82212972077488,
                0
              ],
              "shapeHoles": [],
              "isClosed": true,
              "roundness": 0
            },
            "type": "VectorGeometry"
          },
          "indices": 7,
          "material": 0
        }
      ]
    }
  ],
  "cameras": [
    {
      "type": "orthographic",
      "orthographic": {
        "xmag": 1.0765118045785935,
        "ymag": 0.610877730375948,
        "zfar": 100000,
        "znear": 0
      }
    }
  ]
}