{
  "asset": {
    "version": "2.0",
    "generator": "THREE.GLTFExporter"
  },
  "scenes": [
    {
      "nodes": [
        0
      ]
    }
  ],
  "scene": 0,
  "nodes": [
    {
      "children": [
        10,
        11,
        12
      ],
      "matrix": [
        0.01,
        0,
        0,
        0,
        0,
        0.01,
        0,
        0,
        0,
        0,
        0.01,
        0,
        0,
        0,
        0,
        1
      ]
    },
    {
      "matrix": [
        0.4039319159667659,
        -0.04924609738281037,
        -1.128204012213364e-18,
        0,
        0.6254399869403976,
        1.687719473568282,
        -1.746888212524626e-18,
        0,
        9.28308114903701e-19,
        1.1014468637698906e-34,
        0.3323630047414105,
        0,
        32.938786651111144,
        51.15736078534371,
        20.800081795935,
        1
      ],
      "name": "Subdiv 2",
      "mesh": 0
    },
    {
      "matrix": [
        -0.4221282972400655,
        -0.004832098844347971,
        -0.23398953603451306,
        0,
        -0.043570820262073706,
        1.6369828985892971,
        -0.024151700050488795,
        0,
        0.18318009077442154,
        2.3308703630385297e-17,
        -0.33046563157201114,
        0,
        88.33951054595221,
        36.966790912038164,
        62.392237486755846,
        1
      ],
      "name": "Subdiv 8",
      "mesh": 1
    },
    {
      "matrix": [
        0.34272280140345057,
        0,
        0.029984359854648444,
        0,
        0,
        1.166857194473098,
        0,
        0,
        -0.023469858152429735,
        0,
        0.26826170622066264,
        0,
        -45.914740033775175,
        26.96933547807589,
        -40.29294895970514,
        1
      ],
      "name": "Subdiv 5",
      "mesh": 2
    },
    {
      "matrix": [
        0.6277651182342204,
        0.011623763582977231,
        -0.37688518081759187,
        0,
        -0.007929658621808982,
        2.367513099179468,
        0.20874013485764092,
        0,
        0.17657675856813151,
        -0.008314088936183711,
        0.29333861283991575,
        0,
        -77.08466738317705,
        41.39349128048832,
        59.945738648482404,
        1
      ],
      "name": "Subdiv 7",
      "mesh": 3
    },
    {
      "matrix": [
        -0.6733369096659092,
        0.007616670626320779,
        0.28806811667638055,
        0,
        0.19910626915885402,
        2.362510853832689,
        0.27552146984748094,
        0,
        -0.13389997506152299,
        0.015769346979381666,
        -0.3142481959755136,
        0,
        69.91130522269063,
        56.02857471191248,
        -140.64929348980405,
        1
      ],
      "name": "Subdiv 6",
      "mesh": 4
    },
    {
      "matrix": [
        -0.7324903919303003,
        5.1451959354887025e-17,
        9.175008725778165e-17,
        0,
        5.061386938396826e-16,
        2.370542915325555,
        5.061386938396826e-16,
        0,
        -4.2924677210040054e-17,
        2.4071462089484942e-17,
        -0.3426908308514679,
        0,
        90.90134879007184,
        34.4723065815582,
        -45.80330384745929,
        1
      ],
      "name": "Subdiv 3",
      "mesh": 5
    },
    {
      "matrix": [
        0.7324903919303086,
        0,
        -2.0458858694184156e-18,
        0,
        0,
        2.370542915325555,
        0,
        0,
        1.229080462935637e-18,
        0,
        0.4400488040251901,
        0,
        -96.25851594738052,
        53.09279801709374,
        -5.437092708128262,
        1
      ],
      "name": "Subdiv 4",
      "mesh": 6
    },
    {
      "matrix": [
        -0.7324903919303003,
        5.1451959354887025e-17,
        9.175008725778165e-17,
        0,
        5.061386938396826e-16,
        2.370542915325555,
        5.061386938396826e-16,
        0,
        -5.5119516394742063e-17,
        3.091012991884393e-17,
        -0.44004880402518554,
        0,
        -94.01083219216517,
        74.04086501160805,
        -101.52426203376797,
        1
      ],
      "name": "Subdiv",
      "mesh": 7
    },
    {
      "matrix": [
        0.7324903919302868,
        0,
        0,
        0,
        0,
        2.370542915325555,
        0,
        0,
        0,
        0,
        0.44004880402517776,
        0,
        -4.43338606872598,
        84.19938030268725,
        105.29044690800941,
        1
      ],
      "name": "Cube",
      "mesh": 8
    },
    {
      "matrix": [
        0.35,
        0,
        -1.9428902930940238e-17,
        0,
        0,
        0.35,
        0,
        0,
        1.9428902930940238e-17,
        0,
        0.35,
        0,
        0,
        0,
        0,
        0.9999999999999999
      ],
      "name": "grass4",
      "children": [
        1,
        2,
        3,
        4,
        5,
        6,
        7,
        8,
        9
      ]
    },
    {
      "matrix": [
        1,
        0,
        0,
        0,
        0,
        0.00009999999957155392,
        -0.9999999949999999,
        0,
        0,
        0.9999999949999999,
        0.00009999999957155392,
        0,
        -14.672287307384908,
        1072.9196228527117,
        -22.660269811381276,
        1
      ],
      "camera": 0
    },
    {
      "matrix": [
        1,
        0,
        0,
        0,
        0,
        1,
        0,
        0,
        0,
        0,
        1,
        0,
        0,
        1,
        0,
        1
      ],
      "name": "Default Ambient Light"
    }
  ],
  "bufferViews": [
    {
      "buffer": 0,
      "byteOffset": 0,
      "byteLength": 1056,
      "target": 34962,
      "byteStride": 12
    },
    {
      "buffer": 0,
      "byteOffset": 1056,
      "byteLength": 1056,
      "target": 34962,
      "byteStride": 12
    },
    {
      "buffer": 0,
      "byteOffset": 2112,
      "byteLength": 528,
      "target": 34963
    },
    {
      "buffer": 0,
      "byteOffset": 2640,
      "byteLength": 1056,
      "target": 34962,
      "byteStride": 12
    },
    {
      "buffer": 0,
      "byteOffset": 3696,
      "byteLength": 1056,
      "target": 34962,
      "byteStride": 12
    },
    {
      "buffer": 0,
      "byteOffset": 4752,
      "byteLength": 528,
      "target": 34963
    },
    {
      "buffer": 0,
      "byteOffset": 5280,
      "byteLength": 1056,
      "target": 34962,
      "byteStride": 12
    },
    {
      "buffer": 0,
      "byteOffset": 6336,
      "byteLength": 1056,
      "target": 34962,
      "byteStride": 12
    },
    {
      "buffer": 0,
      "byteOffset": 7392,
      "byteLength": 528,
      "target": 34963
    },
    {
      "buffer": 0,
      "byteOffset": 7920,
      "byteLength": 1056,
      "target": 34962,
      "byteStride": 12
    },
    {
      "buffer": 0,
      "byteOffset": 8976,
      "byteLength": 1056,
      "target": 34962,
      "byteStride": 12
    },
    {
      "buffer": 0,
      "byteOffset": 10032,
      "byteLength": 528,
      "target": 34963
    },
    {
      "buffer": 0,
      "byteOffset": 10560,
      "byteLength": 1056,
      "target": 34962,
      "byteStride": 12
    },
    {
      "buffer": 0,
      "byteOffset": 11616,
      "byteLength": 1056,
      "target": 34962,
      "byteStride": 12
    },
    {
      "buffer": 0,
      "byteOffset": 12672,
      "byteLength": 528,
      "target": 34963
    },
    {
      "buffer": 0,
      "byteOffset": 13200,
      "byteLength": 1056,
      "target": 34962,
      "byteStride": 12
    },
    {
      "buffer": 0,
      "byteOffset": 14256,
      "byteLength": 1056,
      "target": 34962,
      "byteStride": 12
    },
    {
      "buffer": 0,
      "byteOffset": 15312,
      "byteLength": 528,
      "target": 34963
    },
    {
      "buffer": 0,
      "byteOffset": 15840,
      "byteLength": 1056,
      "target": 34962,
      "byteStride": 12
    },
    {
      "buffer": 0,
      "byteOffset": 16896,
      "byteLength": 1056,
      "target": 34962,
      "byteStride": 12
    },
    {
      "buffer": 0,
      "byteOffset": 17952,
      "byteLength": 528,
      "target": 34963
    },
    {
      "buffer": 0,
      "byteOffset": 18480,
      "byteLength": 1056,
      "target": 34962,
      "byteStride": 12
    },
    {
      "buffer": 0,
      "byteOffset": 19536,
      "byteLength": 1056,
      "target": 34962,
      "byteStride": 12
    },
    {
      "buffer": 0,
      "byteOffset": 20592,
      "byteLength": 528,
      "target": 34963
    },
    {
      "buffer": 0,
      "byteOffset": 21120,
      "byteLength": 1056,
      "target": 34962,
      "byteStride": 12
    },
    {
      "buffer": 0,
      "byteOffset": 22176,
      "byteLength": 1056,
      "target": 34962,
      "byteStride": 12
    },
    {
      "buffer": 0,
      "byteOffset": 23232,
      "byteLength": 528,
      "target": 34963
    }
  ],
  "buffers": [
    {
      "byteLength": 23760,
      "uri": "data:application/octet-stream;base64,"
    }
  ],
  "accessors": [
    {
      "bufferView": 0,
      "componentType": 5126,
      "count": 88,
      "max": [
        40.47112274169922,
        30.54393768310547,
        39.61479187011719
      ],
      "min": [
        -70.18368530273438,
        -29.45606803894043,
        -64.38520812988281
      ],
      "type": "VEC3"
    },
    {
      "bufferView": 1,
      "componentType": 5126,
      "count": 88,
      "max": [
        1,
        0.999606192111969,
        1
      ],
      "min": [
        -1,
        -1.000000238418579,
        -1
      ],
      "type": "VEC3"
    },
    {
      "bufferView": 2,
      "componentType": 5125,
      "count": 132,
      "max": [
        87
      ],
      "min": [
        0
      ],
      "type": "SCALAR"
    },
    {
      "bufferView": 3,
      "componentType": 5126,
      "count": 88,
      "max": [
        29.755910873413086,
        19.704875946044922,
        39.63797378540039
      ],
      "min": [
        -90.244140625,
        -19.295124053955078,
        -60.36202621459961
      ],
      "type": "VEC3"
    },
    {
      "bufferView": 4,
      "componentType": 5126,
      "count": 88,
      "max": [
        1,
        0.9923062324523926,
        1
      ],
      "min": [
        -1,
        -1,
        -1
      ],
      "type": "VEC3"
    },
    {
      "bufferView": 5,
      "componentType": 5125,
      "count": 132,
      "max": [
        87
      ],
      "min": [
        0
      ],
      "type": "SCALAR"
    },
    {
      "bufferView": 6,
      "componentType": 5126,
      "count": 88,
      "max": [
        27.911115646362305,
        19.66874885559082,
        39.61479187011719
      ],
      "min": [
        -84.64921569824219,
        -19.259742736816406,
        -60.32676696777344
      ],
      "type": "VEC3"
    },
    {
      "bufferView": 7,
      "componentType": 5126,
      "count": 88,
      "max": [
        1,
        0.9917834401130676,
        1
      ],
      "min": [
        -1,
        -1,
        -1
      ],
      "type": "VEC3"
    },
    {
      "bufferView": 8,
      "componentType": 5125,
      "count": 132,
      "max": [
        87
      ],
      "min": [
        0
      ],
      "type": "SCALAR"
    },
    {
      "bufferView": 9,
      "componentType": 5126,
      "count": 88,
      "max": [
        26.651714324951172,
        23.72185516357422,
        39.61479187011719
      ],
      "min": [
        -56.351226806640625,
        -16.569040298461914,
        -79.84577178955078
      ],
      "type": "VEC3"
    },
    {
      "bufferView": 10,
      "componentType": 5126,
      "count": 88,
      "max": [
        1,
        0.9995326995849609,
        1
      ],
      "min": [
        -1,
        -1,
        -1
      ],
      "type": "VEC3"
    },
    {
      "bufferView": 11,
      "componentType": 5125,
      "count": 132,
      "max": [
        87
      ],
      "min": [
        0
      ],
      "type": "SCALAR"
    },
    {
      "bufferView": 12,
      "componentType": 5126,
      "count": 88,
      "max": [
        28.608898162841797,
        18.796266555786133,
        39.61479187011719
      ],
      "min": [
        -49.612606048583984,
        -18.126815795898438,
        -64.38520812988281
      ],
      "type": "VEC3"
    },
    {
      "bufferView": 13,
      "componentType": 5126,
      "count": 88,
      "max": [
        1,
        0.999308168888092,
        1
      ],
      "min": [
        -1,
        -1,
        -1
      ],
      "type": "VEC3"
    },
    {
      "bufferView": 14,
      "componentType": 5125,
      "count": 132,
      "max": [
        87
      ],
      "min": [
        0
      ],
      "type": "SCALAR"
    },
    {
      "bufferView": 15,
      "componentType": 5126,
      "count": 88,
      "max": [
        21.213050842285156,
        13.235696792602539,
        39.61479187011719
      ],
      "min": [
        -36.78696060180664,
        -12.764303207397461,
        -64.38520812988281
      ],
      "type": "VEC3"
    },
    {
      "bufferView": 16,
      "componentType": 5126,
      "count": 88,
      "max": [
        1,
        0.9988306164741516,
        1
      ],
      "min": [
        -1,
        -1,
        -1
      ],
      "type": "VEC3"
    },
    {
      "bufferView": 17,
      "componentType": 5125,
      "count": 132,
      "max": [
        87
      ],
      "min": [
        0
      ],
      "type": "SCALAR"
    },
    {
      "bufferView": 18,
      "componentType": 5126,
      "count": 88,
      "max": [
        33.28253936767578,
        17.14183807373047,
        39.61479187011719
      ],
      "min": [
        -92.0138931274414,
        -20.619251251220703,
        -64.38520812988281
      ],
      "type": "VEC3"
    },
    {
      "bufferView": 19,
      "componentType": 5126,
      "count": 88,
      "max": [
        1,
        0.99516361951828,
        1
      ],
      "min": [
        -1,
        -1,
        -1
      ],
      "type": "VEC3"
    },
    {
      "bufferView": 20,
      "componentType": 5125,
      "count": 132,
      "max": [
        87
      ],
      "min": [
        0
      ],
      "type": "SCALAR"
    },
    {
      "bufferView": 21,
      "componentType": 5126,
      "count": 88,
      "max": [
        40.47112274169922,
        30.54393196105957,
        39.61479187011719
      ],
      "min": [
        -70.18368530273438,
        -29.456073760986328,
        -64.38520812988281
      ],
      "type": "VEC3"
    },
    {
      "bufferView": 22,
      "componentType": 5126,
      "count": 88,
      "max": [
        1,
        0.9996058344841003,
        1
      ],
      "min": [
        -1,
        -1,
        -1
      ],
      "type": "VEC3"
    },
    {
      "bufferView": 23,
      "componentType": 5125,
      "count": 132,
      "max": [
        87
      ],
      "min": [
        0
      ],
      "type": "SCALAR"
    },
    {
      "bufferView": 24,
      "componentType": 5126,
      "count": 88,
      "max": [
        32.34189987182617,
        35.1254997253418,
        39.61479187011719
      ],
      "min": [
        -73.65811157226562,
        -33.8745002746582,
        -64.38520812988281
      ],
      "type": "VEC3"
    },
    {
      "bufferView": 25,
      "componentType": 5126,
      "count": 88,
      "max": [
        1,
        0.9765613675117493,
        1
      ],
      "min": [
        -1,
        -1,
        -1
      ],
      "type": "VEC3"
    },
    {
      "bufferView": 26,
      "componentType": 5125,
      "count": 132,
      "max": [
        87
      ],
      "min": [
        0
      ],
      "type": "SCALAR"
    }
  ],
  "materials": [
    {
      "pbrMetallicRoughness": {
        "baseColorFactor": [
          0.23760748707822388,
          0.68743896484375,
          0.2763651213816232,
          1
        ],
        "metallicFactor": 0,
        "roughnessFactor": 1
      },
      "doubleSided": false
    }
  ],
  "meshes": [
    {
      "primitives": [
        {
          "mode": 4,
          "attributes": {
            "POSITION": 0,
            "NORMAL": 1
          },
          "extras": {
            "type": "SubdivGeometry",
            "parameters": {
              "width": 110.6548080444336,
              "height": 60.00000572204591,
              "depth": 104
            }
          },
          "indices": 2,
          "material": 0
        }
      ]
    },
    {
      "primitives": [
        {
          "mode": 4,
          "attributes": {
            "POSITION": 3,
            "NORMAL": 4
          },
          "extras": {
            "type": "SubdivGeometry",
            "parameters": {
              "width": 120.00005149841309,
              "height": 39,
              "depth": 100
            }
          },
          "indices": 5,
          "material": 0
        }
      ]
    },
    {
      "primitives": [
        {
          "mode": 4,
          "attributes": {
            "POSITION": 6,
            "NORMAL": 7
          },
          "extras": {
            "type": "SubdivGeometry",
            "parameters": {
              "width": 112.56033134460449,
              "height": 38.92849159240723,
              "depth": 99.94155883789062
            }
          },
          "indices": 8,
          "material": 0
        }
      ]
    },
    {
      "primitives": [
        {
          "mode": 4,
          "attributes": {
            "POSITION": 9,
            "NORMAL": 10
          },
          "extras": {
            "type": "SubdivGeometry",
            "parameters": {
              "width": 83.0029411315918,
              "height": 40.29089546203613,
              "depth": 119.46056365966797
            }
          },
          "indices": 11,
          "material": 0
        }
      ]
    },
    {
      "primitives": [
        {
          "mode": 4,
          "attributes": {
            "POSITION": 12,
            "NORMAL": 13
          },
          "extras": {
            "type": "SubdivGeometry",
            "parameters": {
              "width": 78.22150421142578,
              "height": 36.92308235168457,
              "depth": 104
            }
          },
          "indices": 14,
          "material": 0
        }
      ]
    },
    {
      "primitives": [
        {
          "mode": 4,
          "attributes": {
            "POSITION": 15,
            "NORMAL": 16
          },
          "extras": {
            "type": "SubdivGeometry",
            "parameters": {
              "width": 58.0000114440918,
              "height": 26,
              "depth": 104
            }
          },
          "indices": 17,
          "material": 0
        }
      ]
    },
    {
      "primitives": [
        {
          "mode": 4,
          "attributes": {
            "POSITION": 18,
            "NORMAL": 19
          },
          "extras": {
            "type": "SubdivGeometry",
            "parameters": {
              "width": 125.29643249511719,
              "height": 37.76108932495117,
              "depth": 104
            }
          },
          "indices": 20,
          "material": 0
        }
      ]
    },
    {
      "primitives": [
        {
          "mode": 4,
          "attributes": {
            "POSITION": 21,
            "NORMAL": 22
          },
          "extras": {
            "type": "SubdivGeometry",
            "parameters": {
              "width": 110.6548080444336,
              "height": 60.0000057220459,
              "depth": 104
            }
          },
          "indices": 23,
          "material": 0
        }
      ]
    },
    {
      "primitives": [
        {
          "mode": 4,
          "attributes": {
            "POSITION": 24,
            "NORMAL": 25
          },
          "extras": {
            "type": "SubdivGeometry",
            "parameters": {
              "width": 106.0000114440918,
              "height": 69,
              "depth": 104
            }
          },
          "indices": 26,
          "material": 0
        }
      ]
    }
  ],
  "cameras": [
    {
      "type": "orthographic",
      "orthographic": {
        "xmag": 9.281696733450481,
        "ymag": 4.966198847461269,
        "zfar": 100000,
        "znear": 0
      }
    }
  ]
}