{
  "asset": {
    "version": "2.0",
    "generator": "THREE.GLTFExporter"
  },
  "scenes": [
    {
      "nodes": [
        0
      ]
    }
  ],
  "scene": 0,
  "nodes": [
    {
      "children": [
        10
      ],
      "matrix": [
        0.01,
        0,
        0,
        0,
        0,
        0.01,
        0,
        0,
        0,
        0,
        0.01,
        0,
        0,
        0,
        0,
        1
      ]
    },
    {
      "matrix": [
        1,
        0,
        0,
        0,
        0,
        1,
        0,
        0,
        0,
        0,
        1,
        0,
        14.900419342361575,
        30.04899737058291,
        0.015948199458557966,
        1
      ],
      "name": "Cube",
      "mesh": 0
    },
    {
      "matrix": [
        2.220446049250313e-16,
        0,
        -1,
        0,
        0,
        1,
        0,
        0,
        1,
        0,
        2.220446049250313e-16,
        0,
        -0.019501662328395675,
        30.04899737058291,
        15.011181482953022,
        1
      ],
      "name": "Cube",
      "mesh": 1
    },
    {
      "mesh": 0
    },
    {
      "matrix": [
        1,
        0,
        0,
        0,
        0,
        1,
        0,
        0,
        0,
        0,
        1,
        0,
        14.900419342361575,
        30.04899737058291,
        0.015948199458557966,
        1
      ],
      "children": [
        3
      ]
    },
    {
      "mesh": 1
    },
    {
      "matrix": [
        2.220446049250313e-16,
        0,
        -1,
        0,
        0,
        1,
        0,
        0,
        1,
        0,
        2.220446049250313e-16,
        0,
        -0.019501662328395675,
        30.04899737058291,
        15.011181482953022,
        1
      ],
      "children": [
        5
      ]
    },
    {
      "name": "fence2",
      "children": [
        1,
        2,
        4,
        6
      ]
    },
    {
      "matrix": [
        0.7071067811865478,
        -2.7755575615628914e-17,
        -0.7071067811865471,
        0,
        -0.4082482904638629,
        0.8164965809277259,
        -0.4082482904638633,
        0,
        0.5773502691896254,
        0.577350269189626,
        0.577350269189626,
        0,
        614.9475725338314,
        619.3156198601912,
        531.4133813395133,
        1
      ],
      "camera": 0
    },
    {
      "matrix": [
        1,
        0,
        0,
        0,
        0,
        1,
        0,
        0,
        0,
        0,
        1,
        0,
        0,
        1,
        0,
        1
      ],
      "name": "Default Ambient Light"
    },
    {
      "name": "Scene",
      "children": [
        7,
        8,
        9
      ]
    }
  ],
  "bufferViews": [
    {
      "buffer": 0,
      "byteOffset": 0,
      "byteLength": 288,
      "target": 34962,
      "byteStride": 12
    },
    {
      "buffer": 0,
      "byteOffset": 288,
      "byteLength": 288,
      "target": 34962,
      "byteStride": 12
    },
    {
      "buffer": 0,
      "byteOffset": 576,
      "byteLength": 192,
      "target": 34962,
      "byteStride": 8
    },
    {
      "buffer": 0,
      "byteOffset": 768,
      "byteLength": 72,
      "target": 34963
    },
    {
      "buffer": 0,
      "byteOffset": 840,
      "byteLength": 288,
      "target": 34962,
      "byteStride": 12
    },
    {
      "buffer": 0,
      "byteOffset": 1128,
      "byteLength": 288,
      "target": 34962,
      "byteStride": 12
    },
    {
      "buffer": 0,
      "byteOffset": 1416,
      "byteLength": 192,
      "target": 34962,
      "byteStride": 8
    },
    {
      "buffer": 0,
      "byteOffset": 1608,
      "byteLength": 72,
      "target": 34963
    }
  ],
  "buffers": [
    {
      "byteLength": 1680,
      "uri": "data:application/octet-stream;base64,"
    }
  ],
  "accessors": [
    {
      "bufferView": 0,
      "componentType": 5126,
      "count": 24,
      "max": [
        35,
        30,
        20
      ],
      "min": [
        -35,
        -30,
        -20
      ],
      "type": "VEC3"
    },
    {
      "bufferView": 1,
      "componentType": 5126,
      "count": 24,
      "max": [
        1,
        1,
        1
      ],
      "min": [
        -1,
        -1,
        -1
      ],
      "type": "VEC3"
    },
    {
      "bufferView": 2,
      "componentType": 5126,
      "count": 24,
      "max": [
        1,
        1
      ],
      "min": [
        0,
        0
      ],
      "type": "VEC2"
    },
    {
      "bufferView": 3,
      "componentType": 5123,
      "count": 36,
      "max": [
        23
      ],
      "min": [
        0
      ],
      "type": "SCALAR"
    },
    {
      "bufferView": 4,
      "componentType": 5126,
      "count": 24,
      "max": [
        35,
        30,
        20
      ],
      "min": [
        -35,
        -30,
        -20
      ],
      "type": "VEC3"
    },
    {
      "bufferView": 5,
      "componentType": 5126,
      "count": 24,
      "max": [
        1,
        1,
        1
      ],
      "min": [
        -1,
        -1,
        -1
      ],
      "type": "VEC3"
    },
    {
      "bufferView": 6,
      "componentType": 5126,
      "count": 24,
      "max": [
        1,
        1
      ],
      "min": [
        0,
        0
      ],
      "type": "VEC2"
    },
    {
      "bufferView": 7,
      "componentType": 5123,
      "count": 36,
      "max": [
        23
      ],
      "min": [
        0
      ],
      "type": "SCALAR"
    }
  ],
  "materials": [
    {
      "pbrMetallicRoughness": {
        "baseColorFactor": [
          0.26834157163582517,
          0.26834157163582517,
          0.26834157163582517,
          1
        ],
        "metallicFactor": 0,
        "roughnessFactor": 0.995
      },
      "doubleSided": false
    }
  ],
  "meshes": [
    {
      "primitives": [
        {
          "mode": 4,
          "attributes": {
            "POSITION": 0,
            "NORMAL": 1,
            "TEXCOORD_0": 2
          },
          "extras": {
            "parameters": {
              "width": 70,
              "widthSegments": 1,
              "heightSegments": 1,
              "depthSegments": 1,
              "cornerRadius": 0,
              "cornerSegments": 1,
              "height": 60,
              "depth": 40,
              "type": "CubeGeometry"
            },
            "type": "CubeGeometry"
          },
          "indices": 3,
          "material": 0
        }
      ]
    },
    {
      "primitives": [
        {
          "mode": 4,
          "attributes": {
            "POSITION": 4,
            "NORMAL": 5,
            "TEXCOORD_0": 6
          },
          "extras": {
            "parameters": {
              "width": 70,
              "widthSegments": 1,
              "heightSegments": 1,
              "depthSegments": 1,
              "cornerRadius": 0,
              "cornerSegments": 1,
              "height": 60,
              "depth": 40,
              "type": "CubeGeometry"
            },
            "type": "CubeGeometry"
          },
          "indices": 7,
          "material": 0
        }
      ]
    }
  ],
  "cameras": [
    {
      "type": "orthographic",
      "orthographic": {
        "xmag": 3.686822842113405,
        "ymag": 2.0921256604056224,
        "zfar": 100000,
        "znear": 0
      }
    }
  ]
}