{
  "asset": {
    "version": "2.0",
    "generator": "THREE.GLTFExporter"
  },
  "scenes": [
    {
      "nodes": [
        0
      ]
    }
  ],
  "scene": 0,
  "nodes": [
    {
      "children": [
        3,
        4,
        5
      ],
      "matrix": [
        0.01,
        0,
        0,
        0,
        0,
        0.01,
        0,
        0,
        0,
        0,
        0.01,
        0,
        0,
        0,
        0,
        1
      ]
    },
    {
      "matrix": [
        1,
        0,
        0,
        0,
        0,
        1,
        0,
        0,
        0,
        0,
        1,
        0,
        -4.468463359330599e-7,
        155.16890617334923,
        1.4210854715202004e-14,
        1
      ],
      "name": "Merged Geometry",
      "mesh": 0
    },
    {
      "matrix": [
        0.5034466318881866,
        0,
        0,
        0,
        0,
        5.948753220743746e-16,
        -0.7968275262688923,
        0,
        0,
        0.1995619865449172,
        1.614480238284308e-16,
        0,
        0.015553943535458359,
        157.44658214375357,
        -0.04684088415679789,
        1
      ],
      "name": "Cube 11",
      "mesh": 1
    },
    {
      "matrix": [
        0.35,
        0,
        0,
        0,
        0,
        0.35,
        0,
        0,
        0,
        0,
        0.35,
        0,
        0,
        0,
        0,
        1
      ],
      "name": "chair",
      "children": [
        1,
        2
      ]
    },
    {
      "matrix": [
        0.7071067751031741,
        1.216674719306532e-8,
        -0.7071067872699209,
        0,
        -0.4082483010005751,
        0.8164965809277259,
        -0.40824827992715107,
        0,
        0.5773502691896256,
        0.5773502691896258,
        0.577350269189626,
        0,
        551.9284169344394,
        629.7682074128901,
        550.3717983415293,
        1
      ],
      "camera": 0
    },
    {
      "matrix": [
        1,
        0,
        0,
        0,
        0,
        1,
        0,
        0,
        0,
        0,
        1,
        0,
        0,
        1,
        0,
        1
      ],
      "name": "Default Ambient Light"
    }
  ],
  "bufferViews": [
    {
      "buffer": 0,
      "byteOffset": 0,
      "byteLength": 3168,
      "target": 34962,
      "byteStride": 12
    },
    {
      "buffer": 0,
      "byteOffset": 3168,
      "byteLength": 3168,
      "target": 34962,
      "byteStride": 12
    },
    {
      "buffer": 0,
      "byteOffset": 6336,
      "byteLength": 1584,
      "target": 34963
    },
    {
      "buffer": 0,
      "byteOffset": 7920,
      "byteLength": 288,
      "target": 34962,
      "byteStride": 12
    },
    {
      "buffer": 0,
      "byteOffset": 8208,
      "byteLength": 288,
      "target": 34962,
      "byteStride": 12
    },
    {
      "buffer": 0,
      "byteOffset": 8496,
      "byteLength": 192,
      "target": 34962,
      "byteStride": 8
    },
    {
      "buffer": 0,
      "byteOffset": 8688,
      "byteLength": 72,
      "target": 34963
    }
  ],
  "buffers": [
    {
      "byteLength": 8760,
      "uri": "data:application/octet-stream;base64,"
    }
  ],
  "accessors": [
    {
      "bufferView": 0,
      "componentType": 5126,
      "count": 264,
      "max": [
        77.88032531738281,
        155.1688995361328,
        78.93276977539062
      ],
      "min": [
        -77.88032531738281,
        -155.1688995361328,
        -78.93276977539062
      ],
      "type": "VEC3"
    },
    {
      "bufferView": 1,
      "componentType": 5126,
      "count": 264,
      "max": [
        1,
        1,
        1
      ],
      "min": [
        -1,
        -1,
        -1
      ],
      "type": "VEC3"
    },
    {
      "bufferView": 2,
      "componentType": 5125,
      "count": 396,
      "max": [
        263
      ],
      "min": [
        0
      ],
      "type": "SCALAR"
    },
    {
      "bufferView": 3,
      "componentType": 5126,
      "count": 24,
      "max": [
        154.51414489746094,
        99,
        14.59857177734375
      ],
      "min": [
        -154.51414489746094,
        -99,
        -14.59857177734375
      ],
      "type": "VEC3"
    },
    {
      "bufferView": 4,
      "componentType": 5126,
      "count": 24,
      "max": [
        1,
        1,
        1
      ],
      "min": [
        -1,
        -1,
        -1
      ],
      "type": "VEC3"
    },
    {
      "bufferView": 5,
      "componentType": 5126,
      "count": 24,
      "max": [
        1,
        1
      ],
      "min": [
        0,
        0
      ],
      "type": "VEC2"
    },
    {
      "bufferView": 6,
      "componentType": 5123,
      "count": 36,
      "max": [
        23
      ],
      "min": [
        0
      ],
      "type": "SCALAR"
    }
  ],
  "materials": [
    {
      "pbrMetallicRoughness": {
        "baseColorFactor": [
          0.4894402454660131,
          0.24756495234739928,
          0.1450902515223714,
          1
        ],
        "metallicFactor": 0,
        "roughnessFactor": 0.995
      },
      "doubleSided": false
    },
    {
      "pbrMetallicRoughness": {
        "baseColorFactor": [
          0.6190056575820164,
          0.3438470331301478,
          0.10645069016645073,
          1
        ],
        "metallicFactor": 0,
        "roughnessFactor": 0.3
      },
      "doubleSided": false
    }
  ],
  "meshes": [
    {
      "primitives": [
        {
          "mode": 4,
          "attributes": {
            "POSITION": 0,
            "NORMAL": 1
          },
          "extras": {
            "type": "SubdivGeometry",
            "parameters": {
              "width": 155.76065063476562,
              "height": 310.3377990722656,
              "depth": 157.86553955078125
            }
          },
          "indices": 2,
          "material": 0
        }
      ]
    },
    {
      "primitives": [
        {
          "mode": 4,
          "attributes": {
            "POSITION": 3,
            "NORMAL": 4,
            "TEXCOORD_0": 5
          },
          "extras": {
            "parameters": {
              "width": 309.02829038373466,
              "widthSegments": 1,
              "heightSegments": 1,
              "depthSegments": 1,
              "cornerRadius": 0,
              "cornerSegments": 1,
              "height": 198,
              "depth": 29.1971438604719,
              "type": "CubeGeometry"
            },
            "type": "CubeGeometry"
          },
          "indices": 6,
          "material": 1
        }
      ]
    }
  ],
  "cameras": [
    {
      "type": "orthographic",
      "orthographic": {
        "xmag": 3.3273576150073487,
        "ymag": 1.780312374696392,
        "zfar": 100000,
        "znear": 0
      }
    }
  ]
}