{
  "asset": {
    "version": "2.0",
    "generator": "THREE.GLTFExporter"
  },
  "scenes": [
    {
      "nodes": [
        0
      ]
    }
  ],
  "scene": 0,
  "nodes": [
    {
      "children": [
        13
      ],
      "matrix": [
        0.01,
        0,
        0,
        0,
        0,
        0.01,
        0,
        0,
        0,
        0,
        0.01,
        0,
        0,
        0,
        0,
        1
      ]
    },
    {
      "matrix": [
        -0.03634038468345726,
        -0.0000029912916478948754,
        0,
        0,
        -0.000002814655375500587,
        -0.03423420002233034,
        0,
        0,
        0,
        0,
        0.016607950293284917,
        0,
        -0.3805981356963171,
        208.94195346531842,
        41.32468237047164,
        0.9999999999999999
      ],
      "name": "Cube 54",
      "mesh": 0
    },
    {
      "matrix": [
        1.8489216949290805,
        0,
        0,
        0,
        0,
        2.2162310011679977e-14,
        -1.9380615749567254,
        0,
        0,
        0.2257150982480226,
        2.5811192205289854e-15,
        0,
        -0.2724987744647364,
        183.88506430787308,
        0.07126713888493795,
        0.9999999999999999
      ],
      "name": "column_detail",
      "mesh": 1
    },
    {
      "matrix": [
        0.21298510422637354,
        0,
        0,
        0,
        0,
        0.36099079277479984,
        0,
        0,
        0,
        0,
        0.3519408843208354,
        0,
        -0.26263136436756435,
        127.80539149601663,
        2.8421709430404007e-13,
        1
      ],
      "name": "column",
      "mesh": 2
    },
    {
      "matrix": [
        -0.269853772096692,
        -7.798723648315986e-17,
        0,
        0,
        3.6576769763249e-18,
        -0.029867199088516923,
        0,
        0,
        0,
        0,
        0.43575099401130235,
        0,
        -5.684341886080802e-14,
        46.15515862955077,
        1.1368683772161603e-13,
        0.9999999999999999
      ],
      "name": "column_base",
      "mesh": 3
    },
    {
      "matrix": [
        -0.24075845450294628,
        -6.957874400182054e-17,
        0,
        0,
        9.180122607502881e-18,
        -0.02664695267000601,
        0,
        0,
        0,
        0,
        0.38876883228703946,
        0,
        -4.961333297673045e-15,
        247.47276504066116,
        2.2737367544323206e-13,
        1
      ],
      "name": "column_top",
      "mesh": 4
    },
    {
      "matrix": [
        -0.1694654998014114,
        0,
        0,
        0,
        0,
        0.4679866030373966,
        0,
        0,
        0,
        0,
        0.7155168991559773,
        0,
        -28.65512503572567,
        211.89782868777837,
        0.023037370619817924,
        1.0000000000000004
      ],
      "name": "Cube 47",
      "mesh": 5
    },
    {
      "matrix": [
        -0.16709060184578697,
        0.0016409925104159497,
        0,
        0,
        0.005414554011164007,
        -0.4746913827019497,
        0,
        0,
        0,
        0,
        0.7155168991559772,
        0,
        19.241189175798734,
        115.92969389782219,
        0.023037370619817917,
        1
      ],
      "name": "Cube 47",
      "mesh": 6
    },
    {
      "matrix": [
        0.1694654998014114,
        0,
        0,
        0,
        0,
        0.4679866030373966,
        0,
        0,
        0,
        0,
        0.7155168991559773,
        0,
        28.052073895941675,
        211.89782868777837,
        0.023037370619817924,
        1.0000000000000004
      ],
      "name": "Cube 47",
      "mesh": 7
    },
    {
      "matrix": [
        -0.16709524570158021,
        -0.0044674231076174825,
        0,
        0,
        -0.003854986323284071,
        0.4745219494199406,
        0,
        0,
        0,
        0,
        0.7155168991559772,
        0,
        -26.564790580462372,
        115.86864414727403,
        0.02303737061981792,
        1
      ],
      "name": "Cube 47",
      "mesh": 8
    },
    {
      "name": "Group 5",
      "children": [
        1,
        2,
        3,
        4,
        5,
        6,
        7,
        8,
        9
      ]
    },
    {
      "matrix": [
        0.7071067811865474,
        0,
        -0.7071067811865477,
        0,
        -0.40824829046386296,
        0.8164965809277261,
        -0.4082482904638628,
        0,
        0.577350269189626,
        0.5773502691896256,
        0.5773502691896257,
        0,
        977.4073142219005,
        1052.5336774668422,
        922.1875517318375,
        1
      ],
      "camera": 0
    },
    {
      "matrix": [
        1,
        0,
        0,
        0,
        0,
        1,
        0,
        0,
        0,
        0,
        1,
        0,
        0,
        1,
        0,
        1
      ],
      "name": "Default Ambient Light"
    },
    {
      "name": "Scene",
      "children": [
        10,
        11,
        12
      ]
    }
  ],
  "bufferViews": [
    {
      "buffer": 0,
      "byteOffset": 0,
      "byteLength": 480,
      "target": 34962,
      "byteStride": 12
    },
    {
      "buffer": 0,
      "byteOffset": 480,
      "byteLength": 480,
      "target": 34962,
      "byteStride": 12
    },
    {
      "buffer": 0,
      "byteOffset": 960,
      "byteLength": 240,
      "target": 34963
    },
    {
      "buffer": 0,
      "byteOffset": 1200,
      "byteLength": 288,
      "target": 34962,
      "byteStride": 12
    },
    {
      "buffer": 0,
      "byteOffset": 1488,
      "byteLength": 288,
      "target": 34962,
      "byteStride": 12
    },
    {
      "buffer": 0,
      "byteOffset": 1776,
      "byteLength": 192,
      "target": 34962,
      "byteStride": 8
    },
    {
      "buffer": 0,
      "byteOffset": 1968,
      "byteLength": 144,
      "target": 34963
    },
    {
      "buffer": 0,
      "byteOffset": 2112,
      "byteLength": 288,
      "target": 34962,
      "byteStride": 12
    },
    {
      "buffer": 0,
      "byteOffset": 2400,
      "byteLength": 288,
      "target": 34962,
      "byteStride": 12
    },
    {
      "buffer": 0,
      "byteOffset": 2688,
      "byteLength": 192,
      "target": 34962,
      "byteStride": 8
    },
    {
      "buffer": 0,
      "byteOffset": 2880,
      "byteLength": 72,
      "target": 34963
    },
    {
      "buffer": 0,
      "byteOffset": 2952,
      "byteLength": 7200,
      "target": 34962,
      "byteStride": 12
    },
    {
      "buffer": 0,
      "byteOffset": 10152,
      "byteLength": 7200,
      "target": 34962,
      "byteStride": 12
    },
    {
      "buffer": 0,
      "byteOffset": 17352,
      "byteLength": 4800,
      "target": 34962,
      "byteStride": 8
    },
    {
      "buffer": 0,
      "byteOffset": 22152,
      "byteLength": 4296,
      "target": 34963
    },
    {
      "buffer": 0,
      "byteOffset": 26448,
      "byteLength": 7200,
      "target": 34962,
      "byteStride": 12
    },
    {
      "buffer": 0,
      "byteOffset": 33648,
      "byteLength": 7200,
      "target": 34962,
      "byteStride": 12
    },
    {
      "buffer": 0,
      "byteOffset": 40848,
      "byteLength": 4800,
      "target": 34962,
      "byteStride": 8
    },
    {
      "buffer": 0,
      "byteOffset": 45648,
      "byteLength": 4296,
      "target": 34963
    },
    {
      "buffer": 0,
      "byteOffset": 49944,
      "byteLength": 672,
      "target": 34962,
      "byteStride": 12
    },
    {
      "buffer": 0,
      "byteOffset": 50616,
      "byteLength": 672,
      "target": 34962,
      "byteStride": 12
    },
    {
      "buffer": 0,
      "byteOffset": 51288,
      "byteLength": 336,
      "target": 34963
    },
    {
      "buffer": 0,
      "byteOffset": 51624,
      "byteLength": 672,
      "target": 34962,
      "byteStride": 12
    },
    {
      "buffer": 0,
      "byteOffset": 52296,
      "byteLength": 672,
      "target": 34962,
      "byteStride": 12
    },
    {
      "buffer": 0,
      "byteOffset": 52968,
      "byteLength": 336,
      "target": 34963
    },
    {
      "buffer": 0,
      "byteOffset": 53304,
      "byteLength": 672,
      "target": 34962,
      "byteStride": 12
    },
    {
      "buffer": 0,
      "byteOffset": 53976,
      "byteLength": 672,
      "target": 34962,
      "byteStride": 12
    },
    {
      "buffer": 0,
      "byteOffset": 54648,
      "byteLength": 336,
      "target": 34963
    },
    {
      "buffer": 0,
      "byteOffset": 54984,
      "byteLength": 672,
      "target": 34962,
      "byteStride": 12
    },
    {
      "buffer": 0,
      "byteOffset": 55656,
      "byteLength": 672,
      "target": 34962,
      "byteStride": 12
    },
    {
      "buffer": 0,
      "byteOffset": 56328,
      "byteLength": 336,
      "target": 34963
    }
  ],
  "buffers": [
    {
      "byteLength": 56664,
      "uri": "data:application/octet-stream;base64,"
    }
  ],
  "accessors": [
    {
      "bufferView": 0,
      "componentType": 5126,
      "count": 40,
      "max": [
        238.7296905517578,
        420.0901794433594,
        238.7296905517578
      ],
      "min": [
        -238.7296905517578,
        -598.9833374023438,
        -238.7296905517578
      ],
      "type": "VEC3"
    },
    {
      "bufferView": 1,
      "componentType": 5126,
      "count": 40,
      "max": [
        0.933487594127655,
        1,
        0.933487594127655
      ],
      "min": [
        -0.933487594127655,
        -1,
        -0.933487594127655
      ],
      "type": "VEC3"
    },
    {
      "bufferView": 2,
      "componentType": 5125,
      "count": 60,
      "max": [
        39
      ],
      "min": [
        0
      ],
      "type": "SCALAR"
    },
    {
      "bufferView": 3,
      "componentType": 5126,
      "count": 24,
      "max": [
        20,
        20,
        8
      ],
      "min": [
        -20,
        -20,
        0
      ],
      "type": "VEC3"
    },
    {
      "bufferView": 4,
      "componentType": 5126,
      "count": 24,
      "max": [
        1,
        1,
        1
      ],
      "min": [
        -1,
        -1,
        -1
      ],
      "type": "VEC3"
    },
    {
      "bufferView": 5,
      "componentType": 5126,
      "count": 24,
      "max": [
        1,
        1
      ],
      "min": [
        0,
        0
      ],
      "type": "VEC2"
    },
    {
      "bufferView": 6,
      "componentType": 5125,
      "count": 36,
      "max": [
        23
      ],
      "min": [
        0
      ],
      "type": "SCALAR"
    },
    {
      "bufferView": 7,
      "componentType": 5126,
      "count": 24,
      "max": [
        173.5,
        350,
        109
      ],
      "min": [
        -173.5,
        -350,
        -109
      ],
      "type": "VEC3"
    },
    {
      "bufferView": 8,
      "componentType": 5126,
      "count": 24,
      "max": [
        1,
        1,
        1
      ],
      "min": [
        -1,
        -1,
        -1
      ],
      "type": "VEC3"
    },
    {
      "bufferView": 9,
      "componentType": 5126,
      "count": 24,
      "max": [
        1,
        1
      ],
      "min": [
        0,
        0
      ],
      "type": "VEC2"
    },
    {
      "bufferView": 10,
      "componentType": 5123,
      "count": 36,
      "max": [
        23
      ],
      "min": [
        0
      ],
      "type": "SCALAR"
    },
    {
      "bufferView": 11,
      "componentType": 5126,
      "count": 600,
      "max": [
        173.5,
        350,
        109
      ],
      "min": [
        -173.5,
        -350,
        -109
      ],
      "type": "VEC3"
    },
    {
      "bufferView": 12,
      "componentType": 5126,
      "count": 600,
      "max": [
        1,
        1,
        1
      ],
      "min": [
        -1,
        -1,
        -1
      ],
      "type": "VEC3"
    },
    {
      "bufferView": 13,
      "componentType": 5126,
      "count": 600,
      "max": [
        1,
        1
      ],
      "min": [
        0,
        0
      ],
      "type": "VEC2"
    },
    {
      "bufferView": 14,
      "componentType": 5123,
      "count": 2148,
      "max": [
        599
      ],
      "min": [
        0
      ],
      "type": "SCALAR"
    },
    {
      "bufferView": 15,
      "componentType": 5126,
      "count": 600,
      "max": [
        173.5,
        350,
        109
      ],
      "min": [
        -173.5,
        -350,
        -109
      ],
      "type": "VEC3"
    },
    {
      "bufferView": 16,
      "componentType": 5126,
      "count": 600,
      "max": [
        1,
        1,
        1
      ],
      "min": [
        -1,
        -1,
        -1
      ],
      "type": "VEC3"
    },
    {
      "bufferView": 17,
      "componentType": 5126,
      "count": 600,
      "max": [
        1,
        1
      ],
      "min": [
        0,
        0
      ],
      "type": "VEC2"
    },
    {
      "bufferView": 18,
      "componentType": 5123,
      "count": 2148,
      "max": [
        599
      ],
      "min": [
        0
      ],
      "type": "SCALAR"
    },
    {
      "bufferView": 19,
      "componentType": 5126,
      "count": 56,
      "max": [
        56.63128662109375,
        56.135398864746094,
        56.135398864746094
      ],
      "min": [
        -109.4061279296875,
        -56.135398864746094,
        -56.135398864746094
      ],
      "type": "VEC3"
    },
    {
      "bufferView": 20,
      "componentType": 5126,
      "count": 56,
      "max": [
        1,
        1,
        1
      ],
      "min": [
        -1,
        -1,
        -1
      ],
      "type": "VEC3"
    },
    {
      "bufferView": 21,
      "componentType": 5125,
      "count": 84,
      "max": [
        55
      ],
      "min": [
        0
      ],
      "type": "SCALAR"
    },
    {
      "bufferView": 22,
      "componentType": 5126,
      "count": 56,
      "max": [
        56.631282806396484,
        145.3906707763672,
        56.135398864746094
      ],
      "min": [
        -108.7276840209961,
        -145.3906707763672,
        -56.135398864746094
      ],
      "type": "VEC3"
    },
    {
      "bufferView": 23,
      "componentType": 5126,
      "count": 56,
      "max": [
        1,
        1,
        1
      ],
      "min": [
        -1,
        -1,
        -1
      ],
      "type": "VEC3"
    },
    {
      "bufferView": 24,
      "componentType": 5125,
      "count": 84,
      "max": [
        55
      ],
      "min": [
        0
      ],
      "type": "SCALAR"
    },
    {
      "bufferView": 25,
      "componentType": 5126,
      "count": 56,
      "max": [
        56.63128662109375,
        56.135398864746094,
        56.135398864746094
      ],
      "min": [
        -109.4061279296875,
        -56.135398864746094,
        -56.135398864746094
      ],
      "type": "VEC3"
    },
    {
      "bufferView": 26,
      "componentType": 5126,
      "count": 56,
      "max": [
        1,
        1,
        1
      ],
      "min": [
        -1,
        -1,
        -1
      ],
      "type": "VEC3"
    },
    {
      "bufferView": 27,
      "componentType": 5125,
      "count": 84,
      "max": [
        55
      ],
      "min": [
        0
      ],
      "type": "SCALAR"
    },
    {
      "bufferView": 28,
      "componentType": 5126,
      "count": 56,
      "max": [
        56.631282806396484,
        145.3906707763672,
        56.135398864746094
      ],
      "min": [
        -108.7276840209961,
        -145.3906707763672,
        -56.135398864746094
      ],
      "type": "VEC3"
    },
    {
      "bufferView": 29,
      "componentType": 5126,
      "count": 56,
      "max": [
        1,
        1,
        1
      ],
      "min": [
        -1,
        -1,
        -1
      ],
      "type": "VEC3"
    },
    {
      "bufferView": 30,
      "componentType": 5125,
      "count": 84,
      "max": [
        55
      ],
      "min": [
        0
      ],
      "type": "SCALAR"
    }
  ],
  "materials": [
    {
      "pbrMetallicRoughness": {
        "baseColorFactor": [
          0.0740209349090104,
          0.20979320338793875,
          0.6160409168324967,
          1
        ],
        "metallicFactor": 0,
        "roughnessFactor": 0.99
      },
      "doubleSided": false
    },
    {
      "pbrMetallicRoughness": {
        "baseColorFactor": [
          0.10887949002331855,
          0.10887949002331855,
          0.10887949002331855,
          1
        ],
        "metallicFactor": 0,
        "roughnessFactor": 0.99
      },
      "doubleSided": false
    },
    {
      "pbrMetallicRoughness": {
        "baseColorFactor": [
          0.345903388938295,
          0.345903388938295,
          0.345903388938295,
          1
        ],
        "metallicFactor": 0,
        "roughnessFactor": 0.99
      },
      "doubleSided": false
    },
    {
      "pbrMetallicRoughness": {
        "baseColorFactor": [
          0.345903388938295,
          0.345903388938295,
          0.345903388938295,
          1
        ],
        "metallicFactor": 0,
        "roughnessFactor": 0.99
      },
      "doubleSided": false
    },
    {
      "pbrMetallicRoughness": {
        "baseColorFactor": [
          0.345903388938295,
          0.345903388938295,
          0.345903388938295,
          1
        ],
        "metallicFactor": 0,
        "roughnessFactor": 0.99
      },
      "doubleSided": false
    },
    {
      "pbrMetallicRoughness": {
        "baseColorFactor": [
          0.345903388938295,
          0.345903388938295,
          0.345903388938295,
          1
        ],
        "metallicFactor": 0,
        "roughnessFactor": 0.99
      },
      "doubleSided": false
    }
  ],
  "meshes": [
    {
      "primitives": [
        {
          "mode": 4,
          "attributes": {
            "POSITION": 0,
            "NORMAL": 1
          },
          "extras": {
            "type": "SubdivGeometry",
            "parameters": {
              "width": 477.4593811035156,
              "height": 1019.0735168457031,
              "depth": 477.4593811035156
            }
          },
          "indices": 2,
          "material": 0
        }
      ]
    },
    {
      "primitives": [
        {
          "mode": 4,
          "attributes": {
            "POSITION": 3,
            "NORMAL": 4,
            "TEXCOORD_0": 5
          },
          "extras": {
            "shape": {
              "points": [
                -20,
                20,
                -20,
                20,
                -20,
                20,
                0,
                20,
                20,
                20,
                20,
                20,
                20,
                0,
                20,
                -20,
                20,
                -20,
                20,
                -20,
                0,
                -20,
                -20,
                -20,
                -20,
                -20,
                -20,
                0
              ],
              "shapeHoles": [],
              "isClosed": true,
              "roundness": 0
            },
            "parameters": {
              "width": 40,
              "depth": 8,
              "cornerRadius": [
                0,
                0,
                0,
                0
              ],
              "cornerType": 1,
              "extrudeBevelSize": 0,
              "extrudeBevelSegments": 1,
              "extrudeDepth": 0,
              "height": 40,
              "type": "RectangleGeometry"
            },
            "ui": {
              "enabledIndieCorners": false
            },
            "type": "RectangleGeometry"
          },
          "indices": 6,
          "material": 0
        }
      ]
    },
    {
      "primitives": [
        {
          "mode": 4,
          "attributes": {
            "POSITION": 7,
            "NORMAL": 8,
            "TEXCOORD_0": 9
          },
          "extras": {
            "parameters": {
              "width": 347,
              "widthSegments": 1,
              "heightSegments": 1,
              "depthSegments": 1,
              "cornerRadius": 0,
              "cornerSegments": 8,
              "height": 700,
              "depth": 218,
              "type": "CubeGeometry"
            },
            "type": "CubeGeometry"
          },
          "indices": 10,
          "material": 1
        }
      ]
    },
    {
      "primitives": [
        {
          "mode": 4,
          "attributes": {
            "POSITION": 11,
            "NORMAL": 12,
            "TEXCOORD_0": 13
          },
          "extras": {
            "parameters": {
              "width": 347,
              "widthSegments": 1,
              "heightSegments": 1,
              "depthSegments": 1,
              "cornerRadius": 12,
              "cornerSegments": 8,
              "height": 700,
              "depth": 218,
              "type": "CubeGeometry"
            },
            "type": "CubeGeometry"
          },
          "indices": 14,
          "material": 1
        }
      ]
    },
    {
      "primitives": [
        {
          "mode": 4,
          "attributes": {
            "POSITION": 15,
            "NORMAL": 16,
            "TEXCOORD_0": 17
          },
          "extras": {
            "parameters": {
              "width": 347,
              "widthSegments": 1,
              "heightSegments": 1,
              "depthSegments": 1,
              "cornerRadius": 12,
              "cornerSegments": 8,
              "height": 700,
              "depth": 218,
              "type": "CubeGeometry"
            },
            "type": "CubeGeometry"
          },
          "indices": 18,
          "material": 1
        }
      ]
    },
    {
      "primitives": [
        {
          "mode": 4,
          "attributes": {
            "POSITION": 19,
            "NORMAL": 20
          },
          "extras": {
            "type": "SubdivGeometry",
            "parameters": {
              "width": 166.03741455078125,
              "height": 112.27079772949219,
              "depth": 112.27079772949219
            }
          },
          "indices": 21,
          "material": 2
        }
      ]
    },
    {
      "primitives": [
        {
          "mode": 4,
          "attributes": {
            "POSITION": 22,
            "NORMAL": 23
          },
          "extras": {
            "type": "SubdivGeometry",
            "parameters": {
              "width": 165.35896682739258,
              "height": 290.7813415527344,
              "depth": 112.27079772949219
            }
          },
          "indices": 24,
          "material": 3
        }
      ]
    },
    {
      "primitives": [
        {
          "mode": 4,
          "attributes": {
            "POSITION": 25,
            "NORMAL": 26
          },
          "extras": {
            "type": "SubdivGeometry",
            "parameters": {
              "width": 166.03741455078125,
              "height": 112.27079772949219,
              "depth": 112.27079772949219
            }
          },
          "indices": 27,
          "material": 4
        }
      ]
    },
    {
      "primitives": [
        {
          "mode": 4,
          "attributes": {
            "POSITION": 28,
            "NORMAL": 29
          },
          "extras": {
            "type": "SubdivGeometry",
            "parameters": {
              "width": 165.35896682739258,
              "height": 290.7813415527344,
              "depth": 112.27079772949219
            }
          },
          "indices": 30,
          "material": 5
        }
      ]
    }
  ],
  "cameras": [
    {
      "type": "orthographic",
      "orthographic": {
        "xmag": 7.560000000000001,
        "ymag": 4.290000000000001,
        "zfar": 100000,
        "znear": 0
      }
    }
  ]
}