{
  "asset": {
    "version": "2.0",
    "generator": "THREE.GLTFExporter"
  },
  "scenes": [
    {
      "nodes": [
        0
      ]
    }
  ],
  "scene": 0,
  "nodes": [
    {
      "children": [
        12
      ],
      "matrix": [
        0.01,
        0,
        0,
        0,
        0,
        0.01,
        0,
        0,
        0,
        0,
        0.01,
        0,
        0,
        0,
        0,
        1
      ]
    },
    {
      "matrix": [
        1,
        0,
        -1.5655131281128813e-45,
        0,
        0,
        2.22044604925055e-16,
        -1.000000000000123,
        0,
        0,
        1.000000000000107,
        2.2204460492505857e-16,
        0,
        82.82014628744868,
        9.547661925978783,
        2.1316282072802813e-14,
        0.9999999999999841
      ],
      "name": "Torus -top",
      "mesh": 0
    },
    {
      "matrix": [
        1,
        0,
        -1.5655131281128813e-45,
        0,
        0,
        2.2204460492504556e-16,
        -1.0000000000000804,
        0,
        0,
        1.0000000000000644,
        2.220446049250491e-16,
        0,
        82.82014628744868,
        -0.6932474454526814,
        3.552713678800482e-14,
        0.9999999999999841
      ],
      "name": "Torus",
      "mesh": 1
    },
    {
      "matrix": [
        1,
        0,
        0,
        0,
        0,
        1,
        0,
        0,
        0,
        0,
        1,
        0,
        -14.387552767176615,
        -5.759162885766266,
        -32.287430610490276,
        1
      ],
      "name": "Merged Geometry",
      "mesh": 2
    },
    {
      "matrix": [
        1,
        0,
        0,
        0,
        0,
        1,
        0,
        0,
        0,
        0,
        1,
        0,
        -9.398530634136165,
        -6.103989344512218,
        -25.19509467144831,
        1
      ],
      "name": "Merged Geometry 5",
      "mesh": 3
    },
    {
      "matrix": [
        1,
        0,
        0,
        0,
        0,
        1,
        0,
        0,
        0,
        0,
        1,
        0,
        -9.19460873323591,
        -3.446121947028587,
        -40.72838375305314,
        1
      ],
      "name": "Merged Geometry 2",
      "mesh": 4
    },
    {
      "matrix": [
        1,
        0,
        0,
        0,
        0,
        1,
        0,
        0,
        0,
        0,
        1,
        0,
        -4.840567691788429,
        -5.56068161695292,
        -19.023000884771612,
        1
      ],
      "name": "Merged Geometry 3",
      "mesh": 5
    },
    {
      "matrix": [
        1,
        0,
        0,
        0,
        0,
        1,
        0,
        0,
        0,
        0,
        1,
        0,
        -11.765669483383661,
        -3.503365565925577,
        -29.085014569824185,
        1
      ],
      "name": "Merged Geometry 4",
      "mesh": 6
    },
    {
      "matrix": [
        1,
        0,
        -1.5655131281128813e-45,
        0,
        0,
        0.9999999999999841,
        0,
        0,
        0,
        0,
        1,
        0,
        89.8941961612493,
        39.63614863443371,
        24.42530977280441,
        0.9999999999999841
      ],
      "name": "decoraction",
      "children": [
        3,
        4,
        5,
        6,
        7
      ]
    },
    {
      "matrix": [
        1.1102230246251565e-16,
        0.5,
        -1.1102230246251565e-16,
        0,
        0,
        1.1102230246251565e-16,
        0.5,
        0,
        0.5,
        -1.1102230246251565e-16,
        0,
        0,
        0,
        0,
        0,
        1
      ],
      "name": "Donut",
      "children": [
        1,
        2,
        8
      ]
    },
    {
      "matrix": [
        0.7071067947893841,
        -2.7205673713837086e-8,
        -0.7071067675837102,
        0,
        -0.40824826690305777,
        0.816496580927726,
        -0.408248314024667,
        0,
        0.577350269189626,
        0.5773502691896252,
        0.5773502691896262,
        0,
        274.52537184842146,
        350.8423970871087,
        272.6627520249469,
        1
      ],
      "camera": 0
    },
    {
      "matrix": [
        1,
        0,
        0,
        0,
        0,
        1,
        0,
        0,
        0,
        0,
        1,
        0,
        0,
        1,
        0,
        1
      ],
      "name": "Default Ambient Light"
    },
    {
      "name": "Scene 1",
      "children": [
        9,
        10,
        11
      ]
    }
  ],
  "bufferViews": [
    {
      "buffer": 0,
      "byteOffset": 0,
      "byteLength": 7140,
      "target": 34962,
      "byteStride": 12
    },
    {
      "buffer": 0,
      "byteOffset": 7140,
      "byteLength": 7140,
      "target": 34962,
      "byteStride": 12
    },
    {
      "buffer": 0,
      "byteOffset": 14280,
      "byteLength": 4760,
      "target": 34962,
      "byteStride": 8
    },
    {
      "buffer": 0,
      "byteOffset": 19040,
      "byteLength": 6240,
      "target": 34963
    },
    {
      "buffer": 0,
      "byteOffset": 25280,
      "byteLength": 7140,
      "target": 34962,
      "byteStride": 12
    },
    {
      "buffer": 0,
      "byteOffset": 32420,
      "byteLength": 7140,
      "target": 34962,
      "byteStride": 12
    },
    {
      "buffer": 0,
      "byteOffset": 39560,
      "byteLength": 4760,
      "target": 34962,
      "byteStride": 8
    },
    {
      "buffer": 0,
      "byteOffset": 44320,
      "byteLength": 6240,
      "target": 34963
    },
    {
      "buffer": 0,
      "byteOffset": 50560,
      "byteLength": 105984,
      "target": 34962,
      "byteStride": 12
    },
    {
      "buffer": 0,
      "byteOffset": 156544,
      "byteLength": 105984,
      "target": 34962,
      "byteStride": 12
    },
    {
      "buffer": 0,
      "byteOffset": 262528,
      "byteLength": 50688,
      "target": 34963
    },
    {
      "buffer": 0,
      "byteOffset": 313216,
      "byteLength": 72864,
      "target": 34962,
      "byteStride": 12
    },
    {
      "buffer": 0,
      "byteOffset": 386080,
      "byteLength": 72864,
      "target": 34962,
      "byteStride": 12
    },
    {
      "buffer": 0,
      "byteOffset": 458944,
      "byteLength": 34848,
      "target": 34963
    },
    {
      "buffer": 0,
      "byteOffset": 493792,
      "byteLength": 46368,
      "target": 34962,
      "byteStride": 12
    },
    {
      "buffer": 0,
      "byteOffset": 540160,
      "byteLength": 46368,
      "target": 34962,
      "byteStride": 12
    },
    {
      "buffer": 0,
      "byteOffset": 586528,
      "byteLength": 22176,
      "target": 34963
    },
    {
      "buffer": 0,
      "byteOffset": 608704,
      "byteLength": 66240,
      "target": 34962,
      "byteStride": 12
    },
    {
      "buffer": 0,
      "byteOffset": 674944,
      "byteLength": 66240,
      "target": 34962,
      "byteStride": 12
    },
    {
      "buffer": 0,
      "byteOffset": 741184,
      "byteLength": 31680,
      "target": 34963
    },
    {
      "buffer": 0,
      "byteOffset": 772864,
      "byteLength": 66240,
      "target": 34962,
      "byteStride": 12
    },
    {
      "buffer": 0,
      "byteOffset": 839104,
      "byteLength": 66240,
      "target": 34962,
      "byteStride": 12
    },
    {
      "buffer": 0,
      "byteOffset": 905344,
      "byteLength": 31680,
      "target": 34963
    }
  ],
  "buffers": [
    {
      "byteLength": 937024,
      "uri": "data:application/octet-stream;base64,"
    }
  ],
  "accessors": [
    {
      "bufferView": 0,
      "componentType": 5126,
      "count": 595,
      "max": [
        82.5,
        82.5,
        30.000499725341797
      ],
      "min": [
        -82.5,
        -82.5,
        -30.000499725341797
      ],
      "type": "VEC3"
    },
    {
      "bufferView": 1,
      "componentType": 5126,
      "count": 595,
      "max": [
        1,
        1,
        1
      ],
      "min": [
        -1,
        -1,
        -1
      ],
      "type": "VEC3"
    },
    {
      "bufferView": 2,
      "componentType": 5126,
      "count": 595,
      "max": [
        1,
        1
      ],
      "min": [
        0,
        0
      ],
      "type": "VEC2"
    },
    {
      "bufferView": 3,
      "componentType": 5123,
      "count": 3120,
      "max": [
        577
      ],
      "min": [
        17
      ],
      "type": "SCALAR"
    },
    {
      "bufferView": 4,
      "componentType": 5126,
      "count": 595,
      "max": [
        80.3919906616211,
        80.3919906616211,
        31.500499725341797
      ],
      "min": [
        -80.3919906616211,
        -80.3919906616211,
        -31.500499725341797
      ],
      "type": "VEC3"
    },
    {
      "bufferView": 5,
      "componentType": 5126,
      "count": 595,
      "max": [
        1,
        1,
        1
      ],
      "min": [
        -1,
        -1,
        -1
      ],
      "type": "VEC3"
    },
    {
      "bufferView": 6,
      "componentType": 5126,
      "count": 595,
      "max": [
        1,
        1
      ],
      "min": [
        0,
        0
      ],
      "type": "VEC2"
    },
    {
      "bufferView": 7,
      "componentType": 5123,
      "count": 3120,
      "max": [
        577
      ],
      "min": [
        17
      ],
      "type": "SCALAR"
    },
    {
      "bufferView": 8,
      "componentType": 5126,
      "count": 8832,
      "max": [
        69.41974639892578,
        9.887018203735352,
        71.44526672363281
      ],
      "min": [
        -69.67863464355469,
        -9.887018203735352,
        -70.84295654296875
      ],
      "type": "VEC3"
    },
    {
      "bufferView": 9,
      "componentType": 5126,
      "count": 8832,
      "max": [
        0.9997617602348328,
        0.9985916018486023,
        0.9996863603591919
      ],
      "min": [
        -0.9994763731956482,
        -0.9986008405685425,
        -0.9999151825904846
      ],
      "type": "VEC3"
    },
    {
      "bufferView": 10,
      "componentType": 5125,
      "count": 12672,
      "max": [
        8831
      ],
      "min": [
        0
      ],
      "type": "SCALAR"
    },
    {
      "bufferView": 11,
      "componentType": 5126,
      "count": 6072,
      "max": [
        77.06283569335938,
        9.647594451904297,
        76.95188903808594
      ],
      "min": [
        -76.03073120117188,
        -9.647594451904297,
        -77.80555725097656
      ],
      "type": "VEC3"
    },
    {
      "bufferView": 12,
      "componentType": 5126,
      "count": 6072,
      "max": [
        0.9985765814781189,
        0.9985750317573547,
        0.999930202960968
      ],
      "min": [
        -0.9994292259216309,
        -0.99858158826828,
        -0.9998767971992493
      ],
      "type": "VEC3"
    },
    {
      "bufferView": 13,
      "componentType": 5125,
      "count": 8712,
      "max": [
        6071
      ],
      "min": [
        0
      ],
      "type": "SCALAR"
    },
    {
      "bufferView": 14,
      "componentType": 5126,
      "count": 3864,
      "max": [
        66.10165405273438,
        5.845941543579102,
        52.71152114868164
      ],
      "min": [
        -65.82250213623047,
        -5.845941543579102,
        -51.979591369628906
      ],
      "type": "VEC3"
    },
    {
      "bufferView": 15,
      "componentType": 5126,
      "count": 3864,
      "max": [
        0.9998067617416382,
        0.9985578656196594,
        0.9990918636322021
      ],
      "min": [
        -0.9998928308486938,
        -0.9985506534576416,
        -0.9999225735664368
      ],
      "type": "VEC3"
    },
    {
      "bufferView": 16,
      "componentType": 5125,
      "count": 5544,
      "max": [
        3863
      ],
      "min": [
        0
      ],
      "type": "SCALAR"
    },
    {
      "bufferView": 17,
      "componentType": 5126,
      "count": 5520,
      "max": [
        67.37525177001953,
        9.694805145263672,
        72.66098022460938
      ],
      "min": [
        -66.85944366455078,
        -9.694805145263672,
        -73.15412902832031
      ],
      "type": "VEC3"
    },
    {
      "bufferView": 18,
      "componentType": 5126,
      "count": 5520,
      "max": [
        0.9996569156646729,
        0.9985827803611755,
        0.9997438192367554
      ],
      "min": [
        -0.9995008707046509,
        -0.9985874891281128,
        -0.9998856782913208
      ],
      "type": "VEC3"
    },
    {
      "bufferView": 19,
      "componentType": 5125,
      "count": 7920,
      "max": [
        5519
      ],
      "min": [
        0
      ],
      "type": "SCALAR"
    },
    {
      "bufferView": 20,
      "componentType": 5126,
      "count": 5520,
      "max": [
        68.30976867675781,
        5.9031853675842285,
        64.97825622558594
      ],
      "min": [
        -68.29708099365234,
        -5.9031853675842285,
        -66.27596282958984
      ],
      "type": "VEC3"
    },
    {
      "bufferView": 21,
      "componentType": 5126,
      "count": 5520,
      "max": [
        0.9999440908432007,
        0.9985360503196716,
        0.9994646310806274
      ],
      "min": [
        -0.9993572235107422,
        -0.9985511898994446,
        -0.9999597668647766
      ],
      "type": "VEC3"
    },
    {
      "bufferView": 22,
      "componentType": 5125,
      "count": 7920,
      "max": [
        5519
      ],
      "min": [
        0
      ],
      "type": "SCALAR"
    }
  ],
  "materials": [
    {
      "pbrMetallicRoughness": {
        "baseColorFactor": [
          0.9463664729254148,
          0.9463664729254148,
          0.9463664729254148,
          1
        ],
        "metallicFactor": 0,
        "roughnessFactor": 0.995
      },
      "doubleSided": false
    },
    {
      "pbrMetallicRoughness": {
        "baseColorFactor": [
          0.508881320845802,
          0.22322795730611386,
          0.11443537381770343,
          1
        ],
        "metallicFactor": 0,
        "roughnessFactor": 0.3
      },
      "doubleSided": false
    },
    {
      "pbrMetallicRoughness": {
        "baseColorFactor": [
          0.6871715593663307,
          0.36098586204075755,
          0.04726758147390282,
          1
        ],
        "metallicFactor": 0,
        "roughnessFactor": 0.97
      },
      "doubleSided": false
    },
    {
      "pbrMetallicRoughness": {
        "baseColorFactor": [
          0.7011018919268015,
          0.16202937562896222,
          0.3915724777393922,
          1
        ],
        "metallicFactor": 0,
        "roughnessFactor": 0.995
      },
      "doubleSided": false
    },
    {
      "pbrMetallicRoughness": {
        "baseColorFactor": [
          0.1938361843340401,
          0.3368551777819999,
          0.5933816524222629,
          1
        ],
        "metallicFactor": 0,
        "roughnessFactor": 0.3
      },
      "doubleSided": false
    },
    {
      "pbrMetallicRoughness": {
        "baseColorFactor": [
          0.4623705656324203,
          0.23377783566327032,
          0.541962260475051,
          1
        ],
        "metallicFactor": 0,
        "roughnessFactor": 0.995
      },
      "doubleSided": false
    }
  ],
  "meshes": [
    {
      "primitives": [
        {
          "mode": 4,
          "attributes": {
            "POSITION": 0,
            "NORMAL": 1,
            "TEXCOORD_0": 2
          },
          "extras": {
            "parameters": {
              "width": 165,
              "radialSegments": 16,
              "tubularSegments": 32,
              "arc": 360,
              "cornerRadius": 30,
              "cornerSegments": 8,
              "height": 165,
              "depth": 60,
              "type": "TorusGeometry"
            },
            "type": "TorusGeometry"
          },
          "indices": 3,
          "material": 0
        }
      ]
    },
    {
      "primitives": [
        {
          "mode": 4,
          "attributes": {
            "POSITION": 4,
            "NORMAL": 5,
            "TEXCOORD_0": 6
          },
          "extras": {
            "parameters": {
              "width": 160.78397926850533,
              "radialSegments": 16,
              "tubularSegments": 32,
              "arc": 360,
              "cornerRadius": 30,
              "cornerSegments": 8,
              "height": 160.78397926850533,
              "depth": 63,
              "type": "TorusGeometry"
            },
            "type": "TorusGeometry"
          },
          "indices": 7,
          "material": 1
        }
      ]
    },
    {
      "primitives": [
        {
          "mode": 4,
          "attributes": {
            "POSITION": 8,
            "NORMAL": 9
          },
          "extras": {
            "type": "SubdivGeometry",
            "parameters": {
              "width": 139.09838104248047,
              "height": 19.774036407470703,
              "depth": 142.28822326660156
            }
          },
          "indices": 10,
          "material": 0
        }
      ]
    },
    {
      "primitives": [
        {
          "mode": 4,
          "attributes": {
            "POSITION": 11,
            "NORMAL": 12
          },
          "extras": {
            "type": "SubdivGeometry",
            "parameters": {
              "width": 153.09356689453125,
              "height": 19.295188903808594,
              "depth": 154.7574462890625
            }
          },
          "indices": 13,
          "material": 2
        }
      ]
    },
    {
      "primitives": [
        {
          "mode": 4,
          "attributes": {
            "POSITION": 14,
            "NORMAL": 15
          },
          "extras": {
            "type": "SubdivGeometry",
            "parameters": {
              "width": 131.92415618896484,
              "height": 11.691883087158203,
              "depth": 104.69111251831055
            }
          },
          "indices": 16,
          "material": 3
        }
      ]
    },
    {
      "primitives": [
        {
          "mode": 4,
          "attributes": {
            "POSITION": 17,
            "NORMAL": 18
          },
          "extras": {
            "type": "SubdivGeometry",
            "parameters": {
              "width": 134.2346954345703,
              "height": 19.389610290527344,
              "depth": 145.8151092529297
            }
          },
          "indices": 19,
          "material": 4
        }
      ]
    },
    {
      "primitives": [
        {
          "mode": 4,
          "attributes": {
            "POSITION": 20,
            "NORMAL": 21
          },
          "extras": {
            "type": "SubdivGeometry",
            "parameters": {
              "width": 136.60684967041016,
              "height": 11.806370735168457,
              "depth": 131.25421905517578
            }
          },
          "indices": 22,
          "material": 5
        }
      ]
    }
  ],
  "cameras": [
    {
      "type": "perspective",
      "perspective": {
        "aspectRatio": 1.7622377622377623,
        "yfov": 0.7853981633974483,
        "zfar": 100000,
        "znear": 70
      }
    }
  ]
}