{
  "asset": {
    "version": "2.0",
    "generator": "THREE.GLTFExporter"
  },
  "scenes": [
    {
      "nodes": [
        0
      ]
    }
  ],
  "scene": 0,
  "nodes": [
    {
      "children": [
        6
      ],
      "matrix": [
        0.01,
        0,
        0,
        0,
        0,
        0.01,
        0,
        0,
        0,
        0,
        0.01,
        0,
        0,
        0,
        0,
        1
      ]
    },
    {
      "matrix": [
        1,
        0,
        0,
        0,
        0,
        2.220446049250313e-16,
        -1,
        0,
        0,
        1,
        2.220446049250313e-16,
        0,
        0,
        0.04138015306002529,
        0,
        1
      ],
      "name": "Rectangle 2",
      "mesh": 0
    },
    {
      "matrix": [
        1,
        0,
        0,
        0,
        0,
        1,
        0,
        0,
        0,
        0,
        1,
        0,
        0.22298313802718894,
        55.61451527148342,
        -0.21580609982584065,
        1
      ],
      "name": "Cylinder",
      "mesh": 1
    },
    {
      "matrix": [
        0.8,
        0,
        0,
        0,
        0,
        0.8,
        0,
        0,
        0,
        0,
        0.8,
        0,
        0,
        0,
        0,
        1
      ],
      "name": "container",
      "children": [
        1,
        2
      ]
    },
    {
      "matrix": [
        0.707106789789737,
        -1.7206378821743584e-8,
        -0.7071067725833577,
        0,
        -0.4082482755627016,
        0.8164965809277259,
        -0.40824830536502416,
        0,
        0.5773502691896257,
        0.5773502691896257,
        0.577350269189626,
        0,
        575.8888851396583,
        625.309083736385,
        571.9128757721035,
        1
      ],
      "camera": 0
    },
    {
      "matrix": [
        1,
        0,
        0,
        0,
        0,
        1,
        0,
        0,
        0,
        0,
        1,
        0,
        0,
        1,
        0,
        1
      ],
      "name": "Default Ambient Light"
    },
    {
      "name": "Scene",
      "children": [
        3,
        4,
        5
      ]
    }
  ],
  "bufferViews": [
    {
      "buffer": 0,
      "byteOffset": 0,
      "byteLength": 15864,
      "target": 34962,
      "byteStride": 12
    },
    {
      "buffer": 0,
      "byteOffset": 15864,
      "byteLength": 15864,
      "target": 34962,
      "byteStride": 12
    },
    {
      "buffer": 0,
      "byteOffset": 31728,
      "byteLength": 10576,
      "target": 34962,
      "byteStride": 8
    },
    {
      "buffer": 0,
      "byteOffset": 42304,
      "byteLength": 23568,
      "target": 34963
    },
    {
      "buffer": 0,
      "byteOffset": 65872,
      "byteLength": 12480,
      "target": 34962,
      "byteStride": 12
    },
    {
      "buffer": 0,
      "byteOffset": 78352,
      "byteLength": 12480,
      "target": 34962,
      "byteStride": 12
    },
    {
      "buffer": 0,
      "byteOffset": 90832,
      "byteLength": 8320,
      "target": 34962,
      "byteStride": 8
    },
    {
      "buffer": 0,
      "byteOffset": 99152,
      "byteLength": 12288,
      "target": 34963
    }
  ],
  "buffers": [
    {
      "byteLength": 111440,
      "uri": "data:application/octet-stream;base64,"
    }
  ],
  "accessors": [
    {
      "bufferView": 0,
      "componentType": 5126,
      "count": 1322,
      "max": [
        43.173095703125,
        43.173095703125,
        10
      ],
      "min": [
        -43.173095703125,
        -43.173095703125,
        0
      ],
      "type": "VEC3"
    },
    {
      "bufferView": 1,
      "componentType": 5126,
      "count": 1322,
      "max": [
        1,
        1,
        1
      ],
      "min": [
        -1,
        -1,
        -1
      ],
      "type": "VEC3"
    },
    {
      "bufferView": 2,
      "componentType": 5126,
      "count": 1322,
      "max": [
        1,
        1
      ],
      "min": [
        0,
        0
      ],
      "type": "VEC2"
    },
    {
      "bufferView": 3,
      "componentType": 5125,
      "count": 5892,
      "max": [
        1321
      ],
      "min": [
        0
      ],
      "type": "SCALAR"
    },
    {
      "bufferView": 4,
      "componentType": 5126,
      "count": 1040,
      "max": [
        35.40793228149414,
        48.8849983215332,
        35.40793228149414
      ],
      "min": [
        -35.40793228149414,
        -48.8849983215332,
        -35.40793228149414
      ],
      "type": "VEC3"
    },
    {
      "bufferView": 5,
      "componentType": 5126,
      "count": 1040,
      "max": [
        0.968376100063324,
        1,
        0.968376100063324
      ],
      "min": [
        -0.968376100063324,
        -1,
        -0.968376100063324
      ],
      "type": "VEC3"
    },
    {
      "bufferView": 6,
      "componentType": 5126,
      "count": 1040,
      "max": [
        1,
        1
      ],
      "min": [
        0,
        0
      ],
      "type": "VEC2"
    },
    {
      "bufferView": 7,
      "componentType": 5123,
      "count": 6144,
      "max": [
        1039
      ],
      "min": [
        0
      ],
      "type": "SCALAR"
    }
  ],
  "materials": [
    {
      "pbrMetallicRoughness": {
        "baseColorFactor": [
          0.5683873132209858,
          0.19785806363112518,
          0.07849130693452167,
          1
        ],
        "metallicFactor": 0,
        "roughnessFactor": 0.97
      },
      "doubleSided": false
    },
    {
      "pbrMetallicRoughness": {
        "baseColorFactor": [
          0.6983671642485119,
          0.5097445601973833,
          0.5482533947330993,
          1
        ],
        "metallicFactor": 0,
        "roughnessFactor": 0.995
      },
      "doubleSided": false
    }
  ],
  "meshes": [
    {
      "primitives": [
        {
          "mode": 4,
          "attributes": {
            "POSITION": 0,
            "NORMAL": 1,
            "TEXCOORD_0": 2
          },
          "extras": {
            "shape": {
              "points": [
                -43.173094083388094,
                43.173094083388094,
                -43.173094083388094,
                43.173094083388094,
                -43.173094083388094,
                43.173094083388094,
                7,
                43.173094083388094,
                43.173094083388094,
                43.173094083388094,
                43.173094083388094,
                43.173094083388094,
                43.173094083388094,
                7,
                43.173094083388094,
                -43.173094083388094,
                43.173094083388094,
                -43.173094083388094,
                43.173094083388094,
                -43.173094083388094,
                7,
                -43.173094083388094,
                -43.173094083388094,
                -43.173094083388094,
                -43.173094083388094,
                -43.173094083388094,
                -43.173094083388094,
                7
              ],
              "shapeHoles": [],
              "isClosed": true,
              "roundness": 7
            },
            "parameters": {
              "width": 86.34618816677619,
              "depth": 10,
              "cornerRadius": [
                7,
                7,
                7,
                7
              ],
              "cornerType": 1,
              "extrudeBevelSize": 2,
              "extrudeBevelSegments": 2,
              "height": 86.34618816677619,
              "type": "RectangleGeometry"
            },
            "ui": {
              "enabledIndieCorners": false
            },
            "type": "RectangleGeometry"
          },
          "indices": 3,
          "material": 0
        }
      ]
    },
    {
      "primitives": [
        {
          "mode": 4,
          "attributes": {
            "POSITION": 4,
            "NORMAL": 5,
            "TEXCOORD_0": 6
          },
          "extras": {
            "parameters": {
              "width": 72.77031743980207,
              "radialSegments": 64,
              "heightSegments": 1,
              "openEnded": false,
              "thetaStart": 0,
              "thetaLength": 360,
              "cornerRadius": 4,
              "cornerSegments": 2,
              "hollow": 0.44,
              "depth": 72.77031743980207,
              "height": 97.77,
              "radiusTop": 11.195433452277241,
              "radiusBottom": 36.385158719901035,
              "type": "CylinderGeometry"
            },
            "type": "CylinderGeometry"
          },
          "indices": 7,
          "material": 1
        }
      ]
    }
  ],
  "cameras": [
    {
      "type": "orthographic",
      "orthographic": {
        "xmag": 3.686822842113405,
        "ymag": 2.0921256604056224,
        "zfar": 100000,
        "znear": 0
      }
    }
  ]
}