{
  "asset": {
    "version": "2.0",
    "generator": "THREE.GLTFExporter"
  },
  "scenes": [
    {
      "nodes": [
        0
      ]
    }
  ],
  "scene": 0,
  "nodes": [
    {
      "children": [
        6,
        7,
        8
      ],
      "matrix": [
        0.01,
        0,
        0,
        0,
        0,
        0.01,
        0,
        0,
        0,
        0,
        0.01,
        0,
        0,
        0,
        0,
        1
      ]
    },
    {
      "matrix": [
        1,
        0,
        0,
        0,
        0,
        1,
        0,
        0,
        0,
        0,
        1,
        0,
        0,
        119.71357446063882,
        0,
        1
      ],
      "name": "Cone 3",
      "mesh": 0
    },
    {
      "matrix": [
        1,
        0,
        0,
        0,
        0,
        1,
        0,
        0,
        0,
        0,
        1,
        0,
        0,
        43.91865030913294,
        0,
        1
      ],
      "name": "Cone 2",
      "mesh": 1
    },
    {
      "matrix": [
        1,
        0,
        0,
        0,
        0,
        1,
        0,
        0,
        0,
        0,
        1,
        0,
        0,
        -31.581592248672393,
        0,
        1
      ],
      "name": "Cone",
      "mesh": 2
    },
    {
      "matrix": [
        1,
        0,
        0,
        0,
        0,
        1,
        0,
        0,
        0,
        0,
        1,
        0,
        0,
        316.4292454576092,
        0,
        1
      ],
      "name": "green part",
      "children": [
        1,
        2,
        3
      ]
    },
    {
      "matrix": [
        1,
        0,
        0,
        0,
        0,
        1,
        0,
        0,
        0,
        0,
        1,
        0,
        -2.2737367544323206e-13,
        159.09295554181654,
        0,
        1
      ],
      "name": "trunk",
      "mesh": 3
    },
    {
      "name": "tree",
      "children": [
        4,
        5
      ]
    },
    {
      "matrix": [
        0.7071067751031742,
        1.2166747137554168e-8,
        -0.7071067872699208,
        0,
        -0.4082483010005751,
        0.8164965809277257,
        -0.40824827992715135,
        0,
        0.5773502691896255,
        0.5773502691896262,
        0.5773502691896258,
        0,
        599.2089526064348,
        856.4237486540759,
        609.6510191420922,
        1
      ],
      "camera": 0
    },
    {
      "matrix": [
        1,
        0,
        0,
        0,
        0,
        1,
        0,
        0,
        0,
        0,
        1,
        0,
        0,
        1,
        0,
        1
      ],
      "name": "Default Ambient Light"
    }
  ],
  "bufferViews": [
    {
      "buffer": 0,
      "byteOffset": 0,
      "byteLength": 13020,
      "target": 34962,
      "byteStride": 12
    },
    {
      "buffer": 0,
      "byteOffset": 13020,
      "byteLength": 13020,
      "target": 34962,
      "byteStride": 12
    },
    {
      "buffer": 0,
      "byteOffset": 26040,
      "byteLength": 8680,
      "target": 34962,
      "byteStride": 8
    },
    {
      "buffer": 0,
      "byteOffset": 34720,
      "byteLength": 12060,
      "target": 34963
    },
    {
      "buffer": 0,
      "byteOffset": 46780,
      "byteLength": 56832,
      "target": 34962,
      "byteStride": 12
    },
    {
      "buffer": 0,
      "byteOffset": 103612,
      "byteLength": 56832,
      "target": 34962,
      "byteStride": 12
    },
    {
      "buffer": 0,
      "byteOffset": 160444,
      "byteLength": 28416,
      "target": 34963
    },
    {
      "buffer": 0,
      "byteOffset": 188860,
      "byteLength": 8712,
      "target": 34962,
      "byteStride": 12
    },
    {
      "buffer": 0,
      "byteOffset": 197572,
      "byteLength": 8712,
      "target": 34962,
      "byteStride": 12
    },
    {
      "buffer": 0,
      "byteOffset": 206284,
      "byteLength": 5808,
      "target": 34962,
      "byteStride": 8
    },
    {
      "buffer": 0,
      "byteOffset": 212092,
      "byteLength": 7488,
      "target": 34963
    },
    {
      "buffer": 0,
      "byteOffset": 219580,
      "byteLength": 4656,
      "target": 34962,
      "byteStride": 12
    },
    {
      "buffer": 0,
      "byteOffset": 224236,
      "byteLength": 4656,
      "target": 34962,
      "byteStride": 12
    },
    {
      "buffer": 0,
      "byteOffset": 228892,
      "byteLength": 3104,
      "target": 34962,
      "byteStride": 8
    },
    {
      "buffer": 0,
      "byteOffset": 231996,
      "byteLength": 1536,
      "target": 34963
    }
  ],
  "buffers": [
    {
      "byteLength": 233532,
      "uri": "data:application/octet-stream;base64,"
    }
  ],
  "accessors": [
    {
      "bufferView": 0,
      "componentType": 5126,
      "count": 1085,
      "max": [
        53.91109085083008,
        73.79878997802734,
        54.208045959472656
      ],
      "min": [
        -53.91109085083008,
        -73.79878997802734,
        -54.208045959472656
      ],
      "type": "VEC3"
    },
    {
      "bufferView": 1,
      "componentType": 5126,
      "count": 1085,
      "max": [
        0.9931328296661377,
        1,
        0.9986032843589783
      ],
      "min": [
        -0.9931328296661377,
        -1,
        -0.9986032843589783
      ],
      "type": "VEC3"
    },
    {
      "bufferView": 2,
      "componentType": 5126,
      "count": 1085,
      "max": [
        1,
        1
      ],
      "min": [
        0,
        0
      ],
      "type": "VEC2"
    },
    {
      "bufferView": 3,
      "componentType": 5123,
      "count": 6030,
      "max": [
        1083
      ],
      "min": [
        0
      ],
      "type": "SCALAR"
    },
    {
      "bufferView": 4,
      "componentType": 5126,
      "count": 4736,
      "max": [
        68.65963745117188,
        79.56082153320312,
        68.65965270996094
      ],
      "min": [
        -68.65963745117188,
        -81.65818786621094,
        -68.65965270996094
      ],
      "type": "VEC3"
    },
    {
      "bufferView": 5,
      "componentType": 5126,
      "count": 4736,
      "max": [
        0.9999460577964783,
        1,
        0.9999462962150574
      ],
      "min": [
        -0.9999460577964783,
        -1,
        -0.9999462962150574
      ],
      "type": "VEC3"
    },
    {
      "bufferView": 6,
      "componentType": 5125,
      "count": 7104,
      "max": [
        4735
      ],
      "min": [
        0
      ],
      "type": "SCALAR"
    },
    {
      "bufferView": 7,
      "componentType": 5126,
      "count": 726,
      "max": [
        78.95626068115234,
        93.11113739013672,
        78.95626068115234
      ],
      "min": [
        -78.95626068115234,
        -93.11113739013672,
        -78.95626068115234
      ],
      "type": "VEC3"
    },
    {
      "bufferView": 8,
      "componentType": 5126,
      "count": 726,
      "max": [
        0.9960967898368835,
        1,
        0.9960967898368835
      ],
      "min": [
        -0.9960967898368835,
        -1,
        -0.9960967898368835
      ],
      "type": "VEC3"
    },
    {
      "bufferView": 9,
      "componentType": 5126,
      "count": 726,
      "max": [
        1,
        1
      ],
      "min": [
        0,
        0
      ],
      "type": "VEC2"
    },
    {
      "bufferView": 10,
      "componentType": 5123,
      "count": 3744,
      "max": [
        724
      ],
      "min": [
        0
      ],
      "type": "SCALAR"
    },
    {
      "bufferView": 11,
      "componentType": 5126,
      "count": 388,
      "max": [
        20,
        161,
        20
      ],
      "min": [
        -20,
        -161,
        -20
      ],
      "type": "VEC3"
    },
    {
      "bufferView": 12,
      "componentType": 5126,
      "count": 388,
      "max": [
        1,
        1,
        1
      ],
      "min": [
        -1,
        -1,
        -1
      ],
      "type": "VEC3"
    },
    {
      "bufferView": 13,
      "componentType": 5126,
      "count": 388,
      "max": [
        1,
        1
      ],
      "min": [
        0,
        0
      ],
      "type": "VEC2"
    },
    {
      "bufferView": 14,
      "componentType": 5123,
      "count": 768,
      "max": [
        387
      ],
      "min": [
        0
      ],
      "type": "SCALAR"
    }
  ],
  "materials": [
    {
      "pbrMetallicRoughness": {
        "baseColorFactor": [
          0.12054717118987081,
          0.5019532943865315,
          0.03796926418510729,
          1
        ],
        "metallicFactor": 0,
        "roughnessFactor": 0.9359999999999999
      },
      "doubleSided": false
    },
    {
      "pbrMetallicRoughness": {
        "baseColorFactor": [
          0.8318586641961166,
          0.2899071912347011,
          0.059642238115895495,
          1
        ],
        "metallicFactor": 0,
        "roughnessFactor": 0.97
      },
      "doubleSided": false
    }
  ],
  "meshes": [
    {
      "primitives": [
        {
          "mode": 4,
          "attributes": {
            "POSITION": 0,
            "NORMAL": 1,
            "TEXCOORD_0": 2
          },
          "extras": {
            "parameters": {
              "width": 110,
              "radialSegments": 30,
              "heightSegments": 8,
              "openEnded": false,
              "thetaStart": 0,
              "thetaLength": 360,
              "cornerRadiusTop": 5,
              "cornerRadiusBottom": 2,
              "cornerSegments": 10,
              "depth": 110,
              "height": 147.59757416756565,
              "type": "ConeGeometry"
            },
            "type": "ConeGeometry"
          },
          "indices": 3,
          "material": 0
        }
      ]
    },
    {
      "primitives": [
        {
          "mode": 4,
          "attributes": {
            "POSITION": 4,
            "NORMAL": 5
          },
          "extras": {
            "type": "SubdivGeometry",
            "parameters": {
              "width": 139.99998474121094,
              "height": 163.3163604736328,
              "depth": 140
            }
          },
          "indices": 6,
          "material": 0
        }
      ]
    },
    {
      "primitives": [
        {
          "mode": 4,
          "attributes": {
            "POSITION": 7,
            "NORMAL": 8,
            "TEXCOORD_0": 9
          },
          "extras": {
            "parameters": {
              "width": 160,
              "radialSegments": 32,
              "heightSegments": 8,
              "openEnded": false,
              "thetaStart": 0,
              "thetaLength": 360,
              "cornerRadiusTop": 0,
              "cornerRadiusBottom": 2,
              "cornerSegments": 8,
              "depth": 160,
              "height": 186.22227361477283,
              "type": "ConeGeometry"
            },
            "type": "ConeGeometry"
          },
          "indices": 10,
          "material": 0
        }
      ]
    },
    {
      "primitives": [
        {
          "mode": 4,
          "attributes": {
            "POSITION": 11,
            "NORMAL": 12,
            "TEXCOORD_0": 13
          },
          "extras": {
            "parameters": {
              "width": 40,
              "radialSegments": 64,
              "heightSegments": 1,
              "openEnded": false,
              "thetaStart": 0,
              "thetaLength": 360,
              "cornerRadius": 0,
              "cornerSegments": 1,
              "hollow": 0,
              "height": 322,
              "depth": 40,
              "radiusTop": 20,
              "radiusBottom": 20,
              "type": "CylinderGeometry"
            },
            "type": "CylinderGeometry"
          },
          "indices": 14,
          "material": 1
        }
      ]
    }
  ],
  "cameras": [
    {
      "type": "orthographic",
      "orthographic": {
        "xmag": 6.8229000000000015,
        "ymag": 3.907825000000001,
        "zfar": 100000,
        "znear": 0
      }
    }
  ]
}