{
  "asset": {
    "version": "2.0",
    "generator": "THREE.GLTFExporter"
  },
  "scenes": [
    {
      "nodes": [
        0
      ]
    }
  ],
  "scene": 0,
  "nodes": [
    {
      "children": [
        12
      ],
      "matrix": [
        0.01,
        0,
        0,
        0,
        0,
        0.01,
        0,
        0,
        0,
        0,
        0.01,
        0,
        0,
        0,
        0,
        1
      ]
    },
    {
      "matrix": [
        -1.4664947319239592,
        5.145476759791838e-15,
        3.581665982360391e-15,
        0,
        1.6450636648490074e-16,
        -0.7560759204861318,
        0.32778919182757243,
        0,
        2.5048983162488004e-15,
        0.41059212671654727,
        0.8186433609675975,
        0,
        -70.27981826288055,
        74.95354006393647,
        -42.144859472750106,
        0.9999999999999998
      ],
      "name": "Cube 63",
      "mesh": 0
    },
    {
      "matrix": [
        -1.4664947319239752,
        6.479490492723428e-15,
        3.0877915106805114e-15,
        0,
        -1.110589192399053e-15,
        -0.7560759204861298,
        0.3277891918275718,
        0,
        2.4790449997401942e-15,
        0.4105921267165473,
        0.8186433609675957,
        0,
        69.00636823224701,
        74.95354006393661,
        -42.144859472750255,
        0.9999999999999999
      ],
      "name": "Cube 63",
      "mesh": 1
    },
    {
      "matrix": [
        3.788634847205838e-15,
        1.208735192744539,
        5.295511979050101e-8,
        0,
        0.8342374757236597,
        -3.296309591739209e-15,
        2.812382857213853e-16,
        0,
        2.2777819422279098e-17,
        6.666531272779913e-8,
        -1.3153353402084775,
        0,
        1.2741923402037045,
        35.48682363881743,
        -51.032859622492,
        0.9999999999999998
      ],
      "name": "Cube 66",
      "mesh": 2
    },
    {
      "matrix": [
        -6.583611672037272e-17,
        1.208735192744528,
        -1.1161351767761382e-16,
        0,
        2.6155372036543445e-15,
        1.0097952401602114e-15,
        0.7756153046427064,
        0,
        1.4147503631985445,
        -6.859873898409591e-16,
        -3.157021761395249e-15,
        0,
        151.35747553145714,
        46.25942181831818,
        8.796598454205082,
        0.9999999999999999
      ],
      "name": "Cube 67",
      "mesh": 3
    },
    {
      "matrix": [
        -6.583611672037272e-17,
        1.208735192744528,
        -1.1161351767761382e-16,
        0,
        2.6155372036543445e-15,
        1.0097952401602114e-15,
        0.7756153046427064,
        0,
        1.4147503631985445,
        -6.859873898409591e-16,
        -3.157021761395249e-15,
        0,
        -148.91262409184992,
        46.25942181831829,
        8.796598454205679,
        0.9999999999999999
      ],
      "name": "Cube 65",
      "mesh": 4
    },
    {
      "matrix": [
        -1.2087351927444963,
        7.917686356388889e-17,
        2.2467010925093636e-15,
        0,
        2.6424800235496484e-15,
        3.8098758789897167e-16,
        0.7756153046426862,
        0,
        -1.9916633618442397e-16,
        1.4147503631985228,
        1.83500912728211e-16,
        0,
        1.967382071342687,
        12.51781825025487,
        22.886169937693438,
        0.9999999999999999
      ],
      "name": "Cube 64",
      "mesh": 5
    },
    {
      "matrix": [
        -1.4664947319239605,
        1.8765219510437604e-15,
        1.299443299082526e-15,
        0,
        1.9906406432491424e-15,
        -8.210723887780292e-17,
        0.7756153046426862,
        0,
        1.978133185421659e-15,
        1.414750363198523,
        9.136587026294885e-16,
        0,
        -70.27981826288088,
        38.13045826169744,
        22.886169937693836,
        0.9999999999999997
      ],
      "name": "Cube 60",
      "mesh": 6
    },
    {
      "matrix": [
        -1.4664947319239772,
        2.0393355727311344e-15,
        1.851721643046359e-15,
        0,
        2.122761100697351e-15,
        4.736065532543276e-16,
        0.7756153046426862,
        0,
        1.6639954999577017e-15,
        1.4147503631985219,
        4.75564028688722e-16,
        0,
        69.00636823224701,
        38.13045826169737,
        22.886169937693865,
        0.9999999999999999
      ],
      "name": "Cube 59",
      "mesh": 7
    },
    {
      "matrix": [
        0.6,
        0,
        0,
        0,
        0,
        0.6,
        0,
        0,
        0,
        0,
        0.6,
        0,
        0,
        0,
        0,
        1
      ],
      "name": "Sofa Yellow",
      "children": [
        1,
        2,
        3,
        4,
        5,
        6,
        7,
        8
      ]
    },
    {
      "matrix": [
        0.7071067811865478,
        2.7755575615628914e-17,
        -0.7071067811865471,
        0,
        -0.408248290463863,
        0.8164965809277259,
        -0.40824829046386324,
        0,
        0.5773502691896254,
        0.577350269189626,
        0.577350269189626,
        0,
        530.7853855237722,
        591.7182597996764,
        542.922763420427,
        1
      ],
      "camera": 0
    },
    {
      "matrix": [
        1,
        0,
        0,
        0,
        0,
        1,
        0,
        0,
        0,
        0,
        1,
        0,
        0,
        1,
        0,
        1
      ],
      "name": "Default Ambient Light"
    },
    {
      "name": "Scene 1",
      "children": [
        9,
        10,
        11
      ]
    }
  ],
  "bufferViews": [
    {
      "buffer": 0,
      "byteOffset": 0,
      "byteLength": 8064,
      "target": 34962,
      "byteStride": 12
    },
    {
      "buffer": 0,
      "byteOffset": 8064,
      "byteLength": 8064,
      "target": 34962,
      "byteStride": 12
    },
    {
      "buffer": 0,
      "byteOffset": 16128,
      "byteLength": 4032,
      "target": 34963
    },
    {
      "buffer": 0,
      "byteOffset": 20160,
      "byteLength": 8064,
      "target": 34962,
      "byteStride": 12
    },
    {
      "buffer": 0,
      "byteOffset": 28224,
      "byteLength": 8064,
      "target": 34962,
      "byteStride": 12
    },
    {
      "buffer": 0,
      "byteOffset": 36288,
      "byteLength": 4032,
      "target": 34963
    },
    {
      "buffer": 0,
      "byteOffset": 40320,
      "byteLength": 8064,
      "target": 34962,
      "byteStride": 12
    },
    {
      "buffer": 0,
      "byteOffset": 48384,
      "byteLength": 8064,
      "target": 34962,
      "byteStride": 12
    },
    {
      "buffer": 0,
      "byteOffset": 56448,
      "byteLength": 4032,
      "target": 34963
    },
    {
      "buffer": 0,
      "byteOffset": 60480,
      "byteLength": 8064,
      "target": 34962,
      "byteStride": 12
    },
    {
      "buffer": 0,
      "byteOffset": 68544,
      "byteLength": 8064,
      "target": 34962,
      "byteStride": 12
    },
    {
      "buffer": 0,
      "byteOffset": 76608,
      "byteLength": 4032,
      "target": 34963
    },
    {
      "buffer": 0,
      "byteOffset": 80640,
      "byteLength": 8064,
      "target": 34962,
      "byteStride": 12
    },
    {
      "buffer": 0,
      "byteOffset": 88704,
      "byteLength": 8064,
      "target": 34962,
      "byteStride": 12
    },
    {
      "buffer": 0,
      "byteOffset": 96768,
      "byteLength": 4032,
      "target": 34963
    },
    {
      "buffer": 0,
      "byteOffset": 100800,
      "byteLength": 8064,
      "target": 34962,
      "byteStride": 12
    },
    {
      "buffer": 0,
      "byteOffset": 108864,
      "byteLength": 8064,
      "target": 34962,
      "byteStride": 12
    },
    {
      "buffer": 0,
      "byteOffset": 116928,
      "byteLength": 4032,
      "target": 34963
    },
    {
      "buffer": 0,
      "byteOffset": 120960,
      "byteLength": 8064,
      "target": 34962,
      "byteStride": 12
    },
    {
      "buffer": 0,
      "byteOffset": 129024,
      "byteLength": 8064,
      "target": 34962,
      "byteStride": 12
    },
    {
      "buffer": 0,
      "byteOffset": 137088,
      "byteLength": 4032,
      "target": 34963
    },
    {
      "buffer": 0,
      "byteOffset": 141120,
      "byteLength": 8064,
      "target": 34962,
      "byteStride": 12
    },
    {
      "buffer": 0,
      "byteOffset": 149184,
      "byteLength": 8064,
      "target": 34962,
      "byteStride": 12
    },
    {
      "buffer": 0,
      "byteOffset": 157248,
      "byteLength": 4032,
      "target": 34963
    }
  ],
  "buffers": [
    {
      "byteLength": 161280,
      "uri": "data:application/octet-stream;base64,"
    }
  ],
  "accessors": [
    {
      "bufferView": 0,
      "componentType": 5126,
      "count": 672,
      "max": [
        47.48948669433594,
        65.8741683959961,
        12.774735450744629
      ],
      "min": [
        -47.48948669433594,
        -65.8741683959961,
        -12.774735450744629
      ],
      "type": "VEC3"
    },
    {
      "bufferView": 1,
      "componentType": 5126,
      "count": 672,
      "max": [
        1,
        1,
        1
      ],
      "min": [
        -1,
        -1,
        -1
      ],
      "type": "VEC3"
    },
    {
      "bufferView": 2,
      "componentType": 5125,
      "count": 1008,
      "max": [
        671
      ],
      "min": [
        0
      ],
      "type": "SCALAR"
    },
    {
      "bufferView": 3,
      "componentType": 5126,
      "count": 672,
      "max": [
        47.48948669433594,
        65.8741683959961,
        12.774735450744629
      ],
      "min": [
        -47.48948669433594,
        -65.8741683959961,
        -12.774735450744629
      ],
      "type": "VEC3"
    },
    {
      "bufferView": 4,
      "componentType": 5126,
      "count": 672,
      "max": [
        1,
        1,
        1
      ],
      "min": [
        -1,
        -1,
        -1
      ],
      "type": "VEC3"
    },
    {
      "bufferView": 5,
      "componentType": 5125,
      "count": 1008,
      "max": [
        671
      ],
      "min": [
        0
      ],
      "type": "SCALAR"
    },
    {
      "bufferView": 6,
      "componentType": 5126,
      "count": 672,
      "max": [
        28.968582153320312,
        168.6378631591797,
        10.233389854431152
      ],
      "min": [
        -28.968582153320312,
        -168.6378631591797,
        -12.774735450744629
      ],
      "type": "VEC3"
    },
    {
      "bufferView": 7,
      "componentType": 5126,
      "count": 672,
      "max": [
        1,
        1,
        1
      ],
      "min": [
        -1,
        -1,
        -1
      ],
      "type": "VEC3"
    },
    {
      "bufferView": 8,
      "componentType": 5125,
      "count": 1008,
      "max": [
        671
      ],
      "min": [
        0
      ],
      "type": "SCALAR"
    },
    {
      "bufferView": 9,
      "componentType": 5126,
      "count": 672,
      "max": [
        37.04179382324219,
        84.31893157958984,
        6.958704948425293
      ],
      "min": [
        -37.04179382324219,
        -84.31893157958984,
        -8.686820030212402
      ],
      "type": "VEC3"
    },
    {
      "bufferView": 10,
      "componentType": 5126,
      "count": 672,
      "max": [
        1,
        1,
        1
      ],
      "min": [
        -1,
        -1,
        -1
      ],
      "type": "VEC3"
    },
    {
      "bufferView": 11,
      "componentType": 5125,
      "count": 1008,
      "max": [
        671
      ],
      "min": [
        0
      ],
      "type": "SCALAR"
    },
    {
      "bufferView": 12,
      "componentType": 5126,
      "count": 672,
      "max": [
        37.04179382324219,
        84.31893157958984,
        6.958704948425293
      ],
      "min": [
        -37.04179382324219,
        -84.31893157958984,
        -8.686820030212402
      ],
      "type": "VEC3"
    },
    {
      "bufferView": 13,
      "componentType": 5126,
      "count": 672,
      "max": [
        1,
        1,
        1
      ],
      "min": [
        -1,
        -1,
        -1
      ],
      "type": "VEC3"
    },
    {
      "bufferView": 14,
      "componentType": 5125,
      "count": 1008,
      "max": [
        671
      ],
      "min": [
        0
      ],
      "type": "SCALAR"
    },
    {
      "bufferView": 15,
      "componentType": 5126,
      "count": 672,
      "max": [
        117.29901123046875,
        65.8741683959961,
        7.061038970947266
      ],
      "min": [
        -117.29901123046875,
        -65.8741683959961,
        -8.814567565917969
      ],
      "type": "VEC3"
    },
    {
      "bufferView": 16,
      "componentType": 5126,
      "count": 672,
      "max": [
        1,
        1,
        1
      ],
      "min": [
        -1,
        -1,
        -1
      ],
      "type": "VEC3"
    },
    {
      "bufferView": 17,
      "componentType": 5125,
      "count": 1008,
      "max": [
        671
      ],
      "min": [
        0
      ],
      "type": "SCALAR"
    },
    {
      "bufferView": 18,
      "componentType": 5126,
      "count": 672,
      "max": [
        47.48948669433594,
        65.8741683959961,
        12.774735450744629
      ],
      "min": [
        -47.48948669433594,
        -65.8741683959961,
        -12.774735450744629
      ],
      "type": "VEC3"
    },
    {
      "bufferView": 19,
      "componentType": 5126,
      "count": 672,
      "max": [
        1,
        1,
        1
      ],
      "min": [
        -1,
        -1,
        -1
      ],
      "type": "VEC3"
    },
    {
      "bufferView": 20,
      "componentType": 5125,
      "count": 1008,
      "max": [
        671
      ],
      "min": [
        0
      ],
      "type": "SCALAR"
    },
    {
      "bufferView": 21,
      "componentType": 5126,
      "count": 672,
      "max": [
        47.48948669433594,
        65.8741683959961,
        12.774735450744629
      ],
      "min": [
        -47.48948669433594,
        -65.8741683959961,
        -12.774735450744629
      ],
      "type": "VEC3"
    },
    {
      "bufferView": 22,
      "componentType": 5126,
      "count": 672,
      "max": [
        1,
        1,
        1
      ],
      "min": [
        -1,
        -1,
        -1
      ],
      "type": "VEC3"
    },
    {
      "bufferView": 23,
      "componentType": 5125,
      "count": 1008,
      "max": [
        671
      ],
      "min": [
        0
      ],
      "type": "SCALAR"
    }
  ],
  "materials": [
    {
      "pbrMetallicRoughness": {
        "baseColorFactor": [
          0.49736150208038193,
          0.3330896766760268,
          0.23255975161481857,
          1
        ],
        "metallicFactor": 0,
        "roughnessFactor": 0.3
      },
      "doubleSided": false
    }
  ],
  "meshes": [
    {
      "primitives": [
        {
          "mode": 4,
          "attributes": {
            "POSITION": 0,
            "NORMAL": 1
          },
          "extras": {
            "type": "SubdivGeometry",
            "parameters": {
              "width": 94.97897338867188,
              "height": 131.7483367919922,
              "depth": 25.549470901489258
            }
          },
          "indices": 2,
          "material": 0
        }
      ]
    },
    {
      "primitives": [
        {
          "mode": 4,
          "attributes": {
            "POSITION": 3,
            "NORMAL": 4
          },
          "extras": {
            "type": "SubdivGeometry",
            "parameters": {
              "width": 94.97897338867188,
              "height": 131.7483367919922,
              "depth": 25.549470901489258
            }
          },
          "indices": 5,
          "material": 0
        }
      ]
    },
    {
      "primitives": [
        {
          "mode": 4,
          "attributes": {
            "POSITION": 6,
            "NORMAL": 7
          },
          "extras": {
            "type": "SubdivGeometry",
            "parameters": {
              "width": 57.937164306640625,
              "height": 337.2757263183594,
              "depth": 23.00812530517578
            }
          },
          "indices": 8,
          "material": 0
        }
      ]
    },
    {
      "primitives": [
        {
          "mode": 4,
          "attributes": {
            "POSITION": 9,
            "NORMAL": 10
          },
          "extras": {
            "type": "SubdivGeometry",
            "parameters": {
              "width": 74.08358764648438,
              "height": 168.6378631591797,
              "depth": 15.645524978637695
            }
          },
          "indices": 11,
          "material": 0
        }
      ]
    },
    {
      "primitives": [
        {
          "mode": 4,
          "attributes": {
            "POSITION": 12,
            "NORMAL": 13
          },
          "extras": {
            "type": "SubdivGeometry",
            "parameters": {
              "width": 74.08358764648438,
              "height": 168.6378631591797,
              "depth": 15.645524978637695
            }
          },
          "indices": 14,
          "material": 0
        }
      ]
    },
    {
      "primitives": [
        {
          "mode": 4,
          "attributes": {
            "POSITION": 15,
            "NORMAL": 16
          },
          "extras": {
            "type": "SubdivGeometry",
            "parameters": {
              "width": 234.5980224609375,
              "height": 131.7483367919922,
              "depth": 15.875606536865234
            }
          },
          "indices": 17,
          "material": 0
        }
      ]
    },
    {
      "primitives": [
        {
          "mode": 4,
          "attributes": {
            "POSITION": 18,
            "NORMAL": 19
          },
          "extras": {
            "type": "SubdivGeometry",
            "parameters": {
              "width": 94.97897338867188,
              "height": 131.7483367919922,
              "depth": 25.549470901489258
            }
          },
          "indices": 20,
          "material": 0
        }
      ]
    },
    {
      "primitives": [
        {
          "mode": 4,
          "attributes": {
            "POSITION": 21,
            "NORMAL": 22
          },
          "extras": {
            "type": "SubdivGeometry",
            "parameters": {
              "width": 94.97897338867188,
              "height": 131.7483367919922,
              "depth": 25.549470901489258
            }
          },
          "indices": 23,
          "material": 0
        }
      ]
    }
  ],
  "cameras": [
    {
      "type": "orthographic",
      "orthographic": {
        "xmag": 6.157667249999999,
        "ymag": 3.4942318124999994,
        "zfar": 100000,
        "znear": 0
      }
    }
  ]
}