{
  "asset": {
    "version": "2.0",
    "generator": "THREE.GLTFExporter"
  },
  "scenes": [
    {
      "nodes": [
        0
      ]
    }
  ],
  "scene": 0,
  "nodes": [
    {
      "children": [
        9,
        10,
        11
      ],
      "matrix": [
        0.01,
        0,
        0,
        0,
        0,
        0.01,
        0,
        0,
        0,
        0,
        0.01,
        0,
        0,
        0,
        0,
        1
      ]
    },
    {
      "matrix": [
        1,
        0,
        0,
        0,
        0,
        1,
        0,
        0,
        0,
        0,
        1,
        0,
        -0.1736071004680877,
        -3.2985349088936076,
        -0.06668665745746694,
        1
      ],
      "name": "Ellipse 2",
      "mesh": 0
    },
    {
      "matrix": [
        1,
        0,
        0,
        0,
        0,
        1,
        0,
        0,
        0,
        0,
        1,
        0,
        0,
        0,
        -0.9333133425425331,
        1
      ],
      "name": "Ellipse",
      "mesh": 1
    },
    {
      "matrix": [
        0.9963943933144948,
        -0.008918365465388446,
        -0.08437224501496841,
        0,
        0.006912136299033315,
        0.9996870865651246,
        -0.024040618268187028,
        0,
        0.08456024682570219,
        0.02337074479683667,
        0.9961442530800536,
        0,
        17.205220475296425,
        37.63123232894651,
        32.5760367562744,
        1
      ],
      "name": "Group 2",
      "children": [
        1,
        2
      ]
    },
    {
      "matrix": [
        1,
        0,
        0,
        0,
        0,
        1,
        0,
        0,
        0,
        0,
        1,
        0,
        -0.1736071004680877,
        -3.2985349088936076,
        -0.06668665745746694,
        1
      ],
      "name": "Ellipse 2",
      "mesh": 2
    },
    {
      "matrix": [
        1,
        0,
        0,
        0,
        0,
        1,
        0,
        0,
        0,
        0,
        1,
        0,
        0,
        0,
        -0.9333133425425331,
        1
      ],
      "name": "Ellipse",
      "mesh": 3
    },
    {
      "matrix": [
        1,
        0,
        0,
        0,
        0,
        0.994459862571109,
        -0.10511699070583796,
        0,
        0,
        0.10511699070583796,
        0.994459862571109,
        0,
        -17.918802762549813,
        38.66297914767898,
        30.736552711668878,
        1
      ],
      "name": "Group",
      "children": [
        4,
        5
      ]
    },
    {
      "matrix": [
        1,
        0,
        0,
        0,
        0,
        1,
        0,
        0,
        0,
        0,
        1,
        0,
        0.8713912963867188,
        34.48763165140157,
        -27.199985074235798,
        1
      ],
      "name": "Cube",
      "mesh": 4
    },
    {
      "matrix": [
        1,
        0,
        0,
        0,
        0,
        1,
        0,
        0,
        0,
        0,
        1,
        0,
        -1.5088995835430694,
        1.273592352221737,
        2.0361294775094336,
        1
      ],
      "name": "Group 3",
      "children": [
        7
      ]
    },
    {
      "name": "Group 3",
      "children": [
        3,
        6,
        8
      ]
    },
    {
      "matrix": [
        2.220446049250313e-16,
        0,
        -1,
        0,
        -5.827942386483761e-17,
        1,
        -1.232595164407831e-32,
        0,
        1,
        5.827942386483761e-17,
        2.220446049250313e-16,
        0,
        473.17524261764834,
        16.390271024794714,
        7.750841014915407,
        1
      ],
      "camera": 0
    },
    {
      "matrix": [
        1,
        0,
        0,
        0,
        0,
        1,
        0,
        0,
        0,
        0,
        1,
        0,
        0,
        1,
        0,
        1
      ],
      "name": "Default Ambient Light"
    }
  ],
  "bufferViews": [
    {
      "buffer": 0,
      "byteOffset": 0,
      "byteLength": 3072,
      "target": 34962,
      "byteStride": 12
    },
    {
      "buffer": 0,
      "byteOffset": 3072,
      "byteLength": 3072,
      "target": 34962,
      "byteStride": 12
    },
    {
      "buffer": 0,
      "byteOffset": 6144,
      "byteLength": 2048,
      "target": 34962,
      "byteStride": 8
    },
    {
      "buffer": 0,
      "byteOffset": 8192,
      "byteLength": 3024,
      "target": 34963
    },
    {
      "buffer": 0,
      "byteOffset": 11216,
      "byteLength": 3072,
      "target": 34962,
      "byteStride": 12
    },
    {
      "buffer": 0,
      "byteOffset": 14288,
      "byteLength": 3072,
      "target": 34962,
      "byteStride": 12
    },
    {
      "buffer": 0,
      "byteOffset": 17360,
      "byteLength": 2048,
      "target": 34962,
      "byteStride": 8
    },
    {
      "buffer": 0,
      "byteOffset": 19408,
      "byteLength": 3024,
      "target": 34963
    },
    {
      "buffer": 0,
      "byteOffset": 22432,
      "byteLength": 3072,
      "target": 34962,
      "byteStride": 12
    },
    {
      "buffer": 0,
      "byteOffset": 25504,
      "byteLength": 3072,
      "target": 34962,
      "byteStride": 12
    },
    {
      "buffer": 0,
      "byteOffset": 28576,
      "byteLength": 2048,
      "target": 34962,
      "byteStride": 8
    },
    {
      "buffer": 0,
      "byteOffset": 30624,
      "byteLength": 3024,
      "target": 34963
    },
    {
      "buffer": 0,
      "byteOffset": 33648,
      "byteLength": 3072,
      "target": 34962,
      "byteStride": 12
    },
    {
      "buffer": 0,
      "byteOffset": 36720,
      "byteLength": 3072,
      "target": 34962,
      "byteStride": 12
    },
    {
      "buffer": 0,
      "byteOffset": 39792,
      "byteLength": 2048,
      "target": 34962,
      "byteStride": 8
    },
    {
      "buffer": 0,
      "byteOffset": 41840,
      "byteLength": 3024,
      "target": 34963
    },
    {
      "buffer": 0,
      "byteOffset": 44864,
      "byteLength": 21984,
      "target": 34962,
      "byteStride": 12
    },
    {
      "buffer": 0,
      "byteOffset": 66848,
      "byteLength": 21984,
      "target": 34962,
      "byteStride": 12
    },
    {
      "buffer": 0,
      "byteOffset": 88832,
      "byteLength": 10992,
      "target": 34963
    }
  ],
  "buffers": [
    {
      "byteLength": 99824,
      "uri": "data:application/octet-stream;base64,"
    }
  ],
  "accessors": [
    {
      "bufferView": 0,
      "componentType": 5126,
      "count": 256,
      "max": [
        5.8681511878967285,
        5.8681511878967285,
        1
      ],
      "min": [
        -5.8681511878967285,
        -5.8681511878967285,
        0
      ],
      "type": "VEC3"
    },
    {
      "bufferView": 1,
      "componentType": 5126,
      "count": 256,
      "max": [
        0.9987275004386902,
        0.9987275004386902,
        1
      ],
      "min": [
        -0.9987275004386902,
        -0.9987275004386902,
        -1
      ],
      "type": "VEC3"
    },
    {
      "bufferView": 2,
      "componentType": 5126,
      "count": 256,
      "max": [
        1,
        1
      ],
      "min": [
        0,
        0
      ],
      "type": "VEC2"
    },
    {
      "bufferView": 3,
      "componentType": 5125,
      "count": 756,
      "max": [
        255
      ],
      "min": [
        0
      ],
      "type": "SCALAR"
    },
    {
      "bufferView": 4,
      "componentType": 5126,
      "count": 256,
      "max": [
        10,
        10,
        1
      ],
      "min": [
        -10,
        -10,
        0
      ],
      "type": "VEC3"
    },
    {
      "bufferView": 5,
      "componentType": 5126,
      "count": 256,
      "max": [
        0.9987275004386902,
        0.9987275004386902,
        1
      ],
      "min": [
        -0.9987275004386902,
        -0.9987275004386902,
        -1
      ],
      "type": "VEC3"
    },
    {
      "bufferView": 6,
      "componentType": 5126,
      "count": 256,
      "max": [
        1,
        1
      ],
      "min": [
        0,
        0
      ],
      "type": "VEC2"
    },
    {
      "bufferView": 7,
      "componentType": 5125,
      "count": 756,
      "max": [
        255
      ],
      "min": [
        0
      ],
      "type": "SCALAR"
    },
    {
      "bufferView": 8,
      "componentType": 5126,
      "count": 256,
      "max": [
        5.8681511878967285,
        5.8681511878967285,
        1
      ],
      "min": [
        -5.8681511878967285,
        -5.8681511878967285,
        0
      ],
      "type": "VEC3"
    },
    {
      "bufferView": 9,
      "componentType": 5126,
      "count": 256,
      "max": [
        0.9987275004386902,
        0.9987275004386902,
        1
      ],
      "min": [
        -0.9987275004386902,
        -0.9987275004386902,
        -1
      ],
      "type": "VEC3"
    },
    {
      "bufferView": 10,
      "componentType": 5126,
      "count": 256,
      "max": [
        1,
        1
      ],
      "min": [
        0,
        0
      ],
      "type": "VEC2"
    },
    {
      "bufferView": 11,
      "componentType": 5125,
      "count": 756,
      "max": [
        255
      ],
      "min": [
        0
      ],
      "type": "SCALAR"
    },
    {
      "bufferView": 12,
      "componentType": 5126,
      "count": 256,
      "max": [
        10,
        10,
        1
      ],
      "min": [
        -10,
        -10,
        0
      ],
      "type": "VEC3"
    },
    {
      "bufferView": 13,
      "componentType": 5126,
      "count": 256,
      "max": [
        0.9987275004386902,
        0.9987275004386902,
        1
      ],
      "min": [
        -0.9987275004386902,
        -0.9987275004386902,
        -1
      ],
      "type": "VEC3"
    },
    {
      "bufferView": 14,
      "componentType": 5126,
      "count": 256,
      "max": [
        1,
        1
      ],
      "min": [
        0,
        0
      ],
      "type": "VEC2"
    },
    {
      "bufferView": 15,
      "componentType": 5125,
      "count": 756,
      "max": [
        255
      ],
      "min": [
        0
      ],
      "type": "SCALAR"
    },
    {
      "bufferView": 16,
      "componentType": 5126,
      "count": 1832,
      "max": [
        44.761531829833984,
        29.32732391357422,
        56.16866683959961
      ],
      "min": [
        -46.641197204589844,
        -35.74742889404297,
        -15.373506546020508
      ],
      "type": "VEC3"
    },
    {
      "bufferView": 17,
      "componentType": 5126,
      "count": 1832,
      "max": [
        0.992116391658783,
        0.9984080195426941,
        0.9988557696342468
      ],
      "min": [
        -0.9954535365104675,
        -0.9997068643569946,
        -0.9979574084281921
      ],
      "type": "VEC3"
    },
    {
      "bufferView": 18,
      "componentType": 5125,
      "count": 2748,
      "max": [
        1831
      ],
      "min": [
        0
      ],
      "type": "SCALAR"
    }
  ],
  "materials": [
    {
      "pbrMetallicRoughness": {
        "baseColorFactor": [
          0.013663114968999173,
          0.013663114968999173,
          0.013663114968999173,
          1
        ],
        "metallicFactor": 0,
        "roughnessFactor": 0.9814052006058458
      },
      "doubleSided": false
    },
    {
      "pbrMetallicRoughness": {
        "baseColorFactor": [
          0.9473065367320066,
          0.9473065367320066,
          0.9473065367320066,
          1
        ],
        "metallicFactor": 0,
        "roughnessFactor": 0.995
      },
      "doubleSided": false
    },
    {
      "pbrMetallicRoughness": {
        "baseColorFactor": [
          0.019718261063268808,
          0.019718261063268808,
          0.019718261063268808,
          1
        ],
        "metallicFactor": 0,
        "roughnessFactor": 0.9753803302420475
      },
      "doubleSided": false
    },
    {
      "pbrMetallicRoughness": {
        "baseColorFactor": [
          0.9456709134597233,
          0.9456709134597233,
          0.9456709134597233,
          1
        ],
        "metallicFactor": 0,
        "roughnessFactor": 0.995
      },
      "doubleSided": false
    },
    {
      "pbrMetallicRoughness": {
        "baseColorFactor": [
          0.48189039509418435,
          0.48189039509418435,
          0.48189039509418435,
          1
        ],
        "metallicFactor": 0,
        "roughnessFactor": 0.995
      },
      "doubleSided": false
    }
  ],
  "meshes": [
    {
      "primitives": [
        {
          "mode": 4,
          "attributes": {
            "POSITION": 0,
            "NORMAL": 1,
            "TEXCOORD_0": 2
          },
          "extras": {
            "shape": {
              "points": [
                -5.8681510088595985,
                0,
                -5.8681510088595985,
                -3.2408903117166408,
                -5.8681510088595985,
                3.2408903117166408,
                0,
                0,
                5.8681510088595985,
                -3.2408903117166408,
                5.8681510088595985,
                3.2408903117166408,
                5.8681510088595985,
                0,
                5.8681510088595985,
                0,
                5.8681510088595985,
                3.2408903117166408,
                5.8681510088595985,
                -3.2408903117166408,
                0,
                0,
                -5.8681510088595985,
                3.2408903117166408,
                -5.8681510088595985,
                -3.2408903117166408,
                -5.8681510088595985,
                0
              ],
              "shapeHoles": [],
              "isClosed": true,
              "roundness": 0
            },
            "parameters": {
              "width": 11.736302017719197,
              "depth": 1,
              "spikes": 64,
              "angle": 360,
              "innerRadius": 0,
              "extrudeBevelSize": 0,
              "extrudeBevelSegments": 1,
              "height": 11.736302017719197,
              "type": "EllipseGeometry"
            },
            "type": "EllipseGeometry"
          },
          "indices": 3,
          "material": 0
        }
      ]
    },
    {
      "primitives": [
        {
          "mode": 4,
          "attributes": {
            "POSITION": 4,
            "NORMAL": 5,
            "TEXCOORD_0": 6
          },
          "extras": {
            "shape": {
              "points": [
                -10,
                0,
                -10,
                -5.522847498,
                -10,
                5.522847498,
                0,
                0,
                10,
                -5.522847498,
                10,
                5.522847498,
                10,
                0,
                10,
                0,
                10,
                5.522847498,
                10,
                -5.522847498,
                0,
                0,
                -10,
                5.522847498,
                -10,
                -5.522847498,
                -10,
                0
              ],
              "shapeHoles": [],
              "isClosed": true,
              "roundness": 0
            },
            "parameters": {
              "width": 20,
              "depth": 1,
              "spikes": 64,
              "angle": 360,
              "innerRadius": 0,
              "extrudeBevelSize": 0,
              "extrudeBevelSegments": 1,
              "height": 20,
              "type": "EllipseGeometry"
            },
            "type": "EllipseGeometry"
          },
          "indices": 7,
          "material": 1
        }
      ]
    },
    {
      "primitives": [
        {
          "mode": 4,
          "attributes": {
            "POSITION": 8,
            "NORMAL": 9,
            "TEXCOORD_0": 10
          },
          "extras": {
            "shape": {
              "points": [
                -5.8681510088595985,
                0,
                -5.8681510088595985,
                -3.2408903117166408,
                -5.8681510088595985,
                3.2408903117166408,
                0,
                0,
                5.8681510088595985,
                -3.2408903117166408,
                5.8681510088595985,
                3.2408903117166408,
                5.8681510088595985,
                0,
                5.8681510088595985,
                0,
                5.8681510088595985,
                3.2408903117166408,
                5.8681510088595985,
                -3.2408903117166408,
                0,
                0,
                -5.8681510088595985,
                3.2408903117166408,
                -5.8681510088595985,
                -3.2408903117166408,
                -5.8681510088595985,
                0
              ],
              "shapeHoles": [],
              "isClosed": true,
              "roundness": 0
            },
            "parameters": {
              "width": 11.736302017719197,
              "depth": 1,
              "spikes": 64,
              "angle": 360,
              "innerRadius": 0,
              "extrudeBevelSize": 0,
              "extrudeBevelSegments": 1,
              "height": 11.736302017719197,
              "type": "EllipseGeometry"
            },
            "type": "EllipseGeometry"
          },
          "indices": 11,
          "material": 2
        }
      ]
    },
    {
      "primitives": [
        {
          "mode": 4,
          "attributes": {
            "POSITION": 12,
            "NORMAL": 13,
            "TEXCOORD_0": 14
          },
          "extras": {
            "shape": {
              "points": [
                -10,
                0,
                -10,
                -5.522847498,
                -10,
                5.522847498,
                0,
                0,
                10,
                -5.522847498,
                10,
                5.522847498,
                10,
                0,
                10,
                0,
                10,
                5.522847498,
                10,
                -5.522847498,
                0,
                0,
                -10,
                5.522847498,
                -10,
                -5.522847498,
                -10,
                0
              ],
              "shapeHoles": [],
              "isClosed": true,
              "roundness": 0
            },
            "parameters": {
              "width": 20,
              "depth": 1,
              "spikes": 64,
              "angle": 360,
              "innerRadius": 0,
              "extrudeBevelSize": 0,
              "extrudeBevelSegments": 1,
              "height": 20,
              "type": "EllipseGeometry"
            },
            "type": "EllipseGeometry"
          },
          "indices": 15,
          "material": 3
        }
      ]
    },
    {
      "primitives": [
        {
          "mode": 4,
          "attributes": {
            "POSITION": 16,
            "NORMAL": 17
          },
          "extras": {
            "type": "SubdivGeometry",
            "parameters": {
              "width": 93.91763305664062,
              "height": 67.32796859741211,
              "depth": 73.04176330566406
            }
          },
          "indices": 18,
          "material": 4
        }
      ]
    }
  ],
  "cameras": [
    {
      "type": "perspective",
      "perspective": {
        "aspectRatio": 1.868974042027194,
        "yfov": 0.7853981633974483,
        "zfar": 100000,
        "znear": 70
      }
    }
  ]
}