{
  "asset": {
    "version": "2.0",
    "generator": "THREE.GLTFExporter"
  },
  "scenes": [
    {
      "nodes": [
        0
      ]
    }
  ],
  "scene": 0,
  "nodes": [
    {
      "children": [
        4,
        5,
        6
      ],
      "matrix": [
        0.01,
        0,
        0,
        0,
        0,
        0.01,
        0,
        0,
        0,
        0,
        0.01,
        0,
        0,
        0,
        0,
        1
      ]
    },
    {
      "matrix": [
        0.5660096688460009,
        0,
        -1.213811651915574,
        0,
        0,
        1.3392929745030382,
        0,
        0,
        1.2138116519155744,
        0,
        0.566009668846001,
        0,
        -22.837483301182022,
        66.35670332242675,
        1.1157350708315759,
        1.0000000000000002
      ],
      "name": "Merged Geometry",
      "mesh": 0
    },
    {
      "matrix": [
        8.909135715254971e-16,
        1.242015303478253e-14,
        1.3105802457609548,
        0,
        0.34244259990128895,
        -0.7343705253656069,
        6.132778735071155e-15,
        0,
        0.8552397940843078,
        0.3988048655404068,
        -2.027207724624886e-15,
        0,
        -54.955611067244234,
        110.69281250910878,
        -0.4385704900329444,
        0.9999999999999998
      ],
      "name": "Cube 63",
      "mesh": 1
    },
    {
      "matrix": [
        1.5991711573086426e-15,
        2.0623838448454755e-15,
        1.310580245760955,
        0,
        0.8102882220252962,
        2.800901484868763e-16,
        -1.8239140357890784e-15,
        0,
        8.782228198393865e-16,
        1.3741357704068504,
        -1.451596448049998e-15,
        0,
        11.321859107597856,
        63.41536228938537,
        -0.4161796729391795,
        0.9999999999999999
      ],
      "name": "Cube 60",
      "mesh": 2
    },
    {
      "matrix": [
        -2.775557561562894e-17,
        0,
        0.49999999999999994,
        0,
        0,
        0.4999999999999999,
        0,
        0,
        -0.4999999999999999,
        0,
        -8.326672684688675e-17,
        0,
        -2.1316282072803006e-14,
        1.4210854715202004e-14,
        -5.684341886080802e-14,
        0.9999999999999998
      ],
      "name": "Group 29",
      "children": [
        1,
        2,
        3
      ]
    },
    {
      "matrix": [
        0.7071067933532946,
        -2.4333494330619487e-8,
        -0.7071067690197999,
        0,
        -0.4082482693904383,
        0.8164965809277258,
        -0.408248311537287,
        0,
        0.5773502691896257,
        0.5773502691896255,
        0.5773502691896261,
        0,
        374.6352089969888,
        426.3046520669245,
        345.7406835038481,
        1
      ],
      "camera": 0
    },
    {
      "matrix": [
        1,
        0,
        0,
        0,
        0,
        1,
        0,
        0,
        0,
        0,
        1,
        0,
        0,
        1,
        0,
        1
      ],
      "name": "Default Ambient Light"
    }
  ],
  "bufferViews": [
    {
      "buffer": 0,
      "byteOffset": 0,
      "byteLength": 3072,
      "target": 34962,
      "byteStride": 12
    },
    {
      "buffer": 0,
      "byteOffset": 3072,
      "byteLength": 3072,
      "target": 34962,
      "byteStride": 12
    },
    {
      "buffer": 0,
      "byteOffset": 6144,
      "byteLength": 1536,
      "target": 34963
    },
    {
      "buffer": 0,
      "byteOffset": 7680,
      "byteLength": 8064,
      "target": 34962,
      "byteStride": 12
    },
    {
      "buffer": 0,
      "byteOffset": 15744,
      "byteLength": 8064,
      "target": 34962,
      "byteStride": 12
    },
    {
      "buffer": 0,
      "byteOffset": 23808,
      "byteLength": 4032,
      "target": 34963
    },
    {
      "buffer": 0,
      "byteOffset": 27840,
      "byteLength": 8064,
      "target": 34962,
      "byteStride": 12
    },
    {
      "buffer": 0,
      "byteOffset": 35904,
      "byteLength": 8064,
      "target": 34962,
      "byteStride": 12
    },
    {
      "buffer": 0,
      "byteOffset": 43968,
      "byteLength": 4032,
      "target": 34963
    }
  ],
  "buffers": [
    {
      "byteLength": 48000,
      "uri": "data:application/octet-stream;base64,"
    }
  ],
  "accessors": [
    {
      "bufferView": 0,
      "componentType": 5126,
      "count": 256,
      "max": [
        86.086181640625,
        48.87046813964844,
        87.27091217041016
      ],
      "min": [
        -78.10653686523438,
        -48.87046813964844,
        -70.15851593017578
      ],
      "type": "VEC3"
    },
    {
      "bufferView": 1,
      "componentType": 5126,
      "count": 256,
      "max": [
        0.90903639793396,
        1,
        0.9056487083435059
      ],
      "min": [
        -0.9172007441520691,
        -0.9996607303619385,
        -0.9057272672653198
      ],
      "type": "VEC3"
    },
    {
      "bufferView": 2,
      "componentType": 5125,
      "count": 384,
      "max": [
        255
      ],
      "min": [
        0
      ],
      "type": "SCALAR"
    },
    {
      "bufferView": 3,
      "componentType": 5126,
      "count": 672,
      "max": [
        54.13801574707031,
        50.064369201660156,
        14.690945625305176
      ],
      "min": [
        -54.13801574707031,
        -50.064369201660156,
        -14.690946578979492
      ],
      "type": "VEC3"
    },
    {
      "bufferView": 4,
      "componentType": 5126,
      "count": 672,
      "max": [
        1,
        1,
        1
      ],
      "min": [
        -1,
        -1,
        -1
      ],
      "type": "VEC3"
    },
    {
      "bufferView": 5,
      "componentType": 5125,
      "count": 1008,
      "max": [
        671
      ],
      "min": [
        0
      ],
      "type": "SCALAR"
    },
    {
      "bufferView": 6,
      "componentType": 5126,
      "count": 672,
      "max": [
        54.13801574707031,
        75.09654998779297,
        12.774735450744629
      ],
      "min": [
        -54.13801574707031,
        -75.09654998779297,
        -12.774735450744629
      ],
      "type": "VEC3"
    },
    {
      "bufferView": 7,
      "componentType": 5126,
      "count": 672,
      "max": [
        1,
        1,
        1
      ],
      "min": [
        -1,
        -1,
        -1
      ],
      "type": "VEC3"
    },
    {
      "bufferView": 8,
      "componentType": 5125,
      "count": 1008,
      "max": [
        671
      ],
      "min": [
        0
      ],
      "type": "SCALAR"
    }
  ],
  "materials": [
    {
      "pbrMetallicRoughness": {
        "baseColorFactor": [
          0.23678640836246873,
          0.13414875361703102,
          0.11564562993353122,
          1
        ],
        "metallicFactor": 0,
        "roughnessFactor": 0.99
      },
      "doubleSided": false
    },
    {
      "pbrMetallicRoughness": {
        "baseColorFactor": [
          0.2794818357119004,
          0.18658766058465248,
          0.20847670860320056,
          1
        ],
        "metallicFactor": 0,
        "roughnessFactor": 0.3
      },
      "doubleSided": false
    }
  ],
  "meshes": [
    {
      "primitives": [
        {
          "mode": 4,
          "attributes": {
            "POSITION": 0,
            "NORMAL": 1
          },
          "extras": {
            "type": "SubdivGeometry",
            "parameters": {
              "width": 164.19271850585938,
              "height": 97.74093627929688,
              "depth": 157.42942810058594
            }
          },
          "indices": 2,
          "material": 0
        }
      ]
    },
    {
      "primitives": [
        {
          "mode": 4,
          "attributes": {
            "POSITION": 3,
            "NORMAL": 4
          },
          "extras": {
            "type": "SubdivGeometry",
            "parameters": {
              "width": 108.27603149414062,
              "height": 100.12873840332031,
              "depth": 29.38189125061035
            }
          },
          "indices": 5,
          "material": 1
        }
      ]
    },
    {
      "primitives": [
        {
          "mode": 4,
          "attributes": {
            "POSITION": 6,
            "NORMAL": 7
          },
          "extras": {
            "type": "SubdivGeometry",
            "parameters": {
              "width": 108.27603149414062,
              "height": 150.19309997558594,
              "depth": 25.549470901489258
            }
          },
          "indices": 8,
          "material": 1
        }
      ]
    }
  ],
  "cameras": [
    {
      "type": "perspective",
      "perspective": {
        "aspectRatio": 1.745958429561201,
        "yfov": 0.7853981633974483,
        "zfar": 100000,
        "znear": 5
      }
    }
  ]
}