{
  "asset": {
    "version": "2.0",
    "generator": "THREE.GLTFExporter"
  },
  "scenes": [
    {
      "nodes": [
        0
      ]
    }
  ],
  "scene": 0,
  "nodes": [
    {
      "children": [
        3,
        4,
        5
      ],
      "matrix": [
        0.01,
        0,
        0,
        0,
        0,
        0.01,
        0,
        0,
        0,
        0,
        0.01,
        0,
        0,
        0,
        0,
        1
      ]
    },
    {
      "matrix": [
        0.6799976625391543,
        4.2578154885126697e-17,
        -0.8811088800815652,
        0,
        4.406597468884621e-18,
        -0.08808972242854803,
        4.907407313255623e-18,
        0,
        0.8702745864808711,
        8.042157925983791e-17,
        0.6884132884185009,
        0,
        -7.0471058686156705e-12,
        125.19682400618025,
        1.1446654125972986,
        0.999999999999992
      ],
      "name": "Cylinder 2",
      "mesh": 0
    },
    {
      "matrix": [
        -0.3273058860504484,
        1.3784561050782707e-17,
        0.41873279383384937,
        0,
        6.563099495458008e-17,
        0.8701884387205272,
        2.2606639746720636e-17,
        0,
        -0.40051999558971585,
        3.830573701044425e-17,
        -0.3127714420540521,
        0,
        -0.9335513067997002,
        73.61108572833976,
        0.6074449868389046,
        0.9999999999999919
      ],
      "name": "closed_bin",
      "mesh": 1
    },
    {
      "matrix": [
        0.6,
        0,
        0,
        0,
        0,
        0.6,
        0,
        0,
        0,
        0,
        0.6,
        0,
        0,
        0,
        0,
        1
      ],
      "name": "container",
      "children": [
        1,
        2
      ]
    },
    {
      "matrix": [
        0.7071067811865479,
        -2.7755575615628914e-17,
        -0.707106781186547,
        0,
        -0.4082482904638628,
        0.8164965809277259,
        -0.40824829046386335,
        0,
        0.5773502691896253,
        0.5773502691896258,
        0.5773502691896261,
        0,
        608.1177290161834,
        686.6969232542602,
        617.7682024035796,
        1
      ],
      "camera": 0
    },
    {
      "matrix": [
        1,
        0,
        0,
        0,
        0,
        1,
        0,
        0,
        0,
        0,
        1,
        0,
        0,
        1,
        0,
        1
      ],
      "name": "Default Ambient Light"
    }
  ],
  "bufferViews": [
    {
      "buffer": 0,
      "byteOffset": 0,
      "byteLength": 21888,
      "target": 34962,
      "byteStride": 12
    },
    {
      "buffer": 0,
      "byteOffset": 21888,
      "byteLength": 21888,
      "target": 34962,
      "byteStride": 12
    },
    {
      "buffer": 0,
      "byteOffset": 43776,
      "byteLength": 10944,
      "target": 34963
    },
    {
      "buffer": 0,
      "byteOffset": 54720,
      "byteLength": 92160,
      "target": 34962,
      "byteStride": 12
    },
    {
      "buffer": 0,
      "byteOffset": 146880,
      "byteLength": 92160,
      "target": 34962,
      "byteStride": 12
    },
    {
      "buffer": 0,
      "byteOffset": 239040,
      "byteLength": 46080,
      "target": 34963
    }
  ],
  "buffers": [
    {
      "byteLength": 285120,
      "uri": "data:application/octet-stream;base64,"
    }
  ],
  "accessors": [
    {
      "bufferView": 0,
      "componentType": 5126,
      "count": 1824,
      "max": [
        48.5391731262207,
        84.14236450195312,
        48.539215087890625
      ],
      "min": [
        -48.5391731262207,
        -146.99288940429688,
        -48.539215087890625
      ],
      "type": "VEC3"
    },
    {
      "bufferView": 1,
      "componentType": 5126,
      "count": 1824,
      "max": [
        1,
        1,
        1
      ],
      "min": [
        -1,
        -1,
        -1
      ],
      "type": "VEC3"
    },
    {
      "bufferView": 2,
      "componentType": 5125,
      "count": 2736,
      "max": [
        1823
      ],
      "min": [
        0
      ],
      "type": "SCALAR"
    },
    {
      "bufferView": 3,
      "componentType": 5126,
      "count": 7680,
      "max": [
        101.83871459960938,
        50.74174499511719,
        101.83856201171875
      ],
      "min": [
        -101.83871459960938,
        -85.00730895996094,
        -101.83856201171875
      ],
      "type": "VEC3"
    },
    {
      "bufferView": 4,
      "componentType": 5126,
      "count": 7680,
      "max": [
        1,
        1,
        1
      ],
      "min": [
        -1,
        -1,
        -1
      ],
      "type": "VEC3"
    },
    {
      "bufferView": 5,
      "componentType": 5125,
      "count": 11520,
      "max": [
        7679
      ],
      "min": [
        0
      ],
      "type": "SCALAR"
    }
  ],
  "materials": [
    {
      "pbrMetallicRoughness": {
        "baseColorFactor": [
          0.5897480729234531,
          0.6037763848476364,
          0.6646618598895868,
          1
        ],
        "metallicFactor": 0,
        "roughnessFactor": 0.92
      },
      "doubleSided": false
    }
  ],
  "meshes": [
    {
      "primitives": [
        {
          "mode": 4,
          "attributes": {
            "POSITION": 0,
            "NORMAL": 1
          },
          "extras": {
            "type": "SubdivGeometry",
            "parameters": {
              "width": 100.92335510253906,
              "height": 242.45127868652344,
              "depth": 100.9234848022461
            }
          },
          "indices": 2,
          "material": 0
        }
      ]
    },
    {
      "primitives": [
        {
          "mode": 4,
          "attributes": {
            "POSITION": 3,
            "NORMAL": 4
          },
          "extras": {
            "type": "SubdivGeometry",
            "parameters": {
              "width": 209.22433471679688,
              "height": 135.85398864746094,
              "depth": 209.2239532470703
            }
          },
          "indices": 5,
          "material": 0
        }
      ]
    }
  ],
  "cameras": [
    {
      "type": "orthographic",
      "orthographic": {
        "xmag": 4.526451260642144,
        "ymag": 2.5925309469021807,
        "zfar": 100000,
        "znear": 0
      }
    }
  ]
}